<svg xmlns="http://www.w3.org/2000/svg" viewBox="0 0 235.07 238.81"><defs><style>.cls-1{fill:#1d40b3;}.cls-2{fill:#002ab3;}.cls-3{fill:#000c33;}.cls-4{fill:none;stroke:#00208c;stroke-miterlimit:10;stroke-width:10px;stroke-dasharray:60 15 20 10 10 10;}.cls-5{font-size:48px;fill:#fff;font-family:KozGoPr6N-Regular-90ms-RKSJ-H, Kozuka Gothic Pr6N;}</style></defs><title>circle1</title><g id="レイヤー_2" data-name="レイヤー 2"><g id="layer1"><path class="cls-1" d="M120,23a97,97,0,1,1-97,97,97.11,97.11,0,0,1,97-97m0-3A100,100,0,1,0,220,120,100,100,0,0,0,120,20Z"/><path class="cls-2" d="M120,0A119.37,119.37,0,0,0,52.18,21l11.31,16.5A99.53,99.53,0,0,1,94.06,23.38h0l1-.25h0l.22-.06h0l.22-.06h0l.07,0h0l.15,0h0l.07,0h0l.15,0h0l.07,0h0l.15,0h0l.07,0h0l.22-.05h0l.22-.05h0l.22-.05h0l.45-.1h0l.07,0h0l.15,0h0l.07,0h0l.15,0h0l.07,0h0l.22,0h0l.22,0h0l.22,0h0l.07,0h0l.15,0h.08l.15,0h.08l.15,0h.08l.15,0h.08l.15,0h.09l.14,0h.15l.15,0h.08l.15,0h.08l.15,0h.08l.15,0H101l.15,0h.08l.15,0h.08l.15,0H102l.15,0h.09l.15,0h.09l.15,0h.08l.15,0h.09l.15,0h.62l.15,0h.08l.15,0h.09l.15,0h.09l.15,0h.09l.15,0h.63l.15,0h.09l.14,0h.09l.15,0h.09l.14,0h.09l.15,0h.87l.15,0h.09l.15,0h.09l.15,0h1.11l.15,0h.09l.14,0H120V0ZM20,122.9l-20,.57a118.71,118.71,0,0,0,13.83,52.59,121.15,121.15,0,0,0,34.26,40l12-16a100.45,100.45,0,0,1-8.6-7.22h0l-.06-.06h0l-.06-.06h0l-.25-.24h0l-.06-.05h0l-.06-.05h0l-.25-.24h0l-.06-.05h0l0,0h0l-.05,0h0l-.06-.06h0l-.12-.12h0l-.06-.06h0l0,0h0l0,0h0l0,0h0l-.06-.06h0l-.12-.12h0l0,0,0,0,0,0,0,0,0,0,0,0,0,0h0l-.06-.05h0l-.06-.06h0l0,0,0,0,0,0,0,0,0,0,0,0,0,0,0,0,0,0h0l-.12-.12,0,0,0,0,0,0,0,0,0,0,0,0,0,0,0,0,0,0,0,0h0l-.06-.06,0,0,0,0,0,0,0,0,0,0,0,0,0,0,0,0,0,0,0,0,0,0,0,0,0,0,0,0,0,0,0,0,0,0,0,0,0,0,0,0,0,0,0,0,0,0,0,0,0,0,0,0,0,0,0,0,0,0,0,0,0,0,0,0,0,0,0,0,0,0,0,0,0,0,0,0-.08-.08h0l0,0,0,0,0,0,0,0,0,0,0,0,0,0,0,0,0,0,0,0,0,0h0l-.09-.1h0l0,0,0,0,0,0,0,0,0,0,0,0,0,0,0,0,0,0h0l-.14-.15h0l0,0h0l0,0v0l0,0v0l0,0h0l-.18-.2h0l0,0h0l0,0h0l0,0h0l0,0h0l-.19-.21h0l0,0h0l0,0h0l0,0h0l-.24-.27h0l0,0h0l0,0h0l-.25-.28h0l0-.05h0l0-.05h0l0-.05h0l-.29-.33h0l0-.05h0l-.34-.39h0a100.34,100.34,0,0,1-9.43-12.81h0l0-.06h0l-.28-.45h0l-.27-.45h0l0-.06h0l-.23-.39h0l0-.06h0l0-.06h0l-.19-.32h0l0-.06h0l0-.06h0l0-.06h0l-.18-.32h0l0-.06h0l0-.06h0l0-.06h0l-.14-.25h0l0-.06h0l0-.05v0l0-.05h0l0-.06h0l-.14-.25h0l0-.06h0l0-.05h0l0-.05h0l0-.06h0l-.11-.19h0l0-.05v0l0,0v0l0,0v0l0-.05h0l-.13-.24v0l0,0v0l0,0v0l0,0v0l0,0h0l-.1-.17v0l0,0v0l0,0,0,0,0,0v0l0,0v0l0,0v0l-.09-.16v0l0,0,0,0,0,0,0,0,0,0,0,0,0,0v0l0,0h0l-.06-.11v0l0,0,0,0v0A99.48,99.48,0,0,1,20,122.9Zm76,94.21-4.78,19.42A120,120,0,0,0,103,238.81l2.8-19.8q-3.3-.47-6.53-1.15H98.1l-2.11-.5ZM195.6,185.4a100,100,0,0,1-50.13,31.31l5.09,19.34a119.49,119.49,0,0,0,60.16-37.57L195.6,185.4ZM164.91,8.71l-7.5,18.54,0,0h0l.05,0h0l.05,0h0l.05,0h0l.19.08h0l.05,0h0l.05,0h0l.05,0h0l.05,0h0l.25.1h0l.05,0h0l.05,0h0l.05,0h0l.19.08h0l.05,0h0l0,0h0l.05,0h0l.05,0h0l.05,0h0l.19.08h0l.05,0h0l.05,0h0l.05,0h0l.06,0h0l.19.08h0l.05,0h0l.05,0h0l.05,0h0l.06,0h0l.19.09h0l.05,0h0l.05,0h0l.05,0h0l.05,0h0l.19.08h0l.05,0h0l.05,0h0l0,0h0l.05,0h0l.19.08h0l.05,0h0l.05,0h0l0,0h0l.05,0h0l.19.09h0l.05,0h0l.05,0h0l.05,0h0l.05,0h0l.19.09h0l.05,0h0l.05,0h0l.05,0h0l.06,0h0l.25.12h0l.05,0h0l0,0h0l0,0h0l.18.09h0l.05,0h0l0,0h0l0,0h0l.05,0h0l.24.12h0l.05,0h0l.05,0h0l.05,0h0l.06,0h0l.19.09h0l0,0h0l0,0h0l.05,0h0l.05,0h0l.19.09h0l.05,0h0l0,0h0l.05,0h0l.06,0h0l.19.1h0l.05,0h0l0,0h0l0,0h0l.05,0h0l.19.1h0l.05,0h0l0,0h0l0,0h0l.05,0h0l.18.09h0l.05,0h0l.05,0h0l.05,0h0l.05,0h0l.18.09h0l.05,0h0l0,0h0l0,0h0l.05,0h0l.18.1h0l0,0h0l0,0h0l0,0h0l0,0h0l.18.1h0l.05,0h0l0,0h0l0,0h0l0,0h0l.18.1h0l.05,0h0l0,0h0l0,0h0l0,0h0l.17.1h0l0,0h0l0,0,0,0,0,0h0l0,0h0l0,0h0l.13.07h0l0,0h0l0,0h0l0,0,0,0,0,0h0l0,0h0l.12.07h0l0,0h0l0,0,0,0,0,0,0,0,0,0,0,0,0,0h0l.17.1h0l0,0h0l0,0h0l0,0h0l0,0h0l.16.09h0l0,0,0,0,0,0,0,0,0,0,0,0,0,0h0l.16.09,0,0,0,0,0,0,0,0,0,0,0,0,0,0,0,0h0l.16.09h0l0,0,0,0,0,0,0,0,0,0,0,0,0,0,0,0,0,0h0l.09.05,0,0,0,0,0,0,0,0,0,0,0,0,0,0,0,0,0,0,0,0h0l.1.06,0,0,0,0,0,0,0,0,0,0,0,0,0,0,0,0,0,0,0,0h0l.08.05,0,0,0,0,0,0,0,0,0,0,0,0,0,0,0,0,0,0,0,0,0,0,.06,0,0,0,0,0,0,0,0,0,0,0,0,0,0,0,0,0,0,0,0,0,0,0,.05,0,0,0,0,0,0,0,0,0,0,0,0,0,0,0,0,0,0,0,0,0,0,0,0,0,0,0,0,0,0,0,0,0,0,0,0,0,0,0,0,0,0,0,0,0,0,0,0,0,0,0,0,0,0,0,0,0,0,0,0,0,0,0,0,0,0,0,0,0,0,0,0,0,.06,0,0,0,0,0,0,0,0,0,0,0,0,0,0,0,0,0,0,0,.05,0h0l.07,0h0l0,0,0,0,0,0,0,0,0,0,0,0,0,0,0,0,.05,0h0l.07,0h0l.06,0h0l0,0,0,0,0,0,0,0,0,0,0,0,0,0h0l.07,0h0l0,0,0,0,0,0,0,0,0,0,0,0,0,0,0,0,0,0h0l.07,0h0l.05,0,0,0,0,0,0,0,0,0,0,0,0,0,0,0,0,0,0,0,.07,0h0l0,0,0,0,0,0,0,0,0,0,0,0,0,0,0,0,0,0,0,0,.07,0h0l.06,0h0l0,0,0,0,0,0,0,0,0,0,0,0,.05,0h0l.13.1h0l0,0,0,0,0,0,0,0,0,0,0,0,0,0h0l.13.1h0l0,0,0,0,0,0,0,0,0,0,0,0,.05,0h0l.13.1h0l.05,0,0,0,0,0,0,0,0,0h0l0,0h0l.13.1h0l.05,0h0l0,0,0,0,0,0,0,0,.05,0h0l.13.1h0l.06,0h0l.05,0h0l.05,0h0l.05,0h0l.14.1h0l.06,0h0l.05,0h0l0,0h0l.05,0h0l.13.1h0l.06,0h0l.05,0h0l.05,0h0l.05,0h0l.06,0h0l.13.1h0l.05,0h0l0,0h0l.05,0h0l.2.16h0l.06,0h0l.05,0h0l.05,0h0l.2.16h0l.06,0h0l.05,0h0l.06,0h0l.2.16h0l.06,0h0l.06,0h0l.06,0h0l.26.21h0l.06,0h0l.06,0h0l.26.22h0l.06,0h0l.06,0h0l.27.22h0l.06,0h0l.06,0h0l.26.22h0l.06.05h0l.06,0h0l.26.22h0l.06.05h0l.06.05h0l.26.22h0l.06.05h0l.06,0h0L185,44h0l.2.17h0l.06.05h0l.06.05h0l.26.23h0l.06.06h0l.06.05h0l.06.05h0l.19.17h0l.06.05h0l.06,0h0l.06.05h0l.26.23h0l.06.05h0l.06.05h0l.26.23h0l.06.05h0l.06.06h0l.32.29h0l.38.35h0l.38.35h0l.06.06h0l.32.3h0l.06.06h0l.32.3h0l.75.72h0l.37.36h0l.06.06h0q1.31,1.28,2.57,2.61h0l.36.38h0l.06.06h0l.3.32h0l.06.06h0l.3.32h0l.06.06h0l.29.32h0l.06.06h0l.29.32h0l.05.06h0l.06.06h0l.23.26h0l.05.06h0l.05.06h0L195,54h0l.05.06h0l.05.06h0l.23.26h0l.05.06h0l.05.06h0l.23.26h0l0,.06h0l0,.06h0l.22.26h0l.05.06h0l.05.06h0l.22.26h0l.05.06h0l.05.06h0l.22.27h0l.05.06h0l0,.06h0l.27.33h0l.05.06h0l.05.06h0l.17.2h0l.05.06h0l0,.06h0l0,.06h0l.16.2h0l.05.06h0l0,.06h0l.05.06h0l.22.27h0l0,.06h0l0,.06h0l.21.27h0l0,.06h0l0,.06h0l.21.27h0l0,.06h0l0,.06h0l.21.27h0l0,.06h0l0,.06h0l.21.27h0l0,.06h0l0,.06h0l.21.27h0l0,.06h0l0,.06h0l.21.28h0l.05.07h0l0,.06h0l.21.28h0l0,.07h0l0,.06h0l.21.28h0l0,.07h0l0,.06h0l.2.28h0l0,.06h0l0,.06h0l.25.35h0l0,.07h0l.25.35h0l0,.07h0l.25.36h0l0,.07h0l.3.43h0l.3.43h0a99.57,99.57,0,0,1,13.29,28L235.07,86A120.26,120.26,0,0,0,164.91,8.71Z"/><path class="cls-2" d="M120,40a80,80,0,1,1-80,80,80,80,0,0,1,80-80m0-6a86,86,0,1,0,86,86,86.1,86.1,0,0,0-86-86Z"/><circle class="cls-3" cx="119.95" cy="120" r="70"/><circle class="cls-4" cx="119.95" cy="120" r="60"/></g><g id="layer2"><text class="cls-5" transform="translate(89.26 132.98)">Go</text></g></g></svg>