<svg xmlns="http://www.w3.org/2000/svg" xmlns:xlink="http://www.w3.org/1999/xlink" viewBox="0 0 259.42 259.42"><defs><style>.cls-1{fill:none;}.cls-2{fill:url(#New_Gradient_Swatch_2);}.cls-3{clip-path:url(#clip-path);}.cls-4{fill:url(#New_Gradient_Swatch_2-2);}.cls-5{fill:url(#New_Gradient_Swatch_2-3);}.cls-6{fill:url(#New_Gradient_Swatch_2-4);}.cls-7{fill:url(#New_Gradient_Swatch_2-5);}.cls-8{fill:url(#New_Gradient_Swatch_2-6);}.cls-9{fill:url(#New_Gradient_Swatch_2-7);}.cls-10{fill:url(#New_Gradient_Swatch_2-9);}.cls-11{fill:url(#New_Gradient_Swatch_2-10);}.cls-12{fill:url(#New_Gradient_Swatch_2-11);}.cls-13{fill:url(#New_Gradient_Swatch_2-12);}.cls-14{fill:url(#New_Gradient_Swatch_2-13);}.cls-15{fill:url(#New_Gradient_Swatch_2-14);}.cls-16{fill:url(#New_Gradient_Swatch_2-15);}.cls-17{fill:url(#New_Gradient_Swatch_2-16);}.cls-18{fill:url(#New_Gradient_Swatch_2-17);}.cls-19{fill:url(#New_Gradient_Swatch_2-18);}.cls-20{fill:url(#New_Gradient_Swatch_2-19);}.cls-21{fill:url(#New_Gradient_Swatch_2-20);}.cls-22{fill:url(#New_Gradient_Swatch_2-21);}.cls-23{fill:url(#New_Gradient_Swatch_2-22);}.cls-24{fill:url(#New_Gradient_Swatch_2-23);}.cls-25{fill:url(#New_Gradient_Swatch_2-24);}.cls-26{fill:url(#New_Gradient_Swatch_2-25);}.cls-27{fill:url(#linear-gradient);}.cls-28{fill:#2c2d2f;}.cls-29{fill:url(#radial-gradient);}.cls-30{fill:url(#New_Gradient_Swatch_2-26);}.cls-31{fill:#f9291b;}.cls-32{fill:#00aeef;}</style><linearGradient id="New_Gradient_Swatch_2" x1="6.4" y1="97.13" x2="257.27" y2="163.42" gradientUnits="userSpaceOnUse"><stop offset="0.03" stop-color="#a6a8ab"/><stop offset="0.04" stop-color="#abadaf"/><stop offset="0.07" stop-color="#bbbdbf"/><stop offset="0.12" stop-color="#e2e3e4"/><stop offset="0.23" stop-color="#a6a8ab"/><stop offset="0.24" stop-color="#a7a9ac"/><stop offset="0.27" stop-color="#d5d6d7"/><stop offset="0.29" stop-color="#e6e7e8"/><stop offset="0.32" stop-color="#e9eaeb"/><stop offset="0.34" stop-color="#f1f1f2"/><stop offset="0.4" stop-color="#d0d2d3"/><stop offset="0.44" stop-color="#bbbdbf"/><stop offset="0.49" stop-color="#a6a8ab"/><stop offset="0.6" stop-color="#fff"/><stop offset="0.69" stop-color="#d1d2d4"/><stop offset="0.69" stop-color="#c9cbcd"/><stop offset="0.69" stop-color="#bebfc1"/><stop offset="0.7" stop-color="#b7b9bb"/><stop offset="0.73" stop-color="#b5b7b9"/><stop offset="0.77" stop-color="#9c9ea1"/><stop offset="0.84" stop-color="#fff"/><stop offset="0.9" stop-color="#d0d2d3"/><stop offset="0.92" stop-color="#cdcfd0"/><stop offset="0.93" stop-color="#c5c7c8"/><stop offset="0.94" stop-color="#bbbdbf"/><stop offset="0.97" stop-color="#b0b2b5"/><stop offset="1" stop-color="#a6a8ab"/></linearGradient><clipPath id="clip-path"><circle id="SVGID" class="cls-1" cx="129.71" cy="129.71" r="124.84"/></clipPath><linearGradient id="New_Gradient_Swatch_2-2" x1="4.87" y1="129.62" x2="254.55" y2="129.62" xlink:href="#New_Gradient_Swatch_2"/><linearGradient id="New_Gradient_Swatch_2-3" x1="11.95" y1="129.62" x2="247.47" y2="129.62" xlink:href="#New_Gradient_Swatch_2"/><linearGradient id="New_Gradient_Swatch_2-4" x1="17.93" y1="129.62" x2="241.48" y2="129.62" xlink:href="#New_Gradient_Swatch_2"/><linearGradient id="New_Gradient_Swatch_2-5" x1="25.01" y1="129.62" x2="234.41" y2="129.62" xlink:href="#New_Gradient_Swatch_2"/><linearGradient id="New_Gradient_Swatch_2-6" x1="30.45" y1="129.62" x2="228.96" y2="129.62" xlink:href="#New_Gradient_Swatch_2"/><linearGradient id="New_Gradient_Swatch_2-7" x1="35.35" y1="129.62" x2="224.06" y2="129.62" xlink:href="#New_Gradient_Swatch_2"/><linearGradient id="New_Gradient_Swatch_2-9" x1="37.38" y1="129.62" x2="222.04" y2="129.62" xlink:href="#New_Gradient_Swatch_2"/><linearGradient id="New_Gradient_Swatch_2-10" x1="42.27" y1="129.62" x2="217.15" y2="129.62" xlink:href="#New_Gradient_Swatch_2"/><linearGradient id="New_Gradient_Swatch_2-11" x1="48.1" y1="129.62" x2="211.32" y2="129.62" xlink:href="#New_Gradient_Swatch_2"/><linearGradient id="New_Gradient_Swatch_2-12" x1="55.88" y1="129.62" x2="203.53" y2="129.62" xlink:href="#New_Gradient_Swatch_2"/><linearGradient id="New_Gradient_Swatch_2-13" x1="62.79" y1="129.62" x2="196.62" y2="129.62" xlink:href="#New_Gradient_Swatch_2"/><linearGradient id="New_Gradient_Swatch_2-14" x1="68.23" y1="129.62" x2="191.18" y2="129.62" xlink:href="#New_Gradient_Swatch_2"/><linearGradient id="New_Gradient_Swatch_2-15" x1="73.07" y1="129.62" x2="186.35" y2="129.62" xlink:href="#New_Gradient_Swatch_2"/><linearGradient id="New_Gradient_Swatch_2-16" x1="78.26" y1="129.62" x2="181.16" y2="129.62" xlink:href="#New_Gradient_Swatch_2"/><linearGradient id="New_Gradient_Swatch_2-17" x1="84.43" y1="129.62" x2="174.99" y2="129.62" xlink:href="#New_Gradient_Swatch_2"/><linearGradient id="New_Gradient_Swatch_2-18" x1="90.01" y1="129.62" x2="169.41" y2="129.62" xlink:href="#New_Gradient_Swatch_2"/><linearGradient id="New_Gradient_Swatch_2-19" x1="95.17" y1="129.62" x2="164.25" y2="129.62" xlink:href="#New_Gradient_Swatch_2"/><linearGradient id="New_Gradient_Swatch_2-20" x1="100.61" y1="129.62" x2="158.8" y2="129.62" xlink:href="#New_Gradient_Swatch_2"/><linearGradient id="New_Gradient_Swatch_2-21" x1="105.21" y1="129.62" x2="154.2" y2="129.62" xlink:href="#New_Gradient_Swatch_2"/><linearGradient id="New_Gradient_Swatch_2-22" x1="109.84" y1="129.62" x2="149.58" y2="129.62" xlink:href="#New_Gradient_Swatch_2"/><linearGradient id="New_Gradient_Swatch_2-23" x1="114.19" y1="129.62" x2="145.22" y2="129.62" xlink:href="#New_Gradient_Swatch_2"/><linearGradient id="New_Gradient_Swatch_2-24" x1="117.46" y1="129.62" x2="141.96" y2="129.62" xlink:href="#New_Gradient_Swatch_2"/><linearGradient id="New_Gradient_Swatch_2-25" x1="121.09" y1="129.62" x2="138.33" y2="129.62" xlink:href="#New_Gradient_Swatch_2"/><linearGradient id="linear-gradient" x1="124.02" y1="129.62" x2="135.4" y2="129.62" gradientUnits="userSpaceOnUse"><stop offset="0" stop-color="#e5e2df"/><stop offset="0" stop-color="#ddd9d6"/><stop offset="0.06" stop-color="#cecac9"/><stop offset="0.18" stop-color="#a7a3a6"/><stop offset="0.26" stop-color="#8a868c"/><stop offset="0.52" stop-color="#f2f3f3"/><stop offset="0.59" stop-color="#e4e4e5"/><stop offset="0.71" stop-color="#bebdbf"/><stop offset="0.87" stop-color="#837f83"/><stop offset="0.88" stop-color="#807c80"/><stop offset="1" stop-color="#d0d2d3"/><stop offset="1" stop-color="#a6a8ab"/></linearGradient><radialGradient id="radial-gradient" cx="129.09" cy="129.99" r="10.42" xlink:href="#New_Gradient_Swatch_2"/><linearGradient id="New_Gradient_Swatch_2-26" x1="105.79" y1="123.64" x2="215.75" y2="123.64" xlink:href="#New_Gradient_Swatch_2"/></defs><title>gauge4-2</title><g id="レイヤー_2" data-name="レイヤー 2"><g id="Layer_1" data-name="Layer 1"><circle class="cls-2" cx="129.71" cy="129.71" r="129.71"/><g class="cls-3"><circle class="cls-4" cx="129.71" cy="129.62" r="124.84"/><circle class="cls-5" cx="129.71" cy="129.62" r="117.76"/><circle class="cls-6" cx="129.71" cy="129.62" r="111.77"/><circle class="cls-7" cx="129.71" cy="129.62" r="104.7"/><circle class="cls-8" cx="129.71" cy="129.62" r="99.25"/><circle class="cls-9" cx="129.71" cy="129.62" r="94.36"/><circle class="cls-8" cx="129.71" cy="129.62" r="99.25"/><circle class="cls-10" cx="129.71" cy="129.62" r="92.33"/><circle class="cls-11" cx="129.71" cy="129.62" r="87.44"/><circle class="cls-12" cx="129.71" cy="129.62" r="81.61"/><circle class="cls-13" cx="129.71" cy="129.62" r="73.82"/><circle class="cls-14" cx="129.71" cy="129.62" r="66.92"/><circle class="cls-15" cx="129.71" cy="129.62" r="61.47"/><circle class="cls-16" cx="129.71" cy="129.62" r="56.64"/><circle class="cls-17" cx="129.71" cy="129.62" r="51.45"/><circle class="cls-18" cx="129.71" cy="129.62" r="45.28"/><circle class="cls-19" cx="129.71" cy="129.62" r="39.7"/><circle class="cls-20" cx="129.71" cy="129.62" r="34.54"/><circle class="cls-21" cx="129.71" cy="129.62" r="29.1"/><circle class="cls-22" cx="129.71" cy="129.62" r="24.5"/><circle class="cls-23" cx="129.71" cy="129.62" r="19.87"/><circle class="cls-24" cx="129.71" cy="129.62" r="15.52"/><circle class="cls-25" cx="129.71" cy="129.62" r="12.25"/><circle class="cls-26" cx="129.71" cy="129.62" r="8.62"/><circle class="cls-27" cx="129.71" cy="129.62" r="5.69"/></g><path class="cls-28" d="M246.88,129.71c-2.34,64.16-44.46,97.43-68.88,96-19.05-1.08-15.83-20.25-51.08-20.25-28.89,0-32.47,18-50.08,20-33.39,3.91-64.32-53.45-64.32-95.81A117.18,117.18,0,0,1,129.71,12.53C194.42,12.53,249.24,65,246.88,129.71Z"/><circle class="cls-29" cx="129.09" cy="129.99" r="10.42"/><path class="cls-30" d="M215.38,107.62l-80.52,17.45a7.7,7.7,0,0,0-13.22,2.87l-15.42,3.34c-.49.11-.57.44-.16.74l3,2.28a1.2,1.2,0,0,1,.35,1.38l-1.55,3.45c-.21.46,0,.72.5.57l14.9-4.46A7.66,7.66,0,0,0,135,135a7.65,7.65,0,0,0,1.68-3.77l78.75-23.55C215.88,107.54,215.87,107.51,215.38,107.62Zm-88.29,24.83a3,3,0,1,1,4.29-.4A3,3,0,0,1,127.09,132.45Z"/><rect class="cls-31" x="188.8" y="204.62" width="0.82" height="6.18" transform="translate(-85.7 149.68) rotate(-35.75)"/><rect class="cls-31" x="196.96" y="198.07" width="0.82" height="6.18" transform="translate(-83.83 182.52) rotate(-41.75)"/><rect class="cls-31" x="211" y="182.6" width="0.82" height="6.18" transform="translate(-63.35 246.37) rotate(-53.75)"/><rect class="cls-31" x="221.53" y="164.55" width="0.82" height="6.18" transform="translate(-22.06 301.15) rotate(-65.75)"/><rect class="cls-31" x="225.32" y="154.8" width="0.82" height="6.18" transform="translate(5.09 322.83) rotate(-71.75)"/><rect class="cls-31" x="186.99" y="199.02" width="0.82" height="12.36" transform="translate(-84.58 148.15) rotate(-35.75)"/><rect class="cls-31" x="188.8" y="204.62" width="0.82" height="6.18" transform="translate(-85.7 149.7) rotate(-35.75)"/><rect class="cls-31" x="196.96" y="198.07" width="0.82" height="6.18" transform="translate(-83.83 182.52) rotate(-41.75)"/><rect class="cls-31" x="208.51" y="177.68" width="0.82" height="12.36" transform="translate(-62.9 243.61) rotate(-53.75)"/><rect class="cls-31" x="204.39" y="190.7" width="0.82" height="6.18" transform="translate(-76.35 215.09) rotate(-47.75)"/><rect class="cls-31" x="211" y="182.6" width="0.82" height="6.18" transform="translate(-63.35 246.38) rotate(-53.75)"/><rect class="cls-31" x="216.74" y="173.85" width="0.82" height="6.18" transform="translate(-45.09 275.4) rotate(-59.75)"/><rect class="cls-31" x="222.39" y="150.74" width="0.82" height="12.36" transform="translate(4 319.38) rotate(-71.75)"/><rect class="cls-31" x="221.53" y="164.55" width="0.82" height="6.18" transform="translate(-22.06 301.15) rotate(-65.75)"/><rect class="cls-31" x="225.32" y="154.8" width="0.82" height="6.18" transform="translate(5.09 322.82) rotate(-71.75)"/><rect class="cls-31" x="208.51" y="177.68" width="0.82" height="12.36" transform="translate(-62.9 243.61) rotate(-53.75)"/><rect class="cls-32" x="138.6" y="26.83" width="6.18" height="0.82" transform="translate(99.19 165.13) rotate(-83.75)"/><rect class="cls-32" x="128.16" y="26.24" width="6.18" height="0.82" transform="matrix(0, -1, 1, 0, 104.03, 157.78)"/><rect class="cls-32" x="120.39" y="24.06" width="0.82" height="6.18" transform="translate(-2.11 12.24) rotate(-5.75)"/><rect class="cls-32" x="110.05" y="25.65" width="0.82" height="6.18" transform="translate(-3.54 23.1) rotate(-11.75)"/><rect class="cls-32" x="99.93" y="28.31" width="0.82" height="6.18" transform="matrix(0.95, -0.3, 0.3, 0.95, -4.8, 32.09)"/><rect class="cls-32" x="90.15" y="32.02" width="0.82" height="6.18" transform="translate(-6.47 39.44) rotate(-23.75)"/><rect class="cls-32" x="80.8" y="36.73" width="0.82" height="6.18" transform="translate(-9.06 45.55) rotate(-29.75)"/><rect class="cls-32" x="72.01" y="42.39" width="0.82" height="6.18" transform="translate(-12.93 50.88) rotate(-35.75)"/><rect class="cls-32" x="63.85" y="48.94" width="0.82" height="6.18" transform="translate(-18.33 56) rotate(-41.75)"/><rect class="cls-32" x="56.42" y="56.3" width="0.82" height="6.18" transform="translate(-25.35 61.53) rotate(-47.75)"/><rect class="cls-32" x="49.8" y="64.41" width="0.82" height="6.18" transform="translate(-33.91 68.08) rotate(-53.75)"/><rect class="cls-32" x="44.06" y="73.15" width="0.82" height="6.18" transform="matrix(0.5, -0.86, 0.86, 0.5, -43.79, 76.26)"/><rect class="cls-32" x="39.27" y="82.46" width="0.82" height="6.18" transform="translate(-54.61 86.59) rotate(-65.75)"/><rect class="cls-32" x="35.48" y="92.21" width="0.82" height="6.18" transform="translate(-65.85 99.55) rotate(-71.75)"/><rect class="cls-32" x="32.73" y="102.3" width="0.82" height="6.18" transform="translate(-76.88 115.42) rotate(-77.75)"/><rect class="cls-32" x="228.07" y="144.71" width="0.82" height="6.18" transform="translate(35.58 339.73) rotate(-77.75)"/><rect class="cls-32" x="31.05" y="112.62" width="0.82" height="6.18" transform="translate(-86.99 134.39) rotate(-83.75)"/><rect class="cls-32" x="229.75" y="134.38" width="0.82" height="6.18" transform="translate(68.45 351.3) rotate(-83.75)"/><rect class="cls-32" x="230.35" y="123.94" width="0.82" height="6.18" transform="matrix(0, -1, 1, 0, 102.73, 357.23)"/><rect class="cls-32" x="28.28" y="136.2" width="6.18" height="0.82" transform="translate(-13.53 3.83) rotate(-5.75)"/><rect class="cls-32" x="227.17" y="116.17" width="6.18" height="0.82" transform="translate(-10.53 23.67) rotate(-5.75)"/><rect class="cls-32" x="29.87" y="146.54" width="6.18" height="0.82" transform="translate(-29.23 9.79) rotate(-11.75)"/><rect class="cls-32" x="225.57" y="105.83" width="6.18" height="0.82" transform="translate(-16.84 48.8) rotate(-11.75)"/><rect class="cls-32" x="32.53" y="156.65" width="6.18" height="0.82" transform="translate(-46.19 18.34) rotate(-17.75)"/><rect class="cls-32" x="222.91" y="95.71" width="6.18" height="0.82" transform="translate(-18.55 73.49) rotate(-17.75)"/><rect class="cls-32" x="36.24" y="166.44" width="6.18" height="0.82" transform="translate(-63.87 29.97) rotate(-23.75)"/><rect class="cls-32" x="219.2" y="85.93" width="6.18" height="0.82" transform="translate(-15.95 96.83) rotate(-23.75)"/><rect class="cls-32" x="40.95" y="175.78" width="6.18" height="0.82" transform="translate(-81.62 45.08) rotate(-29.75)"/><rect class="cls-32" x="214.49" y="76.59" width="6.18" height="0.82" transform="translate(-9.53 118.12) rotate(-29.75)"/><rect class="cls-32" x="46.61" y="184.58" width="6.18" height="0.82" transform="translate(-98.71 63.89) rotate(-35.75)"/><rect class="cls-32" x="208.84" y="67.79" width="6.18" height="0.82" transform="translate(0.09 136.67) rotate(-35.75)"/><rect class="cls-32" x="53.16" y="192.74" width="6.18" height="0.82" transform="translate(-114.33 86.51) rotate(-41.75)"/><rect class="cls-32" x="202.29" y="59.63" width="6.18" height="0.82" transform="translate(12.17 152) rotate(-41.75)"/><rect class="cls-32" x="60.52" y="200.17" width="6.18" height="0.82" transform="translate(-127.64 112.82) rotate(-47.75)"/><rect class="cls-32" x="194.92" y="52.2" width="6.18" height="0.82" transform="translate(25.94 163.81) rotate(-47.75)"/><rect class="cls-32" x="186.82" y="45.58" width="6.18" height="0.82" transform="translate(40.53 171.96) rotate(-53.75)"/><rect class="cls-32" x="178.07" y="39.84" width="6.18" height="0.82" transform="translate(55.13 176.47) rotate(-59.75)"/><rect class="cls-32" x="168.77" y="35.05" width="6.18" height="0.82" transform="translate(68.94 177.6) rotate(-65.75)"/><rect class="cls-32" x="159.02" y="31.26" width="6.18" height="0.82" transform="translate(81.26 175.71) rotate(-71.75)"/><rect class="cls-32" x="148.93" y="28.51" width="6.18" height="0.82" transform="translate(91.51 171.35) rotate(-77.75)"/><rect class="cls-32" x="125.05" y="29.33" width="12.36" height="0.82" transform="translate(100.93 160.84) rotate(-89.75)"/><rect class="cls-32" x="100.87" y="28.17" width="0.82" height="12.36" transform="translate(-5.65 32.52) rotate(-17.75)"/><rect class="cls-32" x="73.81" y="41.81" width="0.82" height="12.36" transform="translate(-14.05 52.41) rotate(-35.75)"/><rect class="cls-32" x="52.29" y="63.14" width="0.82" height="12.36" transform="translate(-34.37 70.84) rotate(-53.75)"/><rect class="cls-32" x="38.42" y="90.08" width="0.82" height="12.36" transform="matrix(0.31, -0.95, 0.95, 0.31, -64.75, 102.99)"/><rect class="cls-32" x="33.55" y="119.99" width="0.82" height="12.36" transform="translate(-92.36 159.59) rotate(-89.75)"/><rect class="cls-32" x="228.07" y="144.71" width="0.82" height="6.18" transform="translate(35.57 339.72) rotate(-77.75)"/><rect class="cls-32" x="227.26" y="120.83" width="0.82" height="12.36" transform="matrix(0, -1, 1, 0, 99.66, 354.13)"/><rect class="cls-32" x="229.75" y="134.38" width="0.82" height="6.18" transform="translate(68.47 351.32) rotate(-83.75)"/><rect class="cls-32" x="230.35" y="123.94" width="0.82" height="6.18" transform="translate(102.74 357.24) rotate(-89.75)"/><rect class="cls-32" x="32.39" y="155.71" width="12.36" height="0.82" transform="translate(-45.76 19.19) rotate(-17.75)"/><rect class="cls-32" x="227.17" y="116.17" width="6.18" height="0.82" transform="matrix(0.99, -0.1, 0.1, 0.99, -10.52, 23.66)"/><rect class="cls-32" x="216.88" y="96.65" width="12.36" height="0.82" transform="translate(-18.97 72.63) rotate(-17.75)"/><rect class="cls-32" x="225.57" y="105.83" width="6.18" height="0.82" transform="translate(-16.85 48.8) rotate(-11.75)"/><rect class="cls-32" x="222.91" y="95.71" width="6.18" height="0.82" transform="translate(-18.55 73.49) rotate(-17.75)"/><rect class="cls-32" x="46.03" y="182.77" width="12.36" height="0.82" transform="translate(-97.19 65.03) rotate(-35.75)"/><rect class="cls-32" x="219.2" y="85.93" width="6.18" height="0.82" transform="translate(-15.95 96.85) rotate(-23.75)"/><rect class="cls-32" x="203.24" y="69.59" width="12.36" height="0.82" transform="translate(-1.44 135.54) rotate(-35.75)"/><rect class="cls-32" x="214.49" y="76.59" width="6.18" height="0.82" transform="translate(-9.53 118.13) rotate(-29.75)"/><rect class="cls-32" x="208.84" y="67.79" width="6.18" height="0.82" transform="translate(0.09 136.68) rotate(-35.75)"/><rect class="cls-32" x="67.36" y="204.29" width="12.36" height="0.82" transform="translate(-135.02 142.96) rotate(-53.75)"/><rect class="cls-32" x="202.29" y="59.63" width="6.18" height="0.82" transform="translate(12.18 152.01) rotate(-41.75)"/><rect class="cls-32" x="181.9" y="48.07" width="12.36" height="0.82" transform="translate(37.77 171.5) rotate(-53.75)"/><rect class="cls-32" x="194.92" y="52.2" width="6.18" height="0.82" transform="translate(25.93 163.81) rotate(-47.75)"/><rect class="cls-32" x="186.82" y="45.58" width="6.18" height="0.82" transform="translate(40.52 171.95) rotate(-53.75)"/><rect class="cls-32" x="178.07" y="39.84" width="6.18" height="0.82" transform="translate(55.12 176.47) rotate(-59.75)"/><rect class="cls-32" x="154.96" y="34.2" width="12.36" height="0.82" transform="translate(77.81 176.81) rotate(-71.75)"/><rect class="cls-32" x="168.77" y="35.05" width="6.18" height="0.82" transform="translate(68.94 177.6) rotate(-65.75)"/><rect class="cls-32" x="100.87" y="28.17" width="0.82" height="12.36" transform="translate(-5.65 32.52) rotate(-17.75)"/><rect class="cls-32" x="52.29" y="63.14" width="0.82" height="12.36" transform="translate(-34.37 70.84) rotate(-53.75)"/><rect class="cls-32" x="33.55" y="119.99" width="0.82" height="12.36" transform="translate(-92.36 159.59) rotate(-89.75)"/><rect class="cls-32" x="227.26" y="120.83" width="0.82" height="12.36" transform="matrix(0, -1, 1, 0, 99.66, 354.13)"/><rect class="cls-32" x="46.03" y="182.77" width="12.36" height="0.82" transform="translate(-97.19 65.03) rotate(-35.75)"/><rect class="cls-32" x="203.24" y="69.59" width="12.36" height="0.82" transform="translate(-1.44 135.54) rotate(-35.75)"/><rect class="cls-32" x="154.96" y="34.2" width="12.36" height="0.82" transform="translate(77.81 176.81) rotate(-71.75)"/><path class="cls-32" d="M88.89,185.63a10.87,10.87,0,0,1,1.87.14,4,4,0,0,1,1.25.41,2.07,2.07,0,0,1,.76.69,3,3,0,0,1,.39,1,7,7,0,0,1,.15,1.27q0,.71,0,1.56t0,1.56a7,7,0,0,1-.15,1.27,3,3,0,0,1-.39,1,2.06,2.06,0,0,1-.76.69,4,4,0,0,1-1.25.41,10.87,10.87,0,0,1-1.87.14H86.46a10.87,10.87,0,0,1-1.87-.14,4,4,0,0,1-1.25-.41,2.09,2.09,0,0,1-.76-.69,3,3,0,0,1-.39-1,6.8,6.8,0,0,1-.14-1.27q0-.71,0-1.56t0-1.56a6.8,6.8,0,0,1,.14-1.27,3,3,0,0,1,.39-1,2.09,2.09,0,0,1,.76-.69,4,4,0,0,1,1.25-.41,10.88,10.88,0,0,1,1.87-.14Zm0,9.08q.81,0,1.36,0a3.19,3.19,0,0,0,.91-.19,1.23,1.23,0,0,0,.55-.42,1.82,1.82,0,0,0,.28-.72,6.63,6.63,0,0,0,.1-1.1q0-.65,0-1.56t0-1.56A6.63,6.63,0,0,0,92,188a1.82,1.82,0,0,0-.28-.72,1.23,1.23,0,0,0-.55-.42,3.15,3.15,0,0,0-.91-.19q-.55,0-1.36,0H86.46q-.81,0-1.36,0a3.19,3.19,0,0,0-.91.19,1.23,1.23,0,0,0-.55.42,1.82,1.82,0,0,0-.28.72,6.44,6.44,0,0,0-.1,1.1q0,.65,0,1.56t0,1.56a6.63,6.63,0,0,0,.1,1.1,1.85,1.85,0,0,0,.28.72,1.21,1.21,0,0,0,.55.42,3.2,3.2,0,0,0,.91.19q.55,0,1.36,0Z"/><path class="cls-32" d="M56,144.16h1.61v9.68H56.45v-8.68l-2.82,2.42-.61-.81Z"/><path class="cls-32" d="M53.51,101.6q0-.38,0-.75a5.17,5.17,0,0,1,.09-.72,3.16,3.16,0,0,1,.2-.65,1.73,1.73,0,0,1,.35-.53,1.81,1.81,0,0,1,.56-.38,2.52,2.52,0,0,1,.81-.2L62,97.77a2.89,2.89,0,0,0,.53-.09.73.73,0,0,0,.38-.24,1.24,1.24,0,0,0,.22-.53,4.69,4.69,0,0,0,.08-1,4.07,4.07,0,0,0-.08-.85,1.41,1.41,0,0,0-.25-.57,1.11,1.11,0,0,0-.48-.35,3.08,3.08,0,0,0-.75-.18,9.77,9.77,0,0,0-1.06-.07H59.16q-1.11,0-1.87,0a8.17,8.17,0,0,0-1.25.15,2.16,2.16,0,0,0-.76.29,1.07,1.07,0,0,0-.39.48,2.11,2.11,0,0,0-.15.7q0,.41,0,1H53.51A6,6,0,0,1,53.68,95a2.76,2.76,0,0,1,.49-1,2.19,2.19,0,0,1,.8-.62,4.25,4.25,0,0,1,1.11-.32,10.17,10.17,0,0,1,1.4-.12l1.68,0q.91,0,1.65,0a10.08,10.08,0,0,1,1.32.13,4.14,4.14,0,0,1,1,.3,2,2,0,0,1,.71.53,2.18,2.18,0,0,1,.42.84A4.65,4.65,0,0,1,64.4,96a6.32,6.32,0,0,1-.09,1.1,2.43,2.43,0,0,1-.31.86,1.69,1.69,0,0,1-.62.59,2.48,2.48,0,0,1-1,.28l-6.46.61a2,2,0,0,0-.71.17.76.76,0,0,0-.36.4,2.12,2.12,0,0,0-.13.72q0,.45,0,1.13H64.2v1H53.51Z"/><path class="cls-32" d="M86.81,62.75a2.47,2.47,0,0,0,.53-.05.75.75,0,0,0,.38-.2.94.94,0,0,0,.22-.43,2.86,2.86,0,0,0,.08-.73,4.07,4.07,0,0,0-.08-.85,1.41,1.41,0,0,0-.25-.57,1.11,1.11,0,0,0-.48-.35,3.08,3.08,0,0,0-.75-.18,9.75,9.75,0,0,0-1.06-.07H84q-1.11,0-1.87,0a10.79,10.79,0,0,0-1.25.11,2.55,2.55,0,0,0-.76.22.9.9,0,0,0-.39.36,1.31,1.31,0,0,0-.15.55q0,.32,0,.76H78.34a4.27,4.27,0,0,1,.17-1.29,2.17,2.17,0,0,1,.49-.86,2.14,2.14,0,0,1,.8-.52,4.9,4.9,0,0,1,1.11-.26,13,13,0,0,1,1.4-.09H84q.91,0,1.65,0a10.07,10.07,0,0,1,1.32.13,4.14,4.14,0,0,1,1,.3,2,2,0,0,1,.71.53,2.18,2.18,0,0,1,.42.84,4.65,4.65,0,0,1,.14,1.2,4.23,4.23,0,0,1-.06.77,1.75,1.75,0,0,1-.18.53,1.15,1.15,0,0,1-.31.36,2.18,2.18,0,0,1-.45.26,1.55,1.55,0,0,1,.45.29A1.44,1.44,0,0,1,89,64a2.3,2.3,0,0,1,.18.6,4.73,4.73,0,0,1,.06.8,4.65,4.65,0,0,1-.14,1.2,2.18,2.18,0,0,1-.42.84,2,2,0,0,1-.71.53,4.14,4.14,0,0,1-1,.3,10.09,10.09,0,0,1-1.32.13q-.74,0-1.65,0H82.31a11.45,11.45,0,0,1-1.4-.1A4.75,4.75,0,0,1,79.8,68a2.14,2.14,0,0,1-.8-.55,2.35,2.35,0,0,1-.49-.91,4.81,4.81,0,0,1-.17-1.37h1.21q0,.48,0,.83a1.62,1.62,0,0,0,.15.6.94.94,0,0,0,.38.4,2.37,2.37,0,0,0,.76.24,9.64,9.64,0,0,0,1.25.12q.76,0,1.87,0h1.42a9.77,9.77,0,0,0,1.06-.07,3.08,3.08,0,0,0,.75-.18,1.11,1.11,0,0,0,.48-.35,1.41,1.41,0,0,0,.25-.57,4.07,4.07,0,0,0,.08-.85,3.8,3.8,0,0,0-.08-.85,1.14,1.14,0,0,0-.22-.49.68.68,0,0,0-.38-.22,2.47,2.47,0,0,0-.53-.05H82.37v-1Z"/><path class="cls-32" d="M134.85,43.46v2h-1.21v-2h-8.47V42.25l8.07-6.46h1.61v6.66h1.61v1Zm-1.21-1V36.64l-7.22,5.82Z"/><path class="cls-32" d="M179.93,61.54a9.78,9.78,0,0,1,1.39.09,3.78,3.78,0,0,1,1,.26,1.87,1.87,0,0,1,.65.46,2,2,0,0,1,.38.66,3.56,3.56,0,0,1,.18.87q0,.49,0,1.09a5.86,5.86,0,0,1-.14,1.35,2.61,2.61,0,0,1-.42.95,2,2,0,0,1-.71.61,3.79,3.79,0,0,1-1,.34,8.93,8.93,0,0,1-1.32.15q-.74,0-1.65,0h-1.68a11.45,11.45,0,0,1-1.4-.1,4.75,4.75,0,0,1-1.11-.28,2.14,2.14,0,0,1-.8-.55,2.35,2.35,0,0,1-.49-.91,4.81,4.81,0,0,1-.17-1.37h1.21q0,.48,0,.83a1.54,1.54,0,0,0,.15.6,1,1,0,0,0,.39.4,2.37,2.37,0,0,0,.76.24,9.64,9.64,0,0,0,1.25.12q.76,0,1.87,0h1.42a8.19,8.19,0,0,0,1.06-.08,2.54,2.54,0,0,0,.75-.22,1.21,1.21,0,0,0,.48-.42,1.82,1.82,0,0,0,.26-.68,5.73,5.73,0,0,0,.08-1,6.93,6.93,0,0,0-.09-1.29,1.32,1.32,0,0,0-.36-.73,1.36,1.36,0,0,0-.74-.32,8.07,8.07,0,0,0-1.23-.08H176.7a10.1,10.1,0,0,0-1.35.07,3.21,3.21,0,0,0-.82.2,1.07,1.07,0,0,0-.44.32,1.46,1.46,0,0,0-.21.41h-1.21v-5h10.49v1h-9.28v3l.05-.09a1,1,0,0,1,.16-.19,2,2,0,0,1,.32-.24,2.44,2.44,0,0,1,.51-.23,4.69,4.69,0,0,1,.75-.18,6.4,6.4,0,0,1,1-.07Z"/><path class="cls-32" d="M201.05,93.94q-1,0-1.65,0a5.59,5.59,0,0,0-1.13.15,1.61,1.61,0,0,0-.7.35,1.4,1.4,0,0,0-.38.64,4.18,4.18,0,0,0-.15,1q0,.6,0,1.46a4,4,0,0,1,1.27-.45,10.33,10.33,0,0,1,2-.15h2a10.72,10.72,0,0,1,2.23.19,3.38,3.38,0,0,1,1.35.57,1.92,1.92,0,0,1,.67.95,4.89,4.89,0,0,1,0,2.65,1.92,1.92,0,0,1-.67.95,3.38,3.38,0,0,1-1.35.57,10.72,10.72,0,0,1-2.23.19h-2a10.88,10.88,0,0,1-1.87-.14,4.07,4.07,0,0,1-1.25-.41,2.06,2.06,0,0,1-.76-.69,3,3,0,0,1-.39-1,7,7,0,0,1-.15-1.27q0-.71,0-1.56t0-1.64a6,6,0,0,1,.17-1.29,2.6,2.6,0,0,1,.46-1,2.26,2.26,0,0,1,.9-.66,5.65,5.65,0,0,1,1.48-.38,16.69,16.69,0,0,1,2.21-.12q1.11,0,1.93.08a8.32,8.32,0,0,1,1.4.25,3.54,3.54,0,0,1,1,.4,2,2,0,0,1,.58.55,2,2,0,0,1,.29.7,4.18,4.18,0,0,1,.08.84h-1a3.3,3.3,0,0,0,0-.49,1.07,1.07,0,0,0-.17-.44,1.23,1.23,0,0,0-.4-.37,2.79,2.79,0,0,0-.74-.28,7.6,7.6,0,0,0-1.18-.18Q202.06,93.94,201.05,93.94Zm-.81,4-1.16,0a6.91,6.91,0,0,0-.85.07,2.34,2.34,0,0,0-.59.16.94.94,0,0,0-.37.29,1.12,1.12,0,0,0-.19.44,3,3,0,0,0-.06.63,6,6,0,0,0,.06.88,2.13,2.13,0,0,0,.19.64,1.25,1.25,0,0,0,.37.44,1.8,1.8,0,0,0,.59.28,4.39,4.39,0,0,0,.85.14q.5,0,1.16,0h2q.71,0,1.22,0a5.29,5.29,0,0,0,.87-.13,1.81,1.81,0,0,0,.58-.24,1.07,1.07,0,0,0,.35-.38,1.51,1.51,0,0,0,.16-.53,5.41,5.41,0,0,0,0-.71,5,5,0,0,0,0-.71,1.55,1.55,0,0,0-.17-.53,1.08,1.08,0,0,0-.34-.38,1.77,1.77,0,0,0-.58-.24,5.36,5.36,0,0,0-.87-.13q-.51,0-1.22,0Z"/><path class="cls-31" d="M200.07,153.85h-1.61l7.46-8.68h-9.48v-1h10.89v1.2Z"/><path class="cls-31" d="M173.94,185.63a11.88,11.88,0,0,1,2.23.17,3.7,3.7,0,0,1,1.35.5,1.71,1.71,0,0,1,.67.82,3.22,3.22,0,0,1,.18,1.13,3.49,3.49,0,0,1-.06.68,1.78,1.78,0,0,1-.22.58,1.86,1.86,0,0,1-.43.48,2.5,2.5,0,0,1-.69.38,2.93,2.93,0,0,1,.79.42,2,2,0,0,1,.49.55,2.17,2.17,0,0,1,.25.67,3.93,3.93,0,0,1,.07.77,4.71,4.71,0,0,1-.08.87,2.26,2.26,0,0,1-.26.73,2,2,0,0,1-.51.57,2.83,2.83,0,0,1-.82.42,6,6,0,0,1-1.18.25,13.06,13.06,0,0,1-1.59.09h-2a10.55,10.55,0,0,1-2.23-.19,3.47,3.47,0,0,1-1.35-.56,1.89,1.89,0,0,1-.67-.92,3.93,3.93,0,0,1-.18-1.25,4.11,4.11,0,0,1,.07-.77,2.07,2.07,0,0,1,.25-.67,2,2,0,0,1,.49-.55,2.86,2.86,0,0,1,.8-.42,2.55,2.55,0,0,1-.7-.38,1.78,1.78,0,0,1-.43-.48,1.82,1.82,0,0,1-.22-.58,3.49,3.49,0,0,1-.06-.68,3.22,3.22,0,0,1,.18-1.13,1.71,1.71,0,0,1,.67-.82,3.7,3.7,0,0,1,1.35-.5,11.88,11.88,0,0,1,2.23-.17Zm.2,9.08q.71,0,1.22,0a5.24,5.24,0,0,0,.87-.13,2,2,0,0,0,.58-.24,1,1,0,0,0,.35-.36,1.44,1.44,0,0,0,.17-.5,4.26,4.26,0,0,0,0-.65,4.41,4.41,0,0,0,0-.63,1.36,1.36,0,0,0-.16-.49,1.11,1.11,0,0,0-.35-.36,1.91,1.91,0,0,0-.58-.25,5.25,5.25,0,0,0-.87-.14q-.51,0-1.22,0h-2q-.71,0-1.22,0a5.17,5.17,0,0,0-.87.14,1.91,1.91,0,0,0-.58.25,1.11,1.11,0,0,0-.35.36,1.36,1.36,0,0,0-.16.49,4.42,4.42,0,0,0,0,.63,4.27,4.27,0,0,0,0,.65,1.44,1.44,0,0,0,.17.5,1.06,1.06,0,0,0,.34.36,1.92,1.92,0,0,0,.58.24,5.31,5.31,0,0,0,.87.13q.51,0,1.22,0Zm0-4.84a13.74,13.74,0,0,0,1.59-.07,2.48,2.48,0,0,0,.91-.26.89.89,0,0,0,.42-.49,2.54,2.54,0,0,0,.1-.79,3.38,3.38,0,0,0,0-.56,1,1,0,0,0-.16-.42,1,1,0,0,0-.35-.3,2.22,2.22,0,0,0-.58-.2,6.14,6.14,0,0,0-.87-.11q-.51,0-1.22,0h-1.62q-.71,0-1.22,0a6.05,6.05,0,0,0-.87.11,2.22,2.22,0,0,0-.58.2,1,1,0,0,0-.35.3,1,1,0,0,0-.16.42,3.38,3.38,0,0,0,0,.56,3.29,3.29,0,0,0,0,.57,1.08,1.08,0,0,0,.17.43,1,1,0,0,0,.34.3,2,2,0,0,0,.58.19,6.61,6.61,0,0,0,.87.1q.51,0,1.22,0Z"/><path class="cls-31" d="M114.26,225.5H113v-1.82q0-.44,0-.76a1.68,1.68,0,0,0-.11-.55.81.81,0,0,0-.29-.37,1.5,1.5,0,0,0-.55-.21,6.06,6.06,0,0,0-.91-.1q-.55,0-1.36,0h-5.44v3.83h-1.21v-9.68H110a18.58,18.58,0,0,1,1.87.08,6.41,6.41,0,0,1,1.25.24,2.15,2.15,0,0,1,.76.39,1.39,1.39,0,0,1,.39.55,2.29,2.29,0,0,1,.15.71q0,.39,0,.86a5.86,5.86,0,0,1-.09,1.06,2.22,2.22,0,0,1-.29.78,1.51,1.51,0,0,1-.54.51,2.39,2.39,0,0,1-.84.27,2.12,2.12,0,0,1,.81.26,1.31,1.31,0,0,1,.47.49,2,2,0,0,1,.22.72,7.47,7.47,0,0,1,.05.95Zm-9.89-4.84H110q.81,0,1.36,0a6,6,0,0,0,.91-.1,1.5,1.5,0,0,0,.55-.21.81.81,0,0,0,.29-.37,1.68,1.68,0,0,0,.11-.55q0-.32,0-.76t0-.71a1.39,1.39,0,0,0-.11-.5.72.72,0,0,0-.29-.32,1.65,1.65,0,0,0-.55-.19,6.38,6.38,0,0,0-.91-.09l-1.36,0h-5.64Z"/><path class="cls-31" d="M116.48,215.82h7.28a12.38,12.38,0,0,1,1.52.08,4.38,4.38,0,0,1,1,.24,1.66,1.66,0,0,1,.62.39,1.43,1.43,0,0,1,.32.55,2.67,2.67,0,0,1,.12.71q0,.39,0,.86t0,.91a2.59,2.59,0,0,1-.15.75,1.54,1.54,0,0,1-.39.59,2.07,2.07,0,0,1-.76.43,6.1,6.1,0,0,1-1.25.26,16.59,16.59,0,0,1-1.87.09h-5.24v3.83h-1.21Zm1.21,4.84h5.24q.81,0,1.36,0a6,6,0,0,0,.91-.1,1.5,1.5,0,0,0,.55-.21.81.81,0,0,0,.29-.37,1.69,1.69,0,0,0,.11-.55q0-.32,0-.76t0-.71a1.39,1.39,0,0,0-.11-.5.72.72,0,0,0-.29-.32,1.65,1.65,0,0,0-.55-.19,6.38,6.38,0,0,0-.91-.09l-1.36,0h-5.24Z"/><path class="cls-31" d="M130.2,216.62v8.88H129v-9.68h1.95l5.64,8.47,5.65-8.47h2v9.68H143v-8.74l-5.75,8.74H136Z"/><path class="cls-31" d="M126.12,232.6l-1.7,1.7h-.94l2.17-2.17-2.06-2.07h.94l1.6,1.6,1.6-1.6h.94l-2.06,2.07,2.17,2.17h-.94Z"/><path class="cls-31" d="M131.35,228.65h.94v5.65h-.71v-5.06l-1.65,1.41-.35-.47Z"/><path class="cls-31" d="M137.24,228.53a6.33,6.33,0,0,1,1.09.08,2.35,2.35,0,0,1,.73.24,1.21,1.21,0,0,1,.44.4,1.76,1.76,0,0,1,.23.57,4.06,4.06,0,0,1,.08.74q0,.41,0,.91t0,.91a4.06,4.06,0,0,1-.08.74,1.75,1.75,0,0,1-.23.57,1.21,1.21,0,0,1-.44.4,2.35,2.35,0,0,1-.73.24,6.33,6.33,0,0,1-1.09.08h-1.42a6.32,6.32,0,0,1-1.09-.08,2.35,2.35,0,0,1-.73-.24,1.22,1.22,0,0,1-.44-.4,1.73,1.73,0,0,1-.23-.57,4,4,0,0,1-.08-.74q0-.41,0-.91t0-.91a4,4,0,0,1,.08-.74,1.73,1.73,0,0,1,.23-.57,1.22,1.22,0,0,1,.44-.4,2.35,2.35,0,0,1,.73-.24,6.33,6.33,0,0,1,1.09-.08Zm0,5.3q.47,0,.79,0a1.85,1.85,0,0,0,.53-.11.72.72,0,0,0,.32-.24,1.06,1.06,0,0,0,.17-.42,3.89,3.89,0,0,0,.06-.64q0-.38,0-.91t0-.91a3.89,3.89,0,0,0-.06-.64,1.06,1.06,0,0,0-.17-.42.72.72,0,0,0-.32-.24,1.83,1.83,0,0,0-.53-.11q-.32,0-.79,0h-1.42q-.47,0-.79,0a1.86,1.86,0,0,0-.53.11.72.72,0,0,0-.32.24,1.06,1.06,0,0,0-.17.42,3.7,3.7,0,0,0-.06.64q0,.38,0,.91t0,.91a3.86,3.86,0,0,0,.06.64,1.09,1.09,0,0,0,.16.42.71.71,0,0,0,.32.24,1.86,1.86,0,0,0,.53.11q.32,0,.79,0Z"/><path class="cls-31" d="M144.77,228.53a6.33,6.33,0,0,1,1.09.08,2.35,2.35,0,0,1,.73.24,1.21,1.21,0,0,1,.44.4,1.76,1.76,0,0,1,.23.57,4.06,4.06,0,0,1,.08.74q0,.41,0,.91t0,.91a4.06,4.06,0,0,1-.08.74,1.75,1.75,0,0,1-.23.57,1.21,1.21,0,0,1-.44.4,2.35,2.35,0,0,1-.73.24,6.33,6.33,0,0,1-1.09.08h-1.42a6.32,6.32,0,0,1-1.09-.08,2.35,2.35,0,0,1-.73-.24,1.22,1.22,0,0,1-.44-.4,1.73,1.73,0,0,1-.23-.57,4,4,0,0,1-.08-.74q0-.41,0-.91t0-.91a4,4,0,0,1,.08-.74,1.73,1.73,0,0,1,.23-.57,1.22,1.22,0,0,1,.44-.4,2.35,2.35,0,0,1,.73-.24,6.33,6.33,0,0,1,1.09-.08Zm0,5.3q.47,0,.79,0a1.85,1.85,0,0,0,.53-.11.72.72,0,0,0,.32-.24,1.06,1.06,0,0,0,.17-.42,3.88,3.88,0,0,0,.06-.64q0-.38,0-.91t0-.91a3.88,3.88,0,0,0-.06-.64,1.06,1.06,0,0,0-.17-.42.72.72,0,0,0-.32-.24,1.83,1.83,0,0,0-.53-.11q-.32,0-.79,0h-1.42q-.47,0-.79,0a1.86,1.86,0,0,0-.53.11.72.72,0,0,0-.32.24,1.06,1.06,0,0,0-.17.42,3.69,3.69,0,0,0-.06.64q0,.38,0,.91t0,.91a3.85,3.85,0,0,0,.06.64,1.08,1.08,0,0,0,.16.42.71.71,0,0,0,.32.24,1.86,1.86,0,0,0,.53.11q.32,0,.79,0Z"/><path class="cls-31" d="M152.31,228.53a6.33,6.33,0,0,1,1.09.08,2.35,2.35,0,0,1,.73.24,1.21,1.21,0,0,1,.44.4,1.75,1.75,0,0,1,.23.57,4.06,4.06,0,0,1,.08.74q0,.41,0,.91t0,.91a4.06,4.06,0,0,1-.08.74,1.75,1.75,0,0,1-.23.57,1.21,1.21,0,0,1-.44.4,2.35,2.35,0,0,1-.73.24,6.33,6.33,0,0,1-1.09.08h-1.42a6.32,6.32,0,0,1-1.09-.08,2.35,2.35,0,0,1-.73-.24,1.22,1.22,0,0,1-.44-.4,1.73,1.73,0,0,1-.23-.57,4,4,0,0,1-.08-.74q0-.41,0-.91t0-.91a4,4,0,0,1,.08-.74,1.73,1.73,0,0,1,.23-.57,1.22,1.22,0,0,1,.44-.4,2.35,2.35,0,0,1,.73-.24,6.33,6.33,0,0,1,1.09-.08Zm0,5.3q.47,0,.79,0a1.85,1.85,0,0,0,.53-.11.72.72,0,0,0,.32-.24,1.06,1.06,0,0,0,.17-.42,3.88,3.88,0,0,0,.06-.64q0-.38,0-.91t0-.91a3.88,3.88,0,0,0-.06-.64,1.06,1.06,0,0,0-.17-.42.72.72,0,0,0-.32-.24,1.83,1.83,0,0,0-.53-.11q-.32,0-.79,0h-1.42q-.47,0-.79,0a1.86,1.86,0,0,0-.53.11.72.72,0,0,0-.32.24,1.06,1.06,0,0,0-.17.42,3.69,3.69,0,0,0-.06.64q0,.38,0,.91t0,.91a3.85,3.85,0,0,0,.06.64,1.09,1.09,0,0,0,.16.42.71.71,0,0,0,.32.24,1.86,1.86,0,0,0,.53.11q.32,0,.79,0Z"/></g></g></svg>