<svg xmlns="http://www.w3.org/2000/svg" xmlns:xlink="http://www.w3.org/1999/xlink" viewBox="0 0 258.66 258.66"><defs><style>.cls-1{fill:url(#Silver_2);}.cls-2{fill:url(#Silver_2-2);}.cls-3{fill:#2c2d2f;}.cls-4{fill:#aaeb4b;}.cls-5{fill:#f40c0c;}.cls-6{fill:#f9291b;}.cls-7{opacity:0.52;}.cls-8{fill:#fff;}.cls-9{fill:url(#linear-gradient);}.cls-10{fill:url(#linear-gradient-2);}.cls-11{fill:url(#linear-gradient-3);}.cls-12{fill:url(#linear-gradient-4);}.cls-13{fill:url(#linear-gradient-5);}.cls-14{fill:url(#linear-gradient-6);}.cls-15{fill:url(#linear-gradient-7);}.cls-16{fill:url(#linear-gradient-8);}.cls-17{fill:url(#linear-gradient-9);}.cls-18{fill:url(#linear-gradient-10);}.cls-19{fill:url(#linear-gradient-11);}.cls-20{fill:url(#linear-gradient-12);}.cls-21{fill:url(#linear-gradient-13);}.cls-22{fill:url(#linear-gradient-14);}.cls-23{fill:url(#linear-gradient-15);}.cls-24{fill:url(#linear-gradient-16);}.cls-25{fill:url(#linear-gradient-17);}.cls-26{fill:url(#linear-gradient-18);}.cls-27{fill:url(#linear-gradient-19);}.cls-28{fill:url(#linear-gradient-20);}.cls-29{fill:url(#linear-gradient-21);}.cls-30{fill:url(#linear-gradient-22);}.cls-31{fill:url(#linear-gradient-23);}.cls-32{fill:url(#linear-gradient-24);}.cls-33{fill:url(#linear-gradient-25);}.cls-34{fill:url(#linear-gradient-26);}.cls-35{fill:url(#linear-gradient-27);}.cls-36{fill:url(#linear-gradient-28);}.cls-37{fill:url(#linear-gradient-29);}.cls-38{fill:url(#linear-gradient-30);}.cls-39{fill:url(#linear-gradient-31);}.cls-40{fill:url(#linear-gradient-32);}</style><linearGradient id="Silver_2" y1="129.33" x2="258.66" y2="129.33" gradientUnits="userSpaceOnUse"><stop offset="0" stop-color="#e5e2df"/><stop offset="0" stop-color="#ded9d6"/><stop offset="0.06" stop-color="#cfcac9"/><stop offset="0.18" stop-color="#a8a4a7"/><stop offset="0.26" stop-color="#8b878d"/><stop offset="0.52" stop-color="#f3f4f4"/><stop offset="0.58" stop-color="#e5e5e6"/><stop offset="0.7" stop-color="#c0bec0"/><stop offset="0.86" stop-color="#858085"/><stop offset="0.88" stop-color="#807b80"/><stop offset="1" stop-color="#d1d3d4"/><stop offset="1" stop-color="#a7a9ac"/></linearGradient><linearGradient id="Silver_2-2" x1="10" y1="108.1" x2="252.45" y2="151.23" xlink:href="#Silver_2"/><linearGradient id="linear-gradient" x1="-391.72" y1="738.39" x2="-391.72" y2="708.55" gradientTransform="translate(-262.21 851.69) rotate(-180)" gradientUnits="userSpaceOnUse"><stop offset="0" stop-color="#2c2d2f"/><stop offset="1" stop-color="#1a1617"/></linearGradient><linearGradient id="linear-gradient-2" x1="-422" y1="745.64" x2="-422" y2="714.17" gradientTransform="matrix(-0.94, -0.01, 0.01, -0.94, -270.12, 808.47)" xlink:href="#linear-gradient"/><linearGradient id="linear-gradient-3" x1="-456.66" y1="754.29" x2="-456.66" y2="720.95" gradientTransform="translate(-277.86 765.19) rotate(-179.16) scale(0.87)" gradientUnits="userSpaceOnUse"><stop offset="0" stop-color="#2c2d2f"/><stop offset="1" stop-color="#1a1516"/></linearGradient><linearGradient id="linear-gradient-4" x1="-496.74" y1="764.75" x2="-496.74" y2="729.25" gradientTransform="translate(-285.42 721.85) rotate(-178.67) scale(0.81)" gradientUnits="userSpaceOnUse"><stop offset="0" stop-color="#2c2d2f"/><stop offset="1" stop-color="#191516"/></linearGradient><linearGradient id="linear-gradient-5" x1="-543.59" y1="777.62" x2="-543.59" y2="739.59" gradientTransform="translate(-292.8 678.43) rotate(-178.12) scale(0.74)" xlink:href="#linear-gradient-4"/><linearGradient id="linear-gradient-6" x1="-599.07" y1="793.77" x2="-599.07" y2="752.73" gradientTransform="matrix(-0.68, -0.03, 0.03, -0.68, -299.98, 634.95)" xlink:href="#linear-gradient-4"/><linearGradient id="linear-gradient-7" x1="-665.79" y1="814.5" x2="-665.79" y2="769.82" gradientTransform="translate(-306.96 591.4) rotate(-176.75) scale(0.62)" gradientUnits="userSpaceOnUse"><stop offset="0" stop-color="#2c2d2f"/><stop offset="1" stop-color="#191415"/></linearGradient><linearGradient id="linear-gradient-8" x1="-747.47" y1="841.87" x2="-747.47" y2="792.72" gradientTransform="translate(-313.72 547.78) rotate(-175.87) scale(0.55)" gradientUnits="userSpaceOnUse"><stop offset="0" stop-color="#2c2d2f"/><stop offset="1" stop-color="#181415"/></linearGradient><linearGradient id="linear-gradient-9" x1="-849.66" y1="879.27" x2="-849.66" y2="824.48" gradientTransform="translate(-320.27 504.08) rotate(-174.81) scale(0.49)" xlink:href="#linear-gradient-8"/><linearGradient id="linear-gradient-10" x1="-980.95" y1="932.64" x2="-980.95" y2="870.53" gradientTransform="translate(-326.58 460.31) rotate(-173.47) scale(0.42)" gradientUnits="userSpaceOnUse"><stop offset="0" stop-color="#2c2d2f"/><stop offset="1" stop-color="#181315"/></linearGradient><linearGradient id="linear-gradient-11" x1="-1155.24" y1="1013.22" x2="-1155.24" y2="941.24" gradientTransform="translate(-332.65 416.45) rotate(-171.72) scale(0.36)" gradientUnits="userSpaceOnUse"><stop offset="0" stop-color="#2c2d2f"/><stop offset="1" stop-color="#181314"/></linearGradient><linearGradient id="linear-gradient-12" x1="-1396.17" y1="1144.35" x2="-1396.17" y2="1058.39" gradientTransform="translate(-338.46 372.52) rotate(-169.3) scale(0.3)" xlink:href="#linear-gradient-11"/><linearGradient id="linear-gradient-13" x1="-1745.47" y1="1381.11" x2="-1745.47" y2="1273.94" gradientTransform="translate(-344.01 328.49) rotate(-165.67) scale(0.23)" gradientUnits="userSpaceOnUse"><stop offset="0" stop-color="#2c2d2f"/><stop offset="1" stop-color="#171314"/></linearGradient><linearGradient id="linear-gradient-14" x1="-2272.77" y1="1877.37" x2="-2272.77" y2="1734.78" gradientTransform="translate(-349.28 284.39) rotate(-159.6) scale(0.17)" gradientUnits="userSpaceOnUse"><stop offset="0" stop-color="#2c2d2f"/><stop offset="1" stop-color="#171214"/></linearGradient><linearGradient id="linear-gradient-15" x1="-2990.52" y1="3154.68" x2="-2990.52" y2="2945.3" gradientTransform="matrix(-0.1, -0.06, 0.06, -0.1, -354.25, 240.19)" gradientUnits="userSpaceOnUse"><stop offset="0" stop-color="#2c2d2f"/><stop offset="1" stop-color="#171213"/></linearGradient><linearGradient id="linear-gradient-16" x1="-2294.58" y1="6593.07" x2="-2294.58" y2="6261.58" gradientTransform="translate(-358.91 195.9) rotate(-117.54) scale(0.07)" xlink:href="#linear-gradient-15"/><linearGradient id="linear-gradient-17" x1="3240.15" y1="6175.98" x2="3240.15" y2="5849.77" gradientTransform="translate(-363.25 151.51) rotate(-64.39) scale(0.07)" gradientUnits="userSpaceOnUse"><stop offset="0" stop-color="#2c2d2f"/><stop offset="1" stop-color="#161113"/></linearGradient><linearGradient id="linear-gradient-18" x1="3423.85" y1="2666.25" x2="3423.85" y2="2466.88" gradientTransform="translate(-367.24 107.03) rotate(-34.42) scale(0.12)" xlink:href="#linear-gradient-17"/><linearGradient id="linear-gradient-19" x1="2526.87" y1="1509.22" x2="2526.87" y2="1377.87" gradientTransform="matrix(0.16, -0.07, 0.07, 0.16, -370.88, 62.45)" gradientUnits="userSpaceOnUse"><stop offset="0" stop-color="#2c2d2f"/><stop offset="1" stop-color="#161112"/></linearGradient><linearGradient id="linear-gradient-20" x1="1933.29" y1="1097.19" x2="1933.29" y2="1001.66" gradientTransform="matrix(0.23, -0.07, 0.07, 0.23, -374.13, 17.76)" gradientUnits="userSpaceOnUse"><stop offset="0" stop-color="#2c2d2f"/><stop offset="1" stop-color="#161012"/></linearGradient><linearGradient id="linear-gradient-21" x1="1553.78" y1="915.34" x2="1553.78" y2="841.22" gradientTransform="matrix(0.29, -0.06, 0.06, 0.29, -376.99, -27.03)" gradientUnits="userSpaceOnUse"><stop offset="0" stop-color="#2c2d2f"/><stop offset="1" stop-color="#151012"/></linearGradient><linearGradient id="linear-gradient-22" x1="1296.82" y1="821.78" x2="1296.82" y2="761.74" gradientTransform="translate(-379.42 -71.94) rotate(-9.94) scale(0.36)" xlink:href="#linear-gradient-21"/><linearGradient id="linear-gradient-23" x1="1113.07" y1="768.24" x2="1113.07" y2="718.12" gradientTransform="matrix(0.42, -0.06, 0.06, 0.42, -381.4, -116.95)" gradientUnits="userSpaceOnUse"><stop offset="0" stop-color="#2c2d2f"/><stop offset="1" stop-color="#151011"/></linearGradient><linearGradient id="linear-gradient-24" x1="975.76" y1="735.16" x2="975.76" y2="692.39" gradientTransform="translate(-382.91 -162.08) rotate(-6.66) scale(0.49)" gradientUnits="userSpaceOnUse"><stop offset="0" stop-color="#2c2d2f"/><stop offset="1" stop-color="#150f11"/></linearGradient><linearGradient id="linear-gradient-25" x1="869.5" y1="713.51" x2="869.5" y2="676.41" gradientTransform="translate(-383.92 -207.33) rotate(-5.47) scale(0.55)" xlink:href="#linear-gradient-24"/><linearGradient id="linear-gradient-26" x1="784.96" y1="698.71" x2="784.96" y2="666.09" gradientTransform="translate(-384.39 -252.69) rotate(-4.46) scale(0.62)" gradientUnits="userSpaceOnUse"><stop offset="0" stop-color="#2c2d2f"/><stop offset="1" stop-color="#140f11"/></linearGradient><linearGradient id="linear-gradient-27" x1="716.14" y1="688.22" x2="716.14" y2="659.26" gradientTransform="translate(-384.31 -298.18) rotate(-3.57) scale(0.68)" gradientUnits="userSpaceOnUse"><stop offset="0" stop-color="#2c2d2f"/><stop offset="1" stop-color="#140e10"/></linearGradient><linearGradient id="linear-gradient-28" x1="659.08" y1="680.58" x2="659.08" y2="654.64" gradientTransform="translate(-383.62 -343.79) rotate(-2.76) scale(0.74)" xlink:href="#linear-gradient-27"/><linearGradient id="linear-gradient-29" x1="611" y1="674.89" x2="611" y2="651.48" gradientTransform="matrix(0.81, -0.03, 0.03, 0.81, -382.3, -389.53)" xlink:href="#linear-gradient-27"/><linearGradient id="linear-gradient-30" x1="569.96" y1="670.56" x2="569.96" y2="649.32" gradientTransform="translate(-380.31 -435.4) rotate(-1.32) scale(0.87)" gradientUnits="userSpaceOnUse"><stop offset="0" stop-color="#2c2d2f"/><stop offset="1" stop-color="#130e10"/></linearGradient><linearGradient id="linear-gradient-31" x1="534.53" y1="667.22" x2="534.53" y2="647.84" gradientTransform="matrix(0.94, -0.01, 0.01, 0.94, -377.59, -481.39)" gradientUnits="userSpaceOnUse"><stop offset="0" stop-color="#2c2d2f"/><stop offset="1" stop-color="#130d0f"/></linearGradient><linearGradient id="linear-gradient-32" x1="503.63" y1="664.6" x2="503.63" y2="646.85" gradientTransform="translate(-374.1 -527.52)" xlink:href="#linear-gradient-31"/></defs><title>gauge3-2</title><g id="レイヤー_2" data-name="レイヤー 2"><g id="Layer_1" data-name="Layer 1"><circle class="cls-1" cx="129.33" cy="129.33" r="129.33"/><circle class="cls-2" cx="129.33" cy="129.33" r="123.11"/><circle class="cls-3" cx="129.33" cy="129.33" r="116.91"/><path class="cls-4" d="M91.07,184.13a68.08,68.08,0,1,1,106.85-72.4l4.64-1.29a72.9,72.9,0,1,0-114.42,77.5Z"/><path class="cls-5" d="M203.41,113.8l-4.7,1.07a67.92,67.92,0,0,1-23.61,68l3.07,3.7a72.87,72.87,0,0,0,25.24-72.81Z"/><path class="cls-4" d="M79.38,192.5a10.87,10.87,0,0,1,1.87.14,4,4,0,0,1,1.25.41,2.07,2.07,0,0,1,.76.69,3,3,0,0,1,.39,1,7,7,0,0,1,.15,1.27q0,.71,0,1.56t0,1.56a7,7,0,0,1-.15,1.27,3,3,0,0,1-.39,1,2.06,2.06,0,0,1-.76.69,4,4,0,0,1-1.25.41,10.87,10.87,0,0,1-1.87.14H77a10.87,10.87,0,0,1-1.87-.14,4,4,0,0,1-1.25-.41,2.09,2.09,0,0,1-.76-.69,3,3,0,0,1-.39-1,6.8,6.8,0,0,1-.14-1.27q0-.71,0-1.56t0-1.56a6.8,6.8,0,0,1,.14-1.27,3,3,0,0,1,.39-1,2.09,2.09,0,0,1,.76-.69,4,4,0,0,1,1.25-.41A10.88,10.88,0,0,1,77,192.5Zm0,9.08q.81,0,1.36,0a3.19,3.19,0,0,0,.91-.19,1.23,1.23,0,0,0,.55-.42,1.82,1.82,0,0,0,.28-.72,6.63,6.63,0,0,0,.1-1.1q0-.65,0-1.56t0-1.56a6.63,6.63,0,0,0-.1-1.1,1.82,1.82,0,0,0-.28-.72,1.23,1.23,0,0,0-.55-.42,3.15,3.15,0,0,0-.91-.19q-.55,0-1.36,0H77q-.81,0-1.36,0a3.19,3.19,0,0,0-.91.19,1.23,1.23,0,0,0-.55.42,1.82,1.82,0,0,0-.28.72,6.44,6.44,0,0,0-.1,1.1q0,.65,0,1.56t0,1.56a6.63,6.63,0,0,0,.1,1.1,1.85,1.85,0,0,0,.28.72,1.21,1.21,0,0,0,.55.42,3.2,3.2,0,0,0,.91.19q.55,0,1.36,0Z"/><path class="cls-4" d="M41.89,140.82H43.5v9.68H42.29v-8.68l-2.82,2.42-.61-.81Z"/><path class="cls-4" d="M49.83,92.19q0-.38,0-.75a5.17,5.17,0,0,1,.09-.72,3.16,3.16,0,0,1,.2-.65,1.73,1.73,0,0,1,.35-.53,1.81,1.81,0,0,1,.56-.38,2.52,2.52,0,0,1,.81-.2l6.46-.61a2.89,2.89,0,0,0,.53-.09.73.73,0,0,0,.38-.24,1.24,1.24,0,0,0,.22-.53,4.69,4.69,0,0,0,.08-1,4.07,4.07,0,0,0-.08-.85,1.41,1.41,0,0,0-.25-.57,1.11,1.11,0,0,0-.48-.35A3.08,3.08,0,0,0,58,84.6a9.77,9.77,0,0,0-1.06-.07H55.48q-1.11,0-1.87,0a8.17,8.17,0,0,0-1.25.15,2.16,2.16,0,0,0-.76.29,1.07,1.07,0,0,0-.39.48,2.11,2.11,0,0,0-.15.7q0,.41,0,1H49.83A6,6,0,0,1,50,85.62a2.76,2.76,0,0,1,.49-1,2.19,2.19,0,0,1,.8-.62,4.25,4.25,0,0,1,1.11-.32,10.17,10.17,0,0,1,1.4-.12l1.68,0q.91,0,1.65,0a10.08,10.08,0,0,1,1.32.13,4.14,4.14,0,0,1,1,.3,2,2,0,0,1,.71.53,2.18,2.18,0,0,1,.42.84,4.65,4.65,0,0,1,.14,1.2,6.32,6.32,0,0,1-.09,1.1,2.43,2.43,0,0,1-.31.86,1.69,1.69,0,0,1-.62.59,2.48,2.48,0,0,1-1,.28L52.25,90a2,2,0,0,0-.71.17.76.76,0,0,0-.36.4,2.12,2.12,0,0,0-.13.72q0,.45,0,1.13h9.48v1H49.83Z"/><path class="cls-4" d="M104.9,48.49a2.47,2.47,0,0,0,.53-.05.75.75,0,0,0,.38-.2.94.94,0,0,0,.22-.43,2.86,2.86,0,0,0,.08-.73,4.07,4.07,0,0,0-.08-.85,1.41,1.41,0,0,0-.25-.57,1.11,1.11,0,0,0-.48-.35,3.08,3.08,0,0,0-.75-.18,9.75,9.75,0,0,0-1.06-.07h-1.42q-1.11,0-1.87,0A10.79,10.79,0,0,0,99,45.2a2.55,2.55,0,0,0-.76.22.9.9,0,0,0-.39.36,1.31,1.31,0,0,0-.15.55q0,.32,0,.76H96.43a4.27,4.27,0,0,1,.17-1.29,2.17,2.17,0,0,1,.49-.86,2.14,2.14,0,0,1,.8-.52A4.9,4.9,0,0,1,99,44.16a13,13,0,0,1,1.4-.09h1.68q.91,0,1.65,0a10.07,10.07,0,0,1,1.32.13,4.14,4.14,0,0,1,1,.3,2,2,0,0,1,.71.53,2.18,2.18,0,0,1,.42.84,4.65,4.65,0,0,1,.14,1.2,4.23,4.23,0,0,1-.06.77,1.75,1.75,0,0,1-.18.53,1.15,1.15,0,0,1-.31.36,2.18,2.18,0,0,1-.45.26,1.55,1.55,0,0,1,.45.29,1.44,1.44,0,0,1,.31.43,2.3,2.3,0,0,1,.18.6,4.73,4.73,0,0,1,.06.8,4.65,4.65,0,0,1-.14,1.2,2.18,2.18,0,0,1-.42.84,2,2,0,0,1-.71.53,4.14,4.14,0,0,1-1,.3,10.09,10.09,0,0,1-1.32.13q-.74,0-1.65,0H100.4A11.45,11.45,0,0,1,99,54a4.75,4.75,0,0,1-1.11-.28,2.14,2.14,0,0,1-.8-.55,2.35,2.35,0,0,1-.49-.91,4.81,4.81,0,0,1-.17-1.37h1.21q0,.48,0,.83a1.62,1.62,0,0,0,.15.6.94.94,0,0,0,.38.4A2.37,2.37,0,0,0,99,53a9.64,9.64,0,0,0,1.25.12q.76,0,1.87,0h1.42a9.77,9.77,0,0,0,1.06-.07,3.08,3.08,0,0,0,.75-.18,1.11,1.11,0,0,0,.48-.35A1.41,1.41,0,0,0,106,52a4.07,4.07,0,0,0,.08-.85,3.8,3.8,0,0,0-.08-.85,1.14,1.14,0,0,0-.22-.49.68.68,0,0,0-.38-.22,2.47,2.47,0,0,0-.53-.05h-4.44v-1Z"/><path class="cls-4" d="M161.26,52.12v2h-1.21v-2h-8.47V50.91l8.07-6.46h1.61v6.66h1.61v1Zm-1.21-1V45.3l-7.22,5.82Z"/><path class="cls-4" d="M205.28,86.54a9.78,9.78,0,0,1,1.39.09,3.78,3.78,0,0,1,1,.26,1.87,1.87,0,0,1,.65.46,2,2,0,0,1,.38.66,3.56,3.56,0,0,1,.18.87q0,.49,0,1.09a5.86,5.86,0,0,1-.14,1.35,2.61,2.61,0,0,1-.42.95,2,2,0,0,1-.71.61,3.79,3.79,0,0,1-1,.34,8.93,8.93,0,0,1-1.32.15q-.74,0-1.65,0H202a11.45,11.45,0,0,1-1.4-.1,4.75,4.75,0,0,1-1.11-.28,2.14,2.14,0,0,1-.8-.55,2.35,2.35,0,0,1-.49-.91,4.81,4.81,0,0,1-.17-1.37h1.21q0,.48,0,.83a1.54,1.54,0,0,0,.15.6,1,1,0,0,0,.39.4,2.37,2.37,0,0,0,.76.24,9.64,9.64,0,0,0,1.25.12q.76,0,1.87,0h1.42a8.19,8.19,0,0,0,1.06-.08,2.54,2.54,0,0,0,.75-.22,1.21,1.21,0,0,0,.48-.42,1.82,1.82,0,0,0,.26-.68,5.73,5.73,0,0,0,.08-1,6.93,6.93,0,0,0-.09-1.29,1.32,1.32,0,0,0-.36-.73,1.36,1.36,0,0,0-.74-.32,8.07,8.07,0,0,0-1.23-.08h-3.23a10.1,10.1,0,0,0-1.35.07,3.21,3.21,0,0,0-.82.2,1.07,1.07,0,0,0-.44.32,1.46,1.46,0,0,0-.21.41H198v-5h10.49v1h-9.28v3l.05-.09a1,1,0,0,1,.16-.19,2,2,0,0,1,.32-.24,2.44,2.44,0,0,1,.51-.23,4.69,4.69,0,0,1,.75-.18,6.4,6.4,0,0,1,1-.07Z"/><path class="cls-5" d="M214.16,143.64q-1,0-1.65,0a5.59,5.59,0,0,0-1.13.15,1.61,1.61,0,0,0-.7.35,1.4,1.4,0,0,0-.38.64,4.18,4.18,0,0,0-.15,1q0,.6,0,1.46a4,4,0,0,1,1.27-.45,10.33,10.33,0,0,1,2-.15h2a10.72,10.72,0,0,1,2.23.19,3.38,3.38,0,0,1,1.35.57,1.92,1.92,0,0,1,.67.95,4.89,4.89,0,0,1,0,2.65,1.92,1.92,0,0,1-.67.95,3.38,3.38,0,0,1-1.35.57,10.72,10.72,0,0,1-2.23.19h-2a10.88,10.88,0,0,1-1.87-.14,4.07,4.07,0,0,1-1.25-.41,2.06,2.06,0,0,1-.76-.69,3,3,0,0,1-.39-1,7,7,0,0,1-.15-1.27q0-.71,0-1.56t0-1.64a6,6,0,0,1,.17-1.29,2.6,2.6,0,0,1,.46-1,2.26,2.26,0,0,1,.9-.66,5.65,5.65,0,0,1,1.48-.38,16.69,16.69,0,0,1,2.21-.12q1.11,0,1.93.08a8.32,8.32,0,0,1,1.4.25,3.54,3.54,0,0,1,1,.4,2,2,0,0,1,.58.55,2,2,0,0,1,.29.7,4.18,4.18,0,0,1,.08.84h-1a3.3,3.3,0,0,0,0-.49,1.07,1.07,0,0,0-.17-.44,1.23,1.23,0,0,0-.4-.37,2.79,2.79,0,0,0-.74-.28,7.6,7.6,0,0,0-1.18-.18Q215.17,143.64,214.16,143.64Zm-.81,4-1.16,0a6.91,6.91,0,0,0-.85.07,2.34,2.34,0,0,0-.59.16.94.94,0,0,0-.37.29,1.12,1.12,0,0,0-.19.44,3,3,0,0,0-.06.63,6,6,0,0,0,.06.88,2.13,2.13,0,0,0,.19.64,1.25,1.25,0,0,0,.37.44,1.8,1.8,0,0,0,.59.28,4.39,4.39,0,0,0,.85.14q.5,0,1.16,0h2q.71,0,1.22,0a5.29,5.29,0,0,0,.87-.13,1.81,1.81,0,0,0,.58-.24,1.07,1.07,0,0,0,.35-.38,1.51,1.51,0,0,0,.16-.53,5.41,5.41,0,0,0,0-.71,5,5,0,0,0,0-.71,1.55,1.55,0,0,0-.17-.53,1.08,1.08,0,0,0-.34-.38,1.77,1.77,0,0,0-.58-.24,5.36,5.36,0,0,0-.87-.13q-.51,0-1.22,0Z"/><path class="cls-6" d="M183.48,205.59h-1.61l7.46-8.68h-9.48v-1h10.89v1.2Z"/><path class="cls-6" d="M114.39,175.51h-1.21V173.7q0-.44,0-.76a1.68,1.68,0,0,0-.11-.55.81.81,0,0,0-.29-.37,1.5,1.5,0,0,0-.55-.21,6.06,6.06,0,0,0-.91-.1q-.55,0-1.36,0H104.5v3.83h-1.21v-9.68h6.85a18.58,18.58,0,0,1,1.87.08,6.41,6.41,0,0,1,1.25.24,2.15,2.15,0,0,1,.76.39,1.39,1.39,0,0,1,.39.55,2.29,2.29,0,0,1,.15.71q0,.39,0,.86a5.86,5.86,0,0,1-.09,1.06,2.22,2.22,0,0,1-.29.78,1.51,1.51,0,0,1-.54.51,2.39,2.39,0,0,1-.84.27,2.12,2.12,0,0,1,.81.26,1.31,1.31,0,0,1,.47.49,2,2,0,0,1,.22.72,7.47,7.47,0,0,1,.05.95Zm-9.89-4.84h5.64q.81,0,1.36,0a6,6,0,0,0,.91-.1,1.5,1.5,0,0,0,.55-.21.81.81,0,0,0,.29-.37,1.68,1.68,0,0,0,.11-.55q0-.32,0-.76t0-.71a1.39,1.39,0,0,0-.11-.5.72.72,0,0,0-.29-.32,1.65,1.65,0,0,0-.55-.19,6.38,6.38,0,0,0-.91-.09l-1.36,0H104.5Z"/><path class="cls-6" d="M116.61,165.83h7.28a12.38,12.38,0,0,1,1.52.08,4.38,4.38,0,0,1,1,.24,1.66,1.66,0,0,1,.62.39,1.43,1.43,0,0,1,.32.55,2.67,2.67,0,0,1,.12.71q0,.39,0,.86t0,.91a2.59,2.59,0,0,1-.15.75,1.54,1.54,0,0,1-.39.59,2.07,2.07,0,0,1-.76.43,6.1,6.1,0,0,1-1.25.26,16.59,16.59,0,0,1-1.87.09h-5.24v3.83h-1.21Zm1.21,4.84h5.24q.81,0,1.36,0a6,6,0,0,0,.91-.1,1.5,1.5,0,0,0,.55-.21.81.81,0,0,0,.29-.37,1.69,1.69,0,0,0,.11-.55q0-.32,0-.76t0-.71a1.39,1.39,0,0,0-.11-.5.72.72,0,0,0-.29-.32,1.65,1.65,0,0,0-.55-.19,6.38,6.38,0,0,0-.91-.09l-1.36,0h-5.24Z"/><path class="cls-6" d="M130.33,166.64v8.88h-1.21v-9.68h1.95l5.64,8.47,5.65-8.47h2v9.68h-1.21v-8.74l-5.75,8.74h-1.22Z"/><path class="cls-6" d="M126.25,182.61l-1.7,1.7h-.94l2.17-2.17-2.06-2.07h.94l1.6,1.6,1.6-1.6h.94l-2.06,2.07,2.17,2.17H128Z"/><path class="cls-6" d="M131.48,178.66h.94v5.65h-.71v-5.06l-1.65,1.41-.35-.47Z"/><path class="cls-6" d="M137.37,178.54a6.33,6.33,0,0,1,1.09.08,2.35,2.35,0,0,1,.73.24,1.21,1.21,0,0,1,.44.4,1.76,1.76,0,0,1,.23.57,4.06,4.06,0,0,1,.08.74q0,.41,0,.91t0,.91a4.06,4.06,0,0,1-.08.74,1.75,1.75,0,0,1-.23.57,1.21,1.21,0,0,1-.44.4,2.35,2.35,0,0,1-.73.24,6.33,6.33,0,0,1-1.09.08H136a6.32,6.32,0,0,1-1.09-.08,2.35,2.35,0,0,1-.73-.24,1.22,1.22,0,0,1-.44-.4,1.73,1.73,0,0,1-.23-.57,4,4,0,0,1-.08-.74q0-.41,0-.91t0-.91a4,4,0,0,1,.08-.74,1.73,1.73,0,0,1,.23-.57,1.22,1.22,0,0,1,.44-.4,2.35,2.35,0,0,1,.73-.24,6.33,6.33,0,0,1,1.09-.08Zm0,5.3q.47,0,.79,0a1.85,1.85,0,0,0,.53-.11.72.72,0,0,0,.32-.24,1.06,1.06,0,0,0,.17-.42,3.89,3.89,0,0,0,.06-.64q0-.38,0-.91t0-.91a3.89,3.89,0,0,0-.06-.64,1.06,1.06,0,0,0-.17-.42.72.72,0,0,0-.32-.24,1.83,1.83,0,0,0-.53-.11q-.32,0-.79,0H136q-.47,0-.79,0a1.86,1.86,0,0,0-.53.11.72.72,0,0,0-.32.24,1.06,1.06,0,0,0-.17.42,3.7,3.7,0,0,0-.06.64q0,.38,0,.91t0,.91a3.86,3.86,0,0,0,.06.64,1.09,1.09,0,0,0,.16.42.71.71,0,0,0,.32.24,1.86,1.86,0,0,0,.53.11q.32,0,.79,0Z"/><path class="cls-6" d="M144.9,178.54a6.33,6.33,0,0,1,1.09.08,2.35,2.35,0,0,1,.73.24,1.21,1.21,0,0,1,.44.4,1.76,1.76,0,0,1,.23.57,4.06,4.06,0,0,1,.08.74q0,.41,0,.91t0,.91a4.06,4.06,0,0,1-.08.74,1.75,1.75,0,0,1-.23.57,1.21,1.21,0,0,1-.44.4,2.35,2.35,0,0,1-.73.24,6.33,6.33,0,0,1-1.09.08h-1.42a6.32,6.32,0,0,1-1.09-.08,2.35,2.35,0,0,1-.73-.24,1.22,1.22,0,0,1-.44-.4,1.73,1.73,0,0,1-.23-.57,4,4,0,0,1-.08-.74q0-.41,0-.91t0-.91a4,4,0,0,1,.08-.74,1.73,1.73,0,0,1,.23-.57,1.22,1.22,0,0,1,.44-.4,2.35,2.35,0,0,1,.73-.24,6.33,6.33,0,0,1,1.09-.08Zm0,5.3q.47,0,.79,0a1.85,1.85,0,0,0,.53-.11.72.72,0,0,0,.32-.24,1.06,1.06,0,0,0,.17-.42,3.88,3.88,0,0,0,.06-.64q0-.38,0-.91t0-.91a3.88,3.88,0,0,0-.06-.64,1.06,1.06,0,0,0-.17-.42.72.72,0,0,0-.32-.24,1.83,1.83,0,0,0-.53-.11q-.32,0-.79,0h-1.42q-.47,0-.79,0a1.86,1.86,0,0,0-.53.11.72.72,0,0,0-.32.24,1.06,1.06,0,0,0-.17.42,3.69,3.69,0,0,0-.06.64q0,.38,0,.91t0,.91a3.85,3.85,0,0,0,.06.64,1.08,1.08,0,0,0,.16.42.71.71,0,0,0,.32.24,1.86,1.86,0,0,0,.53.11q.32,0,.79,0Z"/><path class="cls-6" d="M152.43,178.54a6.33,6.33,0,0,1,1.09.08,2.35,2.35,0,0,1,.73.24,1.21,1.21,0,0,1,.44.4,1.75,1.75,0,0,1,.23.57,4.06,4.06,0,0,1,.08.74q0,.41,0,.91t0,.91a4.06,4.06,0,0,1-.08.74,1.75,1.75,0,0,1-.23.57,1.21,1.21,0,0,1-.44.4,2.35,2.35,0,0,1-.73.24,6.33,6.33,0,0,1-1.09.08H151a6.32,6.32,0,0,1-1.09-.08,2.35,2.35,0,0,1-.73-.24,1.22,1.22,0,0,1-.44-.4,1.73,1.73,0,0,1-.23-.57,4,4,0,0,1-.08-.74q0-.41,0-.91t0-.91a4,4,0,0,1,.08-.74,1.73,1.73,0,0,1,.23-.57,1.22,1.22,0,0,1,.44-.4,2.35,2.35,0,0,1,.73-.24,6.33,6.33,0,0,1,1.09-.08Zm0,5.3q.47,0,.79,0a1.85,1.85,0,0,0,.53-.11.72.72,0,0,0,.32-.24,1.06,1.06,0,0,0,.17-.42,3.88,3.88,0,0,0,.06-.64q0-.38,0-.91t0-.91a3.88,3.88,0,0,0-.06-.64,1.06,1.06,0,0,0-.17-.42.72.72,0,0,0-.32-.24,1.83,1.83,0,0,0-.53-.11q-.32,0-.79,0H151q-.47,0-.79,0a1.86,1.86,0,0,0-.53.11.72.72,0,0,0-.32.24,1.06,1.06,0,0,0-.17.42,3.69,3.69,0,0,0-.06.64q0,.38,0,.91t0,.91a3.85,3.85,0,0,0,.06.64,1.09,1.09,0,0,0,.16.42.71.71,0,0,0,.32.24,1.86,1.86,0,0,0,.53.11q.32,0,.79,0Z"/><rect class="cls-4" x="93.84" y="24.98" width="1.61" height="19.06" transform="translate(-6.09 34.46) rotate(-20)"/><rect class="cls-5" x="194.34" y="199.03" width="1.61" height="19.06" transform="translate(-88.39 174.1) rotate(-39.97)"/><rect class="cls-4" x="40.37" y="69.84" width="1.61" height="19.06" transform="matrix(0.5, -0.87, 0.87, 0.5, -48.15, 75.33)"/><rect class="cls-5" x="229.24" y="138.58" width="1.61" height="19.06" transform="translate(44.23 348.93) rotate(-80)"/><rect class="cls-4" x="19.53" y="147.31" width="19.06" height="1.61" transform="translate(-25.28 7.3) rotate(-10)"/><rect class="cls-4" x="208.39" y="78.56" width="19.06" height="1.61" transform="translate(-10.5 119.53) rotate(-29.98)"/><rect class="cls-4" x="54.43" y="207.76" width="19.06" height="1.61" transform="translate(-136.9 123.45) rotate(-49.99)"/><rect class="cls-4" x="154.92" y="33.7" width="19.06" height="1.61" transform="translate(75.76 177.22) rotate(-69.99)"/><g class="cls-7"><path class="cls-8" d="M130.21,124.36c1.22,2.05,1.06,4.4-.37,5.21s-3.53-.24-4.66-2.35L90,62.25c-1.14-2.1-1.56-4.11-.94-4.46s2.13,1,3.35,3.09Z"/></g><path class="cls-5" d="M123.13,115.81c1,1.72,1.43,3.36,1,3.63s-1.66-.93-2.63-2.67l-30-53.82c-1-1.74-1.6-3.26-1.39-3.38s1.19,1.2,2.19,2.92Z"/><circle class="cls-9" cx="129.54" cy="128.18" r="14.92" transform="translate(-49.39 162.76) rotate(-55.64)"/><circle class="cls-10" cx="129.54" cy="128.18" r="14.73" transform="translate(-49.3 163.21) rotate(-55.78)"/><circle class="cls-11" cx="129.54" cy="128.18" r="14.53" transform="translate(-49.21 163.67) rotate(-55.93)"/><circle class="cls-12" cx="129.54" cy="128.18" r="14.33" transform="translate(-49.12 164.14) rotate(-56.08)"/><circle class="cls-13" cx="129.54" cy="128.18" r="14.13" transform="translate(-49.02 164.63) rotate(-56.23)"/><circle class="cls-14" cx="129.54" cy="128.18" r="13.94" transform="translate(-48.92 165.12) rotate(-56.39)"/><circle class="cls-15" cx="129.54" cy="128.18" r="13.74" transform="translate(-48.81 165.64) rotate(-56.56)"/><circle class="cls-16" cx="129.54" cy="128.18" r="13.54" transform="matrix(0.55, -0.84, 0.84, 0.55, -48.7, 166.17)"/><circle class="cls-17" cx="129.54" cy="128.18" r="13.35" transform="translate(-48.58 166.71) rotate(-56.9)"/><circle class="cls-18" cx="129.54" cy="128.18" r="13.15" transform="translate(-48.46 167.27) rotate(-57.08)"/><circle class="cls-19" cx="129.54" cy="128.18" r="12.95" transform="matrix(0.54, -0.84, 0.84, 0.54, -48.33, 167.84)"/><circle class="cls-20" cx="129.54" cy="128.18" r="12.76" transform="matrix(0.54, -0.84, 0.84, 0.54, -48.2, 168.44)"/><circle class="cls-21" cx="129.54" cy="128.18" r="12.56" transform="translate(-48.06 169.05) rotate(-57.66)"/><circle class="cls-22" cx="129.54" cy="128.18" r="12.37" transform="translate(-47.91 169.68) rotate(-57.86)"/><circle class="cls-23" cx="129.54" cy="128.18" r="12.17" transform="translate(-47.76 170.33) rotate(-58.07)"/><circle class="cls-24" cx="129.54" cy="128.18" r="11.97" transform="translate(-47.6 171) rotate(-58.29)"/><circle class="cls-25" cx="129.54" cy="128.18" r="11.78" transform="translate(-47.43 171.69) rotate(-58.51)"/><circle class="cls-26" cx="129.54" cy="128.18" r="11.58" transform="translate(-47.25 172.41) rotate(-58.74)"/><circle class="cls-27" cx="129.54" cy="128.18" r="11.39" transform="translate(-47.07 173.14) rotate(-58.98)"/><circle class="cls-28" cx="129.54" cy="128.18" r="11.19" transform="translate(-46.87 173.91) rotate(-59.23)"/><circle class="cls-29" cx="129.54" cy="128.18" r="11" transform="matrix(0.51, -0.86, 0.86, 0.51, -46.66, 174.7)"/><circle class="cls-30" cx="129.54" cy="128.18" r="10.8" transform="translate(-46.45 175.51) rotate(-59.75)"/><circle class="cls-31" cx="129.54" cy="128.18" r="10.61" transform="translate(-46.22 176.36) rotate(-60.03)"/><circle class="cls-32" cx="129.54" cy="128.18" r="10.41" transform="translate(-45.97 177.24) rotate(-60.31)"/><circle class="cls-33" cx="129.54" cy="128.18" r="10.22" transform="translate(-45.72 178.15) rotate(-60.61)"/><circle class="cls-34" cx="129.54" cy="128.18" r="10.03" transform="translate(-45.45 179.09) rotate(-60.92)"/><circle class="cls-35" cx="129.54" cy="128.18" r="9.83" transform="translate(-45.16 180.06) rotate(-61.24)"/><circle class="cls-36" cx="129.54" cy="128.18" r="9.64" transform="translate(-44.85 181.08) rotate(-61.57)"/><circle class="cls-37" cx="129.54" cy="128.18" r="9.45" transform="translate(-44.53 182.13) rotate(-61.92)"/><circle class="cls-38" cx="129.54" cy="128.18" r="9.26" transform="translate(-44.19 183.23) rotate(-62.28)"/><circle class="cls-39" cx="129.54" cy="128.18" r="9.07" transform="translate(-43.82 184.37) rotate(-62.66)"/><circle class="cls-40" cx="129.54" cy="128.18" r="8.87" transform="translate(-43.43 185.56) rotate(-63.05)"/></g></g></svg>