<svg xmlns="http://www.w3.org/2000/svg" xmlns:xlink="http://www.w3.org/1999/xlink" viewBox="0 0 328.17 242.05"><defs><style>.cls-1,.cls-4,.cls-7{fill:#999;}.cls-1,.cls-10,.cls-11,.cls-123,.cls-124,.cls-126,.cls-13,.cls-16,.cls-18,.cls-19,.cls-2,.cls-23,.cls-24,.cls-25,.cls-26,.cls-27,.cls-28,.cls-30,.cls-31,.cls-32,.cls-33,.cls-34,.cls-35,.cls-36,.cls-37,.cls-38,.cls-39,.cls-40,.cls-45,.cls-46,.cls-47,.cls-48,.cls-49,.cls-6,.cls-69,.cls-7,.cls-70,.cls-71,.cls-72,.cls-76,.cls-8,.cls-9{stroke:#4d4d4d;}.cls-1,.cls-10,.cls-11,.cls-13,.cls-16,.cls-18,.cls-19,.cls-2,.cls-23,.cls-24,.cls-25,.cls-26,.cls-27,.cls-28,.cls-30,.cls-31,.cls-32,.cls-33,.cls-34,.cls-35,.cls-36,.cls-37,.cls-38,.cls-39,.cls-40,.cls-45,.cls-46,.cls-47,.cls-48,.cls-49,.cls-6,.cls-69,.cls-70,.cls-71{stroke-linejoin:round;stroke-width:7px;}.cls-123,.cls-2,.cls-3,.cls-76{fill:none;}.cls-49,.cls-5,.cls-72,.cls-8{fill:#b3b3b3;}.cls-6,.cls-67,.cls-9{fill:url(#名称未設定グラデーション_3);}.cls-123,.cls-124,.cls-126,.cls-7,.cls-72,.cls-76,.cls-8,.cls-9{stroke-miterlimit:10;}.cls-7,.cls-76,.cls-8{stroke-width:3px;}.cls-123,.cls-124,.cls-9{stroke-width:2px;}.cls-10,.cls-126,.cls-65{fill:#666;}.cls-11,.cls-73{fill:url(#名称未設定グラデーション_4);}.cls-12{clip-path:url(#clip-path);}.cls-13,.cls-63{fill:#e6e6e6;}.cls-14{isolation:isolate;}.cls-15{clip-path:url(#clip-path-2);}.cls-16,.cls-78{fill:#828282;}.cls-17{clip-path:url(#clip-path-3);}.cls-18,.cls-80{fill:#969696;}.cls-19,.cls-81{fill:#929292;}.cls-20{clip-path:url(#clip-path-4);}.cls-21{clip-path:url(#clip-path-5);}.cls-22{clip-path:url(#clip-path-6);}.cls-23,.cls-85{fill:#b9b9b9;}.cls-24,.cls-86{fill:#bcbcbc;}.cls-25,.cls-87{fill:silver;}.cls-26,.cls-88{fill:#c4c4c4;}.cls-27,.cls-89{fill:#c8c8c8;}.cls-124,.cls-28,.cls-90{fill:#ccc;}.cls-29{clip-path:url(#clip-path-7);}.cls-30,.cls-92{fill:#868686;}.cls-31,.cls-93{fill:#8a8a8a;}.cls-32,.cls-94{fill:#8e8e8e;}.cls-33,.cls-95{fill:#9a9a9a;}.cls-34,.cls-96{fill:#9d9d9d;}.cls-35,.cls-97{fill:#a1a1a1;}.cls-36,.cls-98{fill:#a5a5a5;}.cls-37,.cls-99{fill:#a9a9a9;}.cls-100,.cls-38{fill:#adadad;}.cls-101,.cls-39{fill:#b1b1b1;}.cls-102,.cls-40{fill:#b5b5b5;}.cls-41{clip-path:url(#clip-path-8);}.cls-42{clip-path:url(#clip-path-9);}.cls-43{clip-path:url(#clip-path-10);}.cls-44{clip-path:url(#clip-path-11);}.cls-107,.cls-45{fill:#959595;}.cls-108,.cls-46{fill:#aeaeae;}.cls-109,.cls-47{fill:#858585;}.cls-110,.cls-48{fill:#7e7e7e;}.cls-50{clip-path:url(#clip-path-12);}.cls-51{clip-path:url(#clip-path-13);}.cls-52{clip-path:url(#clip-path-14);}.cls-53{clip-path:url(#clip-path-15);}.cls-54{clip-path:url(#clip-path-16);}.cls-55,.cls-70{fill:#4d4d4d;}.cls-56{clip-path:url(#clip-path-17);}.cls-57{clip-path:url(#clip-path-18);}.cls-58{clip-path:url(#clip-path-19);}.cls-59{clip-path:url(#clip-path-20);}.cls-60{clip-path:url(#clip-path-21);}.cls-61{clip-path:url(#clip-path-22);}.cls-62{clip-path:url(#clip-path-23);}.cls-64{clip-path:url(#clip-path-25);}.cls-66{clip-path:url(#clip-path-26);}.cls-68{clip-path:url(#clip-path-28);}.cls-122,.cls-69{fill:#fff;}.cls-125,.cls-71{fill:gray;}.cls-72{stroke-width:8px;}.cls-74{fill:url(#名称未設定グラデーション_3-4);}.cls-75{clip-path:url(#clip-path-29);}.cls-77{clip-path:url(#clip-path-30);}.cls-79{clip-path:url(#clip-path-31);}.cls-82{clip-path:url(#clip-path-32);}.cls-83{clip-path:url(#clip-path-33);}.cls-84{clip-path:url(#clip-path-34);}.cls-91{clip-path:url(#clip-path-35);}.cls-103{clip-path:url(#clip-path-36);}.cls-104{clip-path:url(#clip-path-37);}.cls-105{clip-path:url(#clip-path-38);}.cls-106{clip-path:url(#clip-path-39);}.cls-111{clip-path:url(#clip-path-40);}.cls-112{clip-path:url(#clip-path-41);}.cls-113{clip-path:url(#clip-path-42);}.cls-114{clip-path:url(#clip-path-43);}.cls-115{clip-path:url(#clip-path-44);}.cls-116{clip-path:url(#clip-path-45);}.cls-117{clip-path:url(#clip-path-46);}.cls-118{clip-path:url(#clip-path-47);}.cls-119{clip-path:url(#clip-path-48);}.cls-120{clip-path:url(#clip-path-53);}.cls-121{clip-path:url(#clip-path-54);}</style><linearGradient id="名称未設定グラデーション_3" x1="21.63" y1="88.59" x2="124.97" y2="201.25" gradientUnits="userSpaceOnUse"><stop offset="0" stop-color="#fff"/><stop offset="0.82" stop-color="#999"/></linearGradient><linearGradient id="名称未設定グラデーション_4" x1="250.67" y1="150.04" x2="320.17" y2="150.04" gradientUnits="userSpaceOnUse"><stop offset="0" stop-color="#fff"/><stop offset="1" stop-color="#999"/></linearGradient><clipPath id="clip-path"><path id="_クリッピングパス_" data-name="&lt;クリッピングパス&gt;" class="cls-1" d="M269.05,114.36a21.62,21.62,0,0,0-2.56.16l-25.12-1.78c6.93,14.11,4.29,33.49,4.29,48.63A64.58,64.58,0,0,1,241,184.93l30.3-1.57v-.13c13.93-1.46,24.88-16.28,24.88-34.37C296.19,129.81,284,114.36,269.05,114.36Z"/></clipPath><clipPath id="clip-path-2"><path class="cls-2" d="M179.81,33.86l-.16,17.79a1.49,1.49,0,0,0-.1-.55l.16-17.79A1.49,1.49,0,0,1,179.81,33.86Z"/></clipPath><clipPath id="clip-path-3"><path class="cls-2" d="M223.22,51.24l.16-17.79a1.4,1.4,0,0,1,0-.17l-.16,17.79A1.41,1.41,0,0,0,223.22,51.24Z"/></clipPath><clipPath id="clip-path-4"><path class="cls-2" d="M178.92,53.05l-4.06,3.83a1.79,1.79,0,0,0,.49-2.11l4.21-3.66A1.73,1.73,0,0,1,178.92,53.05Z"/></clipPath><clipPath id="clip-path-5"><path class="cls-2" d="M227.94,56.55l-4-3.88a1.9,1.9,0,0,1-.71-1.6l4,3.65A2.07,2.07,0,0,0,227.94,56.55Z"/></clipPath><clipPath id="clip-path-6"><path class="cls-2" d="M143.86,32.17l3.89-3.75a8.15,8.15,0,0,1,3.32-1.59c2.95-.84,7-1.23,12.82-1.12l-1.71,2.95a51,51,0,0,0-14.07,1.47A10.43,10.43,0,0,0,143.86,32.17Z"/></clipPath><clipPath id="clip-path-7"><path class="cls-2" d="M255.54,28.59l2.1,2.1,1.72,1.72A11.88,11.88,0,0,0,254.22,30a55.09,55.09,0,0,0-14.43-1.45l-1.36-2.95c5.81-.12,9.95.26,13.1,1.1A9.28,9.28,0,0,1,255.54,28.59Z"/></clipPath><clipPath id="clip-path-8"><path class="cls-2" d="M143,51.32l.16-17.79c0-1.23,1.65-2.45,4.94-3.39a51,51,0,0,1,14.07-1.47L162,46.45a51,51,0,0,0-14.07,1.47C144.65,48.87,143,50.09,143,51.32Z"/></clipPath><clipPath id="clip-path-9"><path class="cls-2" d="M147.49,56.51l-3.82-3.82c-1.65-1.65-.26-3.47,4.27-4.76A51,51,0,0,1,162,46.45l1.64,5.21c-5.83-.11-9.87.27-12.82,1.12C147.29,53.8,146.2,55.22,147.49,56.51Z"/></clipPath><clipPath id="clip-path-10"><path class="cls-2" d="M260,33.79l-.16,17.79c0-1.35-1.94-2.72-5.81-3.75a55.09,55.09,0,0,0-14.43-1.45l.16-17.79A55.09,55.09,0,0,1,254.22,30C258.09,31.07,260,32.43,260,33.79Z"/></clipPath><clipPath id="clip-path-11"><path class="cls-2" d="M259.18,52.94l-3.89,3.75c1.41-1.36.05-2.92-4-4-3.15-.84-7.29-1.21-13.1-1.1l1.44-5.22a55.09,55.09,0,0,1,14.43,1.45C259.25,49.21,261,51.19,259.18,52.94Z"/></clipPath><clipPath id="clip-path-12"><path class="cls-2" d="M141.15,10.07l.39-.37.19-.19.39-.37.19-.19.39-.37.19-.19.39-.37L145,6.32a8.15,8.15,0,0,1,3.32-1.59L145.4,8A10.43,10.43,0,0,0,141.15,10.07Z"/></clipPath><clipPath id="clip-path-13"><path class="cls-2" d="M144.79,34.42,141,30.6c-1.65-1.65-.26-3.47,4.27-4.76l2.88,4.86C144.59,31.7,143.5,33.12,144.79,34.42Z"/></clipPath><clipPath id="clip-path-14"><path class="cls-2" d="M140.3,29.22l.16-17.79c0-1.23,1.65-2.45,4.94-3.39l-.16,17.79C141.95,26.78,140.31,28,140.3,29.22Z"/></clipPath><clipPath id="clip-path-15"><path class="cls-2" d="M172.4,6.46l4,3.88A12.07,12.07,0,0,0,171.31,8c-7.4-2-19-2-25.91,0l3-3.31c5.4-1.55,14.48-1.55,20.26,0A8.73,8.73,0,0,1,172.4,6.46Z"/></clipPath><clipPath id="clip-path-16"><path class="cls-2" d="M252.85,6.5l.38.38.19.19.38.38.19.19.38.38.19.19.38.38.38.38.19.19.38.38.38.38.19.19.19.19a11.88,11.88,0,0,0-5.14-2.37c-7.4-2-19-2-25.91,0a10.56,10.56,0,0,0-4.2,2l4.06-3.82a7.66,7.66,0,0,1,3.09-1.47c5.4-1.55,14.48-1.55,20.26,0A9.28,9.28,0,0,1,252.85,6.5Z"/></clipPath><clipPath id="clip-path-17"><path class="cls-2" d="M177.12,11.77,177,29.56c0-1.35-1.92-2.72-5.8-3.75-7.4-2-19-2-25.91,0L145.4,8c6.91-2,18.52-2,25.91,0C175.19,9,177.13,10.41,177.12,11.77Z"/></clipPath><clipPath id="clip-path-18"><path class="cls-2" d="M176.94,29.73l-4.1,4.51c.21-1.61-1.3-2.73-4.46-3.57-5.78-1.54-14.86-1.53-20.26,0l-2.88-4.86c6.91-2,18.52-2,25.91,0C175.2,26.89,177.13,28.32,176.94,29.73Z"/></clipPath><clipPath id="clip-path-19"><path class="cls-2" d="M257.34,11.69l-.16,17.79c0-1.35-1.94-2.72-5.81-3.75-7.4-2-19-2-25.91,0-3.3.94-4.92,2.16-4.93,3.39l.16-17.79c0-1.23,1.63-2.45,4.93-3.39,6.91-2,18.52-2,25.91,0C255.4,9,257.35,10.34,257.34,11.69Z"/></clipPath><clipPath id="clip-path-20"><path class="cls-2" d="M256.49,30.85,252.6,34.6c1.41-1.36.05-2.92-4-4-5.78-1.54-14.86-1.53-20.26,0-3,.84-4.19,2-3.59,3.57l-4.13-4.5c-.53-1.41,1.05-2.85,4.83-3.93,6.91-2,18.52-2,25.91,0C256.55,27.12,258.29,29.1,256.49,30.85Z"/></clipPath><clipPath id="clip-path-21"><path id="_クリッピングパス_2" data-name="&lt;クリッピングパス&gt;" class="cls-1" d="M212.17,75.76V47.29H212c-1-1.78-6.51-3.14-13.15-3.14s-12.13,1.36-13.15,3.14h-.18V75.76Z"/></clipPath><clipPath id="clip-path-22"><path id="_クリッピングパス_3" data-name="&lt;クリッピングパス&gt;" class="cls-3" d="M212.17,75.76V47.29H212c-1-1.78-6.51-3.14-13.15-3.14s-12.13,1.36-13.15,3.14h-.18V75.76Z"/></clipPath><clipPath id="clip-path-23"><path id="_クリッピングパス_4" data-name="&lt;クリッピングパス&gt;" class="cls-4" d="M212.17,75.76V47.29H212c-1-1.78-6.51-3.14-13.15-3.14s-12.13,1.36-13.15,3.14h-.18V75.76Z"/></clipPath><clipPath id="clip-path-25"><circle id="_楕円形_" data-name="&lt;楕円形&gt;" class="cls-3" cx="200.17" cy="142.26" r="74"/></clipPath><clipPath id="clip-path-26"><circle id="_楕円形_2" data-name="&lt;楕円形&gt;" class="cls-5" cx="200.17" cy="142.26" r="74"/></clipPath><clipPath id="clip-path-28"><path id="_クリッピングパス_6" data-name="&lt;クリッピングパス&gt;" class="cls-6" d="M183.36,134.26c0-19.05-13-34.5-29.1-34.5a24.87,24.87,0,0,0-2.75.16L49.09,93.13C27.7,90,8.67,107.1,8.67,131.59v88.67l.87-.13c3.71,6.11,19.3,9.63,37.55,8,16.31-1.42,32.91-3.63,37.58-8.08,1.21-1.15-1.72-10.62-1.72-10.62V172.32l73.72-3.57v-.13C171.61,167.17,183.36,152.34,183.36,134.26Z"/></clipPath><linearGradient id="名称未設定グラデーション_3-4" x1="250.17" y1="150.04" x2="320.67" y2="150.04" xlink:href="#名称未設定グラデーション_3"/><clipPath id="clip-path-29"><path id="_クリッピングパス_7" data-name="&lt;クリッピングパス&gt;" class="cls-7" d="M269.05,114.36a21.62,21.62,0,0,0-2.56.16l-25.12-1.78c6.93,14.11,4.29,33.49,4.29,48.63A64.58,64.58,0,0,1,241,184.93l30.3-1.57v-.13c13.93-1.46,24.88-16.28,24.88-34.37C296.19,129.81,284,114.36,269.05,114.36Z"/></clipPath><clipPath id="clip-path-30"><path class="cls-3" d="M179.81,33.86l-.16,17.79a1.49,1.49,0,0,0-.1-.55l.16-17.79A1.49,1.49,0,0,1,179.81,33.86Z"/></clipPath><clipPath id="clip-path-31"><path class="cls-3" d="M223.22,51.24l.16-17.79a1.4,1.4,0,0,1,0-.17l-.16,17.79A1.41,1.41,0,0,0,223.22,51.24Z"/></clipPath><clipPath id="clip-path-32"><path class="cls-3" d="M178.92,53.05l-4.06,3.83a1.79,1.79,0,0,0,.49-2.11l4.21-3.66A1.73,1.73,0,0,1,178.92,53.05Z"/></clipPath><clipPath id="clip-path-33"><path class="cls-3" d="M227.94,56.55l-4-3.88a1.9,1.9,0,0,1-.71-1.6l4,3.65A2.07,2.07,0,0,0,227.94,56.55Z"/></clipPath><clipPath id="clip-path-34"><path class="cls-3" d="M143.86,32.17l3.89-3.75a8.15,8.15,0,0,1,3.32-1.59c2.95-.84,7-1.23,12.82-1.12l-1.71,2.95a51,51,0,0,0-14.07,1.47A10.43,10.43,0,0,0,143.86,32.17Z"/></clipPath><clipPath id="clip-path-35"><path class="cls-3" d="M255.54,28.59l2.1,2.1,1.72,1.72A11.88,11.88,0,0,0,254.22,30a55.09,55.09,0,0,0-14.43-1.45l-1.36-2.95c5.81-.12,9.95.26,13.1,1.1A9.28,9.28,0,0,1,255.54,28.59Z"/></clipPath><clipPath id="clip-path-36"><path class="cls-3" d="M143,51.32l.16-17.79c0-1.23,1.65-2.45,4.94-3.39a51,51,0,0,1,14.07-1.47L162,46.45a51,51,0,0,0-14.07,1.47C144.65,48.87,143,50.09,143,51.32Z"/></clipPath><clipPath id="clip-path-37"><path class="cls-3" d="M147.49,56.51l-3.82-3.82c-1.65-1.65-.26-3.47,4.27-4.76A51,51,0,0,1,162,46.45l1.64,5.21c-5.83-.11-9.87.27-12.82,1.12C147.29,53.8,146.2,55.22,147.49,56.51Z"/></clipPath><clipPath id="clip-path-38"><path class="cls-3" d="M260,33.79l-.16,17.79c0-1.35-1.94-2.72-5.81-3.75a55.09,55.09,0,0,0-14.43-1.45l.16-17.79A55.09,55.09,0,0,1,254.22,30C258.09,31.07,260,32.43,260,33.79Z"/></clipPath><clipPath id="clip-path-39"><path class="cls-3" d="M259.18,52.94l-3.89,3.75c1.41-1.36.05-2.92-4-4-3.15-.84-7.29-1.21-13.1-1.1l1.44-5.22a55.09,55.09,0,0,1,14.43,1.45C259.25,49.21,261,51.19,259.18,52.94Z"/></clipPath><clipPath id="clip-path-40"><path class="cls-3" d="M141.15,10.07l.39-.37.19-.19.39-.37.19-.19.39-.37.19-.19.39-.37L145,6.32a8.15,8.15,0,0,1,3.32-1.59L145.4,8A10.43,10.43,0,0,0,141.15,10.07Z"/></clipPath><clipPath id="clip-path-41"><path class="cls-3" d="M144.79,34.42,141,30.6c-1.65-1.65-.26-3.47,4.27-4.76l2.88,4.86C144.59,31.7,143.5,33.12,144.79,34.42Z"/></clipPath><clipPath id="clip-path-42"><path class="cls-3" d="M140.3,29.22l.16-17.79c0-1.23,1.65-2.45,4.94-3.39l-.16,17.79C141.95,26.78,140.31,28,140.3,29.22Z"/></clipPath><clipPath id="clip-path-43"><path class="cls-3" d="M172.4,6.46l4,3.88A12.07,12.07,0,0,0,171.31,8c-7.4-2-19-2-25.91,0l3-3.31c5.4-1.55,14.48-1.55,20.26,0A8.73,8.73,0,0,1,172.4,6.46Z"/></clipPath><clipPath id="clip-path-44"><path class="cls-3" d="M252.85,6.5l.38.38.19.19.38.38.19.19.38.38.19.19.38.38.38.38.19.19.38.38.38.38.19.19.19.19a11.88,11.88,0,0,0-5.14-2.37c-7.4-2-19-2-25.91,0a10.56,10.56,0,0,0-4.2,2l4.06-3.82a7.66,7.66,0,0,1,3.09-1.47c5.4-1.55,14.48-1.55,20.26,0A9.28,9.28,0,0,1,252.85,6.5Z"/></clipPath><clipPath id="clip-path-45"><path class="cls-3" d="M177.12,11.77,177,29.56c0-1.35-1.92-2.72-5.8-3.75-7.4-2-19-2-25.91,0L145.4,8c6.91-2,18.52-2,25.91,0C175.19,9,177.13,10.41,177.12,11.77Z"/></clipPath><clipPath id="clip-path-46"><path class="cls-3" d="M176.94,29.73l-4.1,4.51c.21-1.61-1.3-2.73-4.46-3.57-5.78-1.54-14.86-1.53-20.26,0l-2.88-4.86c6.91-2,18.52-2,25.91,0C175.2,26.89,177.13,28.32,176.94,29.73Z"/></clipPath><clipPath id="clip-path-47"><path class="cls-3" d="M257.34,11.69l-.16,17.79c0-1.35-1.94-2.72-5.81-3.75-7.4-2-19-2-25.91,0-3.3.94-4.92,2.16-4.93,3.39l.16-17.79c0-1.23,1.63-2.45,4.93-3.39,6.91-2,18.52-2,25.91,0C255.4,9,257.35,10.34,257.34,11.69Z"/></clipPath><clipPath id="clip-path-48"><path class="cls-3" d="M256.49,30.85,252.6,34.6c1.41-1.36.05-2.92-4-4-5.78-1.54-14.86-1.53-20.26,0-3,.84-4.19,2-3.59,3.57l-4.13-4.5c-.53-1.41,1.05-2.85,4.83-3.93,6.91-2,18.52-2,25.91,0C256.55,27.12,258.29,29.1,256.49,30.85Z"/></clipPath><clipPath id="clip-path-53"><circle id="_楕円形_5" data-name="&lt;楕円形&gt;" class="cls-8" cx="200.17" cy="142.26" r="74"/></clipPath><clipPath id="clip-path-54"><path id="_クリッピングパス_11" data-name="&lt;クリッピングパス&gt;" class="cls-9" d="M183.36,134.26c0-19.05-13-34.5-29.1-34.5a24.87,24.87,0,0,0-2.75.16L49.09,93.13C27.7,90,8.67,107.1,8.67,131.59v88.67l.87-.13c3.71,6.11,19.3,9.63,37.55,8,16.31-1.42,32.91-3.63,37.58-8.08,1.21-1.15-1.72-10.62-1.72-10.62V172.32l73.72-3.57v-.13C171.61,167.17,183.36,152.34,183.36,134.26Z"/></clipPath></defs><title>アセット 1</title><g id="レイヤー_2" data-name="レイヤー 2"><g id="レイヤー_2-2" data-name="レイヤー 2"><ellipse class="cls-10" cx="289.92" cy="150.04" rx="34.75" ry="77.75"/><ellipse class="cls-11" cx="285.42" cy="150.04" rx="34.75" ry="77.75"/><path id="_クリッピングパス_12" data-name="&lt;クリッピングパス&gt;" class="cls-4" d="M269.05,114.36a21.62,21.62,0,0,0-2.56.16l-25.12-1.78c6.93,14.11,4.29,33.49,4.29,48.63A64.58,64.58,0,0,1,241,184.93l30.3-1.57v-.13c13.93-1.46,24.88-16.28,24.88-34.37C296.19,129.81,284,114.36,269.05,114.36Z"/><g class="cls-12"><path id="_パス_" data-name="&lt;パス&gt;" class="cls-13" d="M269.05,71.86a21.62,21.62,0,0,0-2.56.16l-25.12-1.78c6.93,14.11,4.29,33.49,4.29,48.63A64.58,64.58,0,0,1,241,142.43l30.3-1.57v-.13c13.93-1.46,24.88-16.28,24.88-34.37C296.19,87.31,284,71.86,269.05,71.86Z"/></g><path id="_クリッピングパス_13" data-name="&lt;クリッピングパス&gt;" class="cls-2" d="M269.05,114.36a21.62,21.62,0,0,0-2.56.16l-25.12-1.78c6.93,14.11,4.29,33.49,4.29,48.63A64.58,64.58,0,0,1,241,184.93l30.3-1.57v-.13c13.93-1.46,24.88-16.28,24.88-34.37C296.19,129.81,284,114.36,269.05,114.36Z"/><g class="cls-14"><g class="cls-14"><g class="cls-15"><g class="cls-14"><path class="cls-16" d="M179.81,33.86l-.16,17.79a1.49,1.49,0,0,0-.1-.55l.16-17.79a1.49,1.49,0,0,1,.1.55"/></g></g><path class="cls-2" d="M179.81,33.86l-.16,17.79a1.49,1.49,0,0,0-.1-.55l.16-17.79A1.49,1.49,0,0,1,179.81,33.86Z"/></g><g class="cls-14"><g class="cls-17"><g class="cls-14"><path class="cls-18" d="M223.4,33.28l-.16,17.79s0,.09,0,.13l.16-17.79s0-.09,0-.13"/><path class="cls-19" d="M223.39,33.41l-.16,17.79v0l.16-17.79v0"/></g></g><path class="cls-2" d="M223.22,51.24l.16-17.79a1.4,1.4,0,0,1,0-.17l-.16,17.79A1.41,1.41,0,0,0,223.22,51.24Z"/></g><g class="cls-14"><g class="cls-20"><g class="cls-14"><path class="cls-16" d="M178.71,53.24l-3.85,3.64a1.79,1.79,0,0,0,.49-2.11l4.21-3.66c.27.72,0,1.44-.84,2.13"/></g></g><path class="cls-2" d="M178.92,53.05l-4.06,3.83a1.79,1.79,0,0,0,.49-2.11l4.21-3.66A1.73,1.73,0,0,1,178.92,53.05Z"/></g><g class="cls-14"><g class="cls-21"><g class="cls-14"><path class="cls-16" d="M223.23,51.07l4,3.65a2.07,2.07,0,0,0,.68,1.83l-3.77-3.67a2.07,2.07,0,0,1-.94-1.81"/></g></g><path class="cls-2" d="M227.94,56.55l-4-3.88a1.9,1.9,0,0,1-.71-1.6l4,3.65A2.07,2.07,0,0,0,227.94,56.55Z"/></g><g class="cls-14"><g class="cls-22"><g class="cls-14"><path class="cls-23" d="M163.89,25.71l-1.71,2.95h-.63l1.63-3h.71"/><path class="cls-24" d="M163.18,25.7l-1.63,3h-1.78l1.5-3h1.91"/><path class="cls-25" d="M161.27,25.7l-1.5,3-1.84.06,1.5-3,1.84,0"/><path class="cls-26" d="M159.42,25.73l-1.5,3q-1,0-2,.12l1.62-3,1.86-.09"/><path class="cls-27" d="M157.56,25.82l-1.62,3c-.84.07-1.67.15-2.47.25L155.39,26q1-.12,2.17-.19"/><path class="cls-28" d="M155.39,26l-1.92,3.07a36.13,36.13,0,0,0-5.37,1l-.45.13,3.06-3.33.35-.1a26.74,26.74,0,0,1,4.33-.81"/><path class="cls-27" d="M150.71,26.93l-3.06,3.33a17,17,0,0,0-1.68.61l3.42-3.47a13.31,13.31,0,0,1,1.31-.47"/><path class="cls-26" d="M149.4,27.41,146,30.87a10.46,10.46,0,0,0-1,.47l3.64-3.57a8.15,8.15,0,0,1,.76-.37"/><path class="cls-25" d="M148.65,27.77,145,31.34a6.79,6.79,0,0,0-.67.42l3.78-3.66a5.27,5.27,0,0,1,.52-.33"/><path class="cls-24" d="M148.12,28.1l-3.78,3.66a4.45,4.45,0,0,0-.47.39l3.88-3.75a3.48,3.48,0,0,1,.37-.31"/><polyline class="cls-23" points="147.75 28.41 143.87 32.16 143.86 32.16 147.75 28.42 147.75 28.41"/></g></g><path class="cls-2" d="M143.86,32.17l3.89-3.75a8.15,8.15,0,0,1,3.32-1.59c2.95-.84,7-1.23,12.82-1.12l-1.71,2.95a51,51,0,0,0-14.07,1.47A10.43,10.43,0,0,0,143.86,32.17Z"/></g><g class="cls-14"><g class="cls-29"><g class="cls-14"><path class="cls-16" d="M255.55,28.6l3.82,3.82a4.48,4.48,0,0,0-.5-.43l-3.71-3.73a3.52,3.52,0,0,1,.39.34"/><path class="cls-30" d="M255.15,28.26,258.86,32a8,8,0,0,0-1.22-.73l-3.44-3.57a6.23,6.23,0,0,1,1,.57"/><path class="cls-31" d="M254.2,27.69l3.44,3.57q-.53-.26-1.18-.51l-3.18-3.45q.51.19.93.4"/><path class="cls-32" d="M253.27,27.29l3.18,3.45q-.55-.21-1.18-.4L252.35,27q.49.15.92.32"/><path class="cls-19" d="M252.35,27l2.92,3.37-1.05-.3-.11,0-2.67-3.29.09,0,.82.24"/><path class="cls-18" d="M251.44,26.72,254.11,30,253,29.74l-2.42-3.23.89.21"/><path class="cls-33" d="M250.55,26.5,253,29.74l-1.09-.23-2.19-3.18.86.18"/><path class="cls-34" d="M249.69,26.33l2.19,3.18-1.07-.19-2-3.14.86.15"/><path class="cls-35" d="M248.83,26.18l2,3.14-1.07-.17L248,26l.88.13"/><path class="cls-36" d="M248,26l1.78,3.1L248.64,29,247,25.94,248,26"/><path class="cls-37" d="M247,25.94,248.64,29l-1.13-.12-1.45-3,1,.1"/><path class="cls-38" d="M246.07,25.84l1.45,3-1.19-.11-1.31-3,1.05.08"/><path class="cls-39" d="M245,25.76l1.31,3-1.27-.09-1.21-3,1.17.07"/><path class="cls-40" d="M243.85,25.7l1.21,3-1.39-.07-1.15-3,1.33,0"/><path class="cls-23" d="M242.52,25.65l1.15,3-1.54,0-1.16-3,1.55,0"/><path class="cls-24" d="M241,25.62l1.16,3H240.4l-1.29-2.95H241"/><path class="cls-25" d="M239.12,25.63l1.29,2.95h-.61l-1.36-2.95h.69"/></g></g><path class="cls-2" d="M255.54,28.59l2.1,2.1,1.72,1.72A11.88,11.88,0,0,0,254.22,30a55.09,55.09,0,0,0-14.43-1.45l-1.36-2.95c5.81-.12,9.95.26,13.1,1.1A9.28,9.28,0,0,1,255.54,28.59Z"/></g><g class="cls-14"><g class="cls-41"><g class="cls-14"><path class="cls-35" d="M162.18,28.66,162,46.45h-1.15L161,28.65h1.15"/><path class="cls-36" d="M161,28.65l-.16,17.79h-1.49l.16-17.79H161"/><path class="cls-37" d="M159.53,28.66l-.16,17.79-1.62.05.16-17.79,1.62-.05"/><path class="cls-38" d="M157.91,28.72l-.16,17.79-1.85.11.16-17.79,1.85-.11"/><path class="cls-39" d="M156.06,28.83l-.16,17.79c-.83.06-1.65.14-2.45.24l.16-17.79c.8-.1,1.61-.18,2.45-.24"/><path class="cls-40" d="M153.62,29.07l-.16,17.79a36.41,36.41,0,0,0-5.51,1.06l-.26.08.16-17.79.26-.08a36.41,36.41,0,0,1,5.51-1.06"/><path class="cls-39" d="M147.84,30.21,147.68,48q-.91.27-1.64.57l.16-17.79q.73-.3,1.64-.57"/><path class="cls-38" d="M146.2,30.78,146,48.58q-.52.21-1,.44l.16-17.79q.43-.22,1-.44"/><path class="cls-37" d="M145.24,31.22,145.08,49a7.77,7.77,0,0,0-.69.4l.16-17.79a7.77,7.77,0,0,1,.69-.4"/><path class="cls-36" d="M144.56,31.62l-.16,17.79a5.22,5.22,0,0,0-.51.38L144,32a5.22,5.22,0,0,1,.51-.38"/><path class="cls-35" d="M144,32l-.16,17.79a3.54,3.54,0,0,0-.38.37l.16-17.79A3.53,3.53,0,0,1,144,32"/><path class="cls-34" d="M143.67,32.36l-.16,17.79a2.45,2.45,0,0,0-.27.37l.16-17.79a2.44,2.44,0,0,1,.27-.37"/><path class="cls-33" d="M143.4,32.73l-.16,17.79a1.78,1.78,0,0,0-.17.37l.16-17.79a1.78,1.78,0,0,1,.17-.37"/><path class="cls-18" d="M143.23,33.1l-.16,17.79a1.45,1.45,0,0,0-.07.38l.16-17.79a1.45,1.45,0,0,1,.07-.38"/><path class="cls-19" d="M143.17,33.48,143,51.28v0l.16-17.79v0"/></g></g><path class="cls-2" d="M143,51.32l.16-17.79c0-1.23,1.65-2.45,4.94-3.39a51,51,0,0,1,14.07-1.47L162,46.45a51,51,0,0,0-14.07,1.47C144.65,48.87,143,50.09,143,51.32Z"/></g><g class="cls-14"><g class="cls-42"><g class="cls-14"><path class="cls-16" d="M162,46.45l1.64,5.21c-5.83-.11-9.87.27-12.82,1.12-3.54,1-4.63,2.43-3.34,3.72l-3.82-3.82c-1.65-1.65-.26-3.47,4.27-4.76A51,51,0,0,1,162,46.45"/></g></g><path class="cls-2" d="M147.49,56.51l-3.82-3.82c-1.65-1.65-.26-3.47,4.27-4.76A51,51,0,0,1,162,46.45l1.64,5.21c-5.83-.11-9.87.27-12.82,1.12C147.29,53.8,146.2,55.22,147.49,56.51Z"/></g><g class="cls-14"><g class="cls-43"><g class="cls-14"><path class="cls-16" d="M260,33.79l-.16,17.79c0-1.35-1.94-2.72-5.81-3.75q-.67-.18-1.38-.33l.16-17.79q.71.16,1.38.33c3.87,1,5.82,2.39,5.81,3.75"/><path class="cls-30" d="M252.84,29.71l-.16,17.79c-.58-.13-1.19-.24-1.81-.35L251,29.36q.93.16,1.81.35"/><path class="cls-31" d="M251,29.36l-.16,17.79-1.53-.24.16-17.79,1.53.24"/><path class="cls-32" d="M249.5,29.12l-.16,17.79-1.42-.18.16-17.79,1.42.18"/><path class="cls-19" d="M248.08,28.94l-.16,17.79-1.36-.13.16-17.79,1.36.13"/><path class="cls-18" d="M246.72,28.81l-.16,17.79-1.34-.1.16-17.79,1.34.1"/><path class="cls-33" d="M245.38,28.71l-.16,17.79-1.35-.07L244,28.64l1.35.07"/><path class="cls-34" d="M244,28.64l-.16,17.79-1.37,0,.16-17.79,1.37,0"/><path class="cls-35" d="M242.66,28.59l-.16,17.79-1.42,0,.16-17.79,1.42,0"/><path class="cls-36" d="M241.24,28.58l-.16,17.79h-1.45l.16-17.79h1.45"/></g></g><path class="cls-2" d="M260,33.79l-.16,17.79c0-1.35-1.94-2.72-5.81-3.75a55.09,55.09,0,0,0-14.43-1.45l.16-17.79A55.09,55.09,0,0,1,254.22,30C258.09,31.07,260,32.43,260,33.79Z"/></g><g class="cls-14"><g class="cls-44"><g class="cls-14"><path class="cls-16" d="M259.18,52.94l-3.89,3.75c1.41-1.36.05-2.92-4-4-3.15-.84-7.29-1.21-13.1-1.1l1.44-5.22a55.09,55.09,0,0,1,14.43,1.45c5.19,1.38,6.93,3.36,5.12,5.11"/></g></g><path class="cls-2" d="M259.18,52.94l-3.89,3.75c1.41-1.36.05-2.92-4-4-3.15-.84-7.29-1.21-13.1-1.1l1.44-5.22a55.09,55.09,0,0,1,14.43,1.45C259.25,49.21,261,51.19,259.18,52.94Z"/></g><polygon class="cls-28" points="188.98 18.54 183.29 22.62 162.18 28.66 163.89 25.71 188.98 18.54"/><polygon class="cls-45" points="238.42 25.64 239.79 28.59 217.21 22.59 211.6 18.52 238.42 25.64"/><polygon class="cls-46" points="183.29 22.62 183.13 40.42 162.01 46.45 162.18 28.66 183.29 22.62"/><polygon class="cls-10" points="239.79 28.59 239.63 46.38 217.05 40.39 217.21 22.59 239.79 28.59"/><polygon class="cls-47" points="183.13 40.42 188.74 44.49 163.65 51.67 162.01 46.45 183.13 40.42"/><polygon class="cls-48" points="239.63 46.38 238.19 51.6 211.36 44.47 217.05 40.39 239.63 46.38"/><polygon class="cls-45" points="199.91 15.41 199.68 17.93 177.1 11.94 173.08 8.29 199.91 15.41"/><polygon class="cls-28" points="224.99 8.24 220.78 11.9 199.68 17.93 199.91 15.41 224.99 8.24"/><polygon class="cls-10" points="199.68 17.93 199.52 35.73 176.94 29.73 177.1 11.94 199.68 17.93"/><polygon class="cls-48" points="199.52 35.73 199.67 41.37 172.84 34.24 176.94 29.73 199.52 35.73"/><polygon class="cls-47" points="220.62 29.7 224.75 34.2 199.67 41.37 199.52 35.73 220.62 29.7"/><polygon class="cls-49" points="220.78 11.9 220.62 29.7 199.52 35.73 199.68 17.93 220.78 11.9"/><g class="cls-14"><g class="cls-50"><g class="cls-14"><path class="cls-28" d="M148.36,4.74,145.4,8l-.45.13L148,4.84l.35-.1"/><path class="cls-27" d="M148,4.84,145,8.17a17,17,0,0,0-1.68.61l3.42-3.47A13.3,13.3,0,0,1,148,4.84"/><path class="cls-26" d="M146.7,5.31l-3.42,3.47a10.49,10.49,0,0,0-1,.47l3.64-3.57a8.14,8.14,0,0,1,.76-.37"/><path class="cls-25" d="M145.94,5.68l-3.64,3.57a6.79,6.79,0,0,0-.67.42L145.42,6a5.27,5.27,0,0,1,.52-.33"/><path class="cls-24" d="M145.42,6l-3.78,3.66a4.45,4.45,0,0,0-.47.39L145,6.32a3.48,3.48,0,0,1,.37-.31"/><polyline class="cls-23" points="145.05 6.32 141.16 10.06 141.15 10.07 145.04 6.32 145.05 6.32"/></g></g><path class="cls-2" d="M141.15,10.07l.39-.37.19-.19.39-.37.19-.19.39-.37.19-.19.39-.37L145,6.32a8.15,8.15,0,0,1,3.32-1.59L145.4,8A10.43,10.43,0,0,0,141.15,10.07Z"/></g><g class="cls-14"><g class="cls-51"><g class="cls-14"><path class="cls-16" d="M145.24,25.83l2.88,4.86c-3.54,1-4.63,2.43-3.34,3.72L141,30.6c-1.65-1.65-.26-3.47,4.27-4.76"/></g></g><path class="cls-2" d="M144.79,34.42,141,30.6c-1.65-1.65-.26-3.47,4.27-4.76l2.88,4.86C144.59,31.7,143.5,33.12,144.79,34.42Z"/></g><g class="cls-14"><g class="cls-52"><g class="cls-14"><path class="cls-40" d="M145.4,8l-.16,17.79-.26.08.16-17.79L145.4,8"/><path class="cls-39" d="M145.14,8.12,145,25.91q-.91.27-1.64.57l.16-17.79q.73-.3,1.64-.57"/><path class="cls-38" d="M143.5,8.69l-.16,17.79q-.52.21-1,.44l.16-17.79q.43-.22,1-.44"/><path class="cls-37" d="M142.54,9.13l-.16,17.79a7.77,7.77,0,0,0-.69.4l.16-17.79a7.78,7.78,0,0,1,.69-.4"/><path class="cls-36" d="M141.85,9.52l-.16,17.79a5.22,5.22,0,0,0-.51.38l.16-17.79a5.22,5.22,0,0,1,.51-.38"/><path class="cls-35" d="M141.34,9.9l-.16,17.79a3.53,3.53,0,0,0-.38.37L141,10.27a3.53,3.53,0,0,1,.38-.37"/><path class="cls-34" d="M141,10.27l-.16,17.79a2.44,2.44,0,0,0-.27.37l.16-17.79a2.44,2.44,0,0,1,.27-.37"/><path class="cls-33" d="M140.7,10.64l-.16,17.79a1.78,1.78,0,0,0-.17.37L140.53,11a1.78,1.78,0,0,1,.17-.37"/><path class="cls-18" d="M140.53,11l-.16,17.79a1.45,1.45,0,0,0-.07.38l.16-17.79a1.45,1.45,0,0,1,.07-.38"/><path class="cls-19" d="M140.46,11.39l-.16,17.79v0l.16-17.79v0"/></g></g><path class="cls-2" d="M140.3,29.22l.16-17.79c0-1.23,1.65-2.45,4.94-3.39l-.16,17.79C141.95,26.78,140.31,28,140.3,29.22Z"/></g><g class="cls-14"><g class="cls-53"><g class="cls-14"><path class="cls-16" d="M172.58,6.65l3.82,3.69a4.7,4.7,0,0,0-.52-.43l-3.7-3.65a3.2,3.2,0,0,1,.4.38"/><path class="cls-30" d="M172.18,6.27l3.7,3.65a8.24,8.24,0,0,0-1.24-.72l-3.42-3.54a5.32,5.32,0,0,1,1,.61"/><path class="cls-31" d="M171.22,5.65l3.42,3.54q-.52-.25-1.16-.49l-3.17-3.45a9.48,9.48,0,0,1,.9.4"/><path class="cls-32" d="M170.32,5.26l3.17,3.45q-.53-.2-1.13-.39L169.43,5q.47.15.88.31"/><path class="cls-19" d="M169.43,5l2.92,3.37-1-.3-.11,0-2.67-3.29.09,0,.81.23"/><path class="cls-18" d="M168.53,4.69,171.2,8,170,7.71l-2.42-3.23.9.22"/><path class="cls-33" d="M167.63,4.48,170,7.71l-1.15-.24-2.17-3.18.9.18"/><path class="cls-34" d="M166.73,4.29l2.17,3.18-1.14-.2-1.92-3.14.89.16"/><path class="cls-35" d="M165.84,4.13l1.92,3.14L166.6,7.1,164.94,4l.9.14"/><path class="cls-36" d="M164.94,4l1.67,3.1-1.17-.15L164,3.88l.92.12"/><path class="cls-37" d="M164,3.88l1.41,3.07-1.2-.12-1.15-3,.94.1"/><path class="cls-38" d="M163.08,3.78l1.15,3L163,6.72l-.88-3,1,.08"/><path class="cls-39" d="M162.12,3.7l.88,3-1.28-.08-.6-3,1,.06"/><path class="cls-40" d="M161.12,3.64l.6,3-1.34-.06-.31-3,1,0"/><path class="cls-23" d="M160.07,3.6l.31,3-1.42,0v-3l1.11,0"/><path class="cls-24" d="M159,3.57v3h-1.53l.34-3H159"/><path class="cls-25" d="M157.76,3.57l-.34,3-1.69,0,.7-3,1.32,0"/><path class="cls-26" d="M156.44,3.61l-.7,3q-1,0-2,.1l1.13-3,1.53-.08"/><path class="cls-27" d="M154.91,3.69l-1.13,3c-.88.06-1.75.14-2.6.24l1.7-3.07c.66-.08,1.34-.14,2-.19"/><path class="cls-28" d="M152.88,3.88l-1.7,3.07A37,37,0,0,0,145.4,8l3-3.31a28.93,28.93,0,0,1,4.52-.86"/></g></g><path class="cls-2" d="M172.4,6.46l4,3.88A12.07,12.07,0,0,0,171.31,8c-7.4-2-19-2-25.91,0l3-3.31c5.4-1.55,14.48-1.55,20.26,0A8.73,8.73,0,0,1,172.4,6.46Z"/></g><g class="cls-14"><g class="cls-54"><g class="cls-14"><path class="cls-16" d="M252.85,6.5l3.82,3.82a4.48,4.48,0,0,0-.5-.43l-3.71-3.73a3.5,3.5,0,0,1,.39.34"/><path class="cls-30" d="M252.46,6.17l3.71,3.73a8,8,0,0,0-1.22-.73L251.5,5.6a6.21,6.21,0,0,1,1,.57"/><path class="cls-31" d="M251.5,5.6l3.44,3.57q-.53-.26-1.18-.51L250.58,5.2q.51.19.93.4"/><path class="cls-32" d="M250.58,5.2l3.18,3.45q-.55-.21-1.18-.4l-2.92-3.37q.49.15.92.32"/><path class="cls-19" d="M249.66,4.88l2.92,3.37-1.05-.3-.11,0-2.67-3.29.09,0,.82.24"/><path class="cls-18" d="M248.74,4.62l2.67,3.29-1.16-.28L247.84,4.4l.9.22"/><path class="cls-33" d="M247.84,4.4l2.42,3.23-1.15-.24-2.17-3.18.9.18"/><path class="cls-34" d="M246.95,4.22l2.17,3.18L248,7.2l-1.92-3.14.89.16"/><path class="cls-35" d="M246.05,4.06,248,7.2,246.82,7l-1.67-3.1.9.14"/><path class="cls-36" d="M245.15,3.93,246.82,7l-1.17-.15-1.41-3.07.92.12"/><path class="cls-37" d="M244.24,3.81l1.41,3.07-1.2-.12-1.15-3,.94.1"/><path class="cls-38" d="M243.3,3.71l1.15,3-1.24-.1-.88-3,1,.08"/><path class="cls-39" d="M242.33,3.63l.88,3-1.28-.08-.6-3,1,.06"/><path class="cls-40" d="M241.33,3.57l.6,3-1.34-.06-.31-3,1,0"/><path class="cls-23" d="M240.28,3.53l.31,3-1.42,0v-3l1.11,0"/><path class="cls-24" d="M239.17,3.5v3h-1.53l.34-3h1.2"/><path class="cls-25" d="M238,3.5l-.34,3-1.69,0,.7-3,1.32,0"/><path class="cls-26" d="M236.65,3.54l-.7,3q-1,0-2,.1l1.13-3,1.53-.08"/><path class="cls-27" d="M235.12,3.62l-1.13,3c-.88.06-1.75.14-2.6.24l1.7-3.07c.66-.08,1.34-.14,2-.19"/><path class="cls-28" d="M233.09,3.81l-1.7,3.07A37,37,0,0,0,225.62,8l-.48.14,3.06-3.34.38-.11a28.93,28.93,0,0,1,4.52-.86"/><path class="cls-27" d="M228.2,4.78l-3.06,3.34q-.89.27-1.6.58L227,5.23a12.21,12.21,0,0,1,1.24-.45"/><path class="cls-26" d="M227,5.23l-3.41,3.46q-.5.21-.92.44l3.62-3.54a7.12,7.12,0,0,1,.71-.35"/><path class="cls-25" d="M226.24,5.59l-3.62,3.54a7.18,7.18,0,0,0-.65.39l3.77-3.6a4.59,4.59,0,0,1,.5-.33"/><path class="cls-24" d="M225.75,5.91,222,9.52a4.87,4.87,0,0,0-.48.37l3.89-3.65a3.13,3.13,0,0,1,.36-.32"/><path class="cls-23" d="M225.38,6.23,221.5,9.89l-.08.07,3.91-3.66.06-.06"/></g></g><path class="cls-2" d="M252.85,6.5l.38.38.19.19.38.38.19.19.38.38.19.19.38.38.38.38.19.19.38.38.38.38.19.19.19.19a11.88,11.88,0,0,0-5.14-2.37c-7.4-2-19-2-25.91,0a10.56,10.56,0,0,0-4.2,2l4.06-3.82a7.66,7.66,0,0,1,3.09-1.47c5.4-1.55,14.48-1.55,20.26,0A9.28,9.28,0,0,1,252.85,6.5Z"/></g><path class="cls-55" d="M148.13,30.69c5.4-1.55,14.48-1.55,20.26,0,3.16.84,4.67,2,4.46,3.57l26.83,7.13,25.08-7.17c-.6-1.6.63-2.73,3.59-3.57,5.4-1.55,14.48-1.55,20.26,0s6.09,4,.68,5.58c-3,.84-7,1.22-12.84,1.12l-25.08,7.17,26.83,7.13c5.81-.12,9.95.26,13.1,1.1,5.78,1.53,6.09,4,.68,5.58s-14.48,1.55-20.26,0c-3.15-.84-4.66-2-4.45-3.57L200.43,47.6l-25.09,7.17c.61,1.6-.63,2.73-3.57,3.57-5.4,1.55-14.48,1.55-20.26,0s-6.09-4-.68-5.58c2.95-.84,7-1.23,12.82-1.12l25.09-7.17-26.83-7.13c-5.82.12-10-.26-13.11-1.09C143,34.74,142.72,32.24,148.13,30.69Z"/><path class="cls-55" d="M148.13,30.69c5.4-1.55,14.48-1.55,20.26,0,3.16.84,4.67,2,4.46,3.57l26.83,7.13,25.08-7.17c-.6-1.6.63-2.73,3.59-3.57,5.4-1.55,14.48-1.55,20.26,0s6.09,4,.68,5.58c-3,.84-7,1.22-12.84,1.12l-25.08,7.17,26.83,7.13c5.81-.12,9.95.26,13.1,1.1,5.78,1.53,6.09,4,.68,5.58s-14.48,1.55-20.26,0c-3.15-.84-4.66-2-4.45-3.57L200.43,47.6l-25.09,7.17c.61,1.6-.63,2.73-3.57,3.57-5.4,1.55-14.48,1.55-20.26,0s-6.09-4-.68-5.58c2.95-.84,7-1.23,12.82-1.12l25.09-7.17-26.83-7.13c-5.82.12-10-.26-13.11-1.09C143,34.74,142.72,32.24,148.13,30.69Z"/><path class="cls-2" d="M148.13,30.69c5.4-1.55,14.48-1.55,20.26,0,3.16.84,4.67,2,4.46,3.57l26.83,7.13,25.08-7.17c-.6-1.6.63-2.73,3.59-3.57,5.4-1.55,14.48-1.55,20.26,0s6.09,4,.68,5.58c-3,.84-7,1.22-12.84,1.12l-25.08,7.17,26.83,7.13c5.81-.12,9.95.26,13.1,1.1,5.78,1.53,6.09,4,.68,5.58s-14.48,1.55-20.26,0c-3.15-.84-4.66-2-4.45-3.57L200.43,47.6l-25.09,7.17c.61,1.6-.63,2.73-3.57,3.57-5.4,1.55-14.48,1.55-20.26,0s-6.09-4-.68-5.58c2.95-.84,7-1.23,12.82-1.12l25.09-7.17-26.83-7.13c-5.82.12-10-.26-13.11-1.09C143,34.74,142.72,32.24,148.13,30.69Z"/><g class="cls-14"><g class="cls-56"><g class="cls-14"><path class="cls-16" d="M177.12,11.77,177,29.56c0-1.35-1.92-2.72-5.8-3.75q-.66-.18-1.37-.33l.16-17.79q.71.16,1.37.33c3.88,1,5.81,2.4,5.8,3.75"/><path class="cls-30" d="M169.94,7.69l-.16,17.79c-.58-.13-1.19-.25-1.81-.35l.16-17.79c.62.11,1.23.22,1.81.35"/><path class="cls-31" d="M168.13,7.33,168,25.13l-1.55-.24.16-17.79,1.55.24"/><path class="cls-32" d="M166.58,7.09l-.16,17.79L165,24.71l.16-17.79,1.42.18"/><path class="cls-19" d="M165.16,6.92,165,24.71l-1.36-.13.16-17.79,1.36.13"/><path class="cls-18" d="M163.79,6.79l-.16,17.79-1.34-.1.16-17.79,1.34.1"/><path class="cls-33" d="M162.45,6.68l-.16,17.79L161,24.41l.16-17.79,1.34.07"/><path class="cls-34" d="M161.11,6.61,161,24.41l-1.37,0,.16-17.79,1.37,0"/><path class="cls-35" d="M159.75,6.57l-.16,17.79-1.41,0,.16-17.79,1.41,0"/><path class="cls-36" d="M158.34,6.55l-.16,17.79h-1.49l.16-17.79h1.49"/><path class="cls-37" d="M156.85,6.57l-.16,17.79-1.62.05.16-17.79,1.62-.05"/><path class="cls-38" d="M155.23,6.62l-.16,17.79-1.87.11.16-17.79,1.87-.11"/><path class="cls-39" d="M153.35,6.73l-.16,17.79c-.84.06-1.66.15-2.46.24L150.9,7c.8-.1,1.62-.18,2.46-.24"/><path class="cls-40" d="M150.9,7l-.16,17.79a36.48,36.48,0,0,0-5.49,1.06L145.4,8A36.48,36.48,0,0,1,150.9,7"/></g></g><path class="cls-2" d="M177.12,11.77,177,29.56c0-1.35-1.92-2.72-5.8-3.75-7.4-2-19-2-25.91,0L145.4,8c6.91-2,18.52-2,25.91,0C175.19,9,177.13,10.41,177.12,11.77Z"/></g><g class="cls-14"><g class="cls-57"><g class="cls-14"><path class="cls-16" d="M176.94,29.73l-4.1,4.51c.21-1.61-1.3-2.73-4.46-3.57-5.78-1.54-14.86-1.53-20.26,0l-2.88-4.86c6.91-2,18.52-2,25.91,0,4,1.07,6,2.51,5.79,3.92"/></g></g><path class="cls-2" d="M176.94,29.73l-4.1,4.51c.21-1.61-1.3-2.73-4.46-3.57-5.78-1.54-14.86-1.53-20.26,0l-2.88-4.86c6.91-2,18.52-2,25.91,0C175.2,26.89,177.13,28.32,176.94,29.73Z"/></g><g class="cls-14"><g class="cls-58"><g class="cls-14"><path class="cls-16" d="M257.34,11.69l-.16,17.79c0-1.35-1.94-2.72-5.81-3.75q-.66-.18-1.37-.33l.16-17.79q.71.16,1.37.33c3.87,1,5.82,2.4,5.81,3.75"/><path class="cls-30" d="M250.16,7.62,250,25.41q-.88-.19-1.81-.35l.16-17.79q.93.16,1.81.35"/><path class="cls-31" d="M248.35,7.26l-.16,17.79-1.55-.24L246.79,7l1.55.24"/><path class="cls-32" d="M246.79,7l-.16,17.79-1.42-.18.16-17.79,1.42.18"/><path class="cls-19" d="M245.37,6.85l-.16,17.79-1.36-.13L244,6.71l1.36.13"/><path class="cls-18" d="M244,6.71l-.16,17.79-1.34-.1.16-17.79,1.34.1"/><path class="cls-33" d="M242.67,6.61l-.16,17.79-1.34-.07.16-17.79,1.34.07"/><path class="cls-34" d="M241.33,6.54l-.16,17.79-1.37,0L240,6.5l1.37,0"/><path class="cls-35" d="M240,6.5l-.16,17.79-1.41,0,.16-17.79,1.41,0"/><path class="cls-36" d="M238.55,6.48l-.16,17.79H236.9l.16-17.79h1.49"/><path class="cls-37" d="M237.06,6.49l-.16,17.79-1.62.05.16-17.79,1.62-.05"/><path class="cls-38" d="M235.44,6.55l-.16,17.79-1.87.11.16-17.79,1.87-.11"/><path class="cls-39" d="M233.57,6.66l-.16,17.79c-.84.06-1.66.15-2.46.24l.16-17.79c.8-.1,1.62-.18,2.46-.24"/><path class="cls-40" d="M231.11,6.91l-.16,17.79a36.48,36.48,0,0,0-5.49,1.06l-.29.08.16-17.79.29-.08a36.49,36.49,0,0,1,5.49-1.06"/><path class="cls-39" d="M225.33,8.05l-.16,17.79q-.89.27-1.61.56l.16-17.79q.72-.29,1.61-.56"/><path class="cls-38" d="M223.72,8.62l-.16,17.79q-.53.21-1,.44l.16-17.79q.43-.23,1-.44"/><path class="cls-37" d="M222.75,9.06l-.16,17.79a7.71,7.71,0,0,0-.68.4l.16-17.79a7.71,7.71,0,0,1,.68-.4"/><path class="cls-36" d="M222.07,9.45l-.16,17.79a5.2,5.2,0,0,0-.51.38l.16-17.79a5.2,5.2,0,0,1,.51-.38"/><path class="cls-35" d="M221.57,9.83l-.16,17.79A3.52,3.52,0,0,0,221,28l.16-17.79a3.54,3.54,0,0,1,.38-.37"/><path class="cls-34" d="M221.19,10.19,221,28a2.44,2.44,0,0,0-.27.37l.16-17.79a2.45,2.45,0,0,1,.27-.37"/><path class="cls-33" d="M220.92,10.56l-.16,17.79a1.79,1.79,0,0,0-.17.37l.16-17.79a1.78,1.78,0,0,1,.17-.37"/><path class="cls-18" d="M220.75,10.93l-.16,17.79a1.46,1.46,0,0,0-.07.38l.16-17.79a1.46,1.46,0,0,1,.07-.38"/><path class="cls-19" d="M220.69,11.32l-.16,17.79v0l.16-17.79v0"/></g></g><path class="cls-2" d="M257.34,11.69l-.16,17.79c0-1.35-1.94-2.72-5.81-3.75-7.4-2-19-2-25.91,0-3.3.94-4.92,2.16-4.93,3.39l.16-17.79c0-1.23,1.63-2.45,4.93-3.39,6.91-2,18.52-2,25.91,0C255.4,9,257.35,10.34,257.34,11.69Z"/></g><g class="cls-14"><g class="cls-59"><g class="cls-14"><path class="cls-16" d="M256.49,30.85,252.6,34.6c1.41-1.36.05-2.92-4-4-5.78-1.54-14.86-1.53-20.26,0-3,.84-4.19,2-3.59,3.57l-4.13-4.5c-.53-1.41,1.05-2.85,4.83-3.93,6.91-2,18.52-2,25.91,0,5.19,1.38,6.93,3.36,5.12,5.11"/></g></g><path class="cls-2" d="M256.49,30.85,252.6,34.6c1.41-1.36.05-2.92-4-4-5.78-1.54-14.86-1.53-20.26,0-3,.84-4.19,2-3.59,3.57l-4.13-4.5c-.53-1.41,1.05-2.85,4.83-3.93,6.91-2,18.52-2,25.91,0C256.55,27.12,258.29,29.1,256.49,30.85Z"/></g></g><path id="_クリッピングパス_14" data-name="&lt;クリッピングパス&gt;" class="cls-4" d="M212.17,75.76V47.29H212c-1-1.78-6.51-3.14-13.15-3.14s-12.13,1.36-13.15,3.14h-.18V75.76Z"/><g class="cls-60"><path id="_パス_2" data-name="&lt;パス&gt;" class="cls-13" d="M210.69,74.1V45.63h-.16c-.91-1.78-5.82-3.15-11.76-3.15S187.91,43.85,187,45.63h-.16V74.1Z"/><g class="cls-61"><path id="_パス_3" data-name="&lt;パス&gt;" class="cls-4" d="M210.69,74.1V45.63h-.16c-.91-1.78-5.82-3.15-11.76-3.15S187.91,43.85,187,45.63h-.16V74.1Z"/><path class="cls-4" d="M210.69,45.63h-.16c-.9-1.76-5.69-3.11-11.53-3.14V74.1h11.69Z"/></g><path id="_クリッピングパス_15" data-name="&lt;クリッピングパス&gt;" class="cls-4" d="M212.17,75.76V47.29H212c-1-1.78-6.51-3.14-13.15-3.14s-12.13,1.36-13.15,3.14h-.18V75.76Z"/><g class="cls-62"><path id="_パス_4" data-name="&lt;パス&gt;" class="cls-63" d="M210.69,74.1V45.63h-.16c-.91-1.78-5.82-3.15-11.76-3.15S187.91,43.85,187,45.63h-.16V74.1Z"/><path class="cls-4" d="M210.69,45.63h-.16c-.9-1.76-5.69-3.11-11.53-3.14V74.1h11.69Z"/></g><g class="cls-61"><path id="_パス_5" data-name="&lt;パス&gt;" class="cls-2" d="M210.69,74.1V45.63h-.16c-.91-1.78-5.82-3.15-11.76-3.15S187.91,43.85,187,45.63h-.16V74.1Z"/><path class="cls-2" d="M210.69,45.63h-.16c-.9-1.76-5.69-3.11-11.53-3.14V74.1h11.69Z"/></g></g><path id="_クリッピングパス_16" data-name="&lt;クリッピングパス&gt;" class="cls-2" d="M212.17,75.76V47.29H212c-1-1.78-6.51-3.14-13.15-3.14s-12.13,1.36-13.15,3.14h-.18V75.76Z"/><g class="cls-64"><circle id="_楕円形_6" data-name="&lt;楕円形&gt;" class="cls-65" cx="205.27" cy="142.26" r="74"/></g><circle id="_楕円形_7" data-name="&lt;楕円形&gt;" class="cls-5" cx="200.17" cy="142.26" r="74"/><g class="cls-66"><circle id="_楕円形_8" data-name="&lt;楕円形&gt;" class="cls-4" cx="205.27" cy="142.26" r="74"/></g><g class="cls-64"><circle id="_楕円形_9" data-name="&lt;楕円形&gt;" class="cls-2" cx="205.27" cy="142.26" r="74"/></g><circle class="cls-13" cx="198.84" cy="137.29" r="65"/><path id="_クリッピングパス_17" data-name="&lt;クリッピングパス&gt;" class="cls-67" d="M183.36,134.26c0-19.05-13-34.5-29.1-34.5a24.87,24.87,0,0,0-2.75.16L49.09,93.13C27.7,90,8.67,107.1,8.67,131.59v88.67l.87-.13c3.71,6.11,19.3,9.63,37.55,8,16.31-1.42,32.91-3.63,37.58-8.08,1.21-1.15-1.72-10.62-1.72-10.62V172.32l73.72-3.57v-.13C171.61,167.17,183.36,152.34,183.36,134.26Z"/><g class="cls-68"><path id="_パス_6" data-name="&lt;パス&gt;" class="cls-69" d="M217.36,144.26c0-19.05-13-34.5-29.1-34.5a24.87,24.87,0,0,0-2.75.16L83.09,103.13c-21.39-3.11-40.42,14-40.42,38.46v88.67l.87-.13c3.71,6.11,19.3,9.63,37.55,8,16.31-1.42,32.91-3.63,37.58-8.08,1.21-1.15-1.72-10.62-1.72-10.62V182.32l73.72-3.57v-.13C205.61,177.17,217.36,162.34,217.36,144.26Z"/><path id="_パス_7" data-name="&lt;パス&gt;" class="cls-28" d="M212.43,139.26c0-19.05-13-34.5-29.1-34.5a24.87,24.87,0,0,0-2.75.16L78.16,98.13c-21.39-3.11-40.42,14-40.42,38.46v88.67l.87-.13c3.71,6.11,19.3,9.63,37.55,8,16.31-1.42,32.91-3.63,37.58-8.08,1.21-1.15-1.72-10.62-1.72-10.62V177.32l73.72-3.57v-.13C200.69,172.17,212.43,157.34,212.43,139.26Z"/><path id="_パス_8" data-name="&lt;パス&gt;" class="cls-1" d="M215.36,141.26c0-19.05-13-34.5-29.1-34.5a24.87,24.87,0,0,0-2.75.16L81.09,100.13C59.7,97,40.67,114.1,40.67,138.59v88.67l.87-.13c3.71,6.11,19.3,9.63,37.55,8,16.31-1.42,32.91-3.63,37.58-8.08,1.21-1.15-1.72-10.62-1.72-10.62V179.32l73.72-3.57v-.13C203.61,174.17,215.36,159.34,215.36,141.26Z"/><path class="cls-10" d="M57.66,203.91V142.07a11.87,11.87,0,0,1,5.71-10.16c4-2.45,9.44-5.16,13.56-5.16h111l-11.5,51.5-92.25,56.5L57.66,203.91"/><path class="cls-70" d="M82.67,134.76,83,172.32l82.22-3.57s32-28.33,31.67-33S82.67,134.76,82.67,134.76Z"/></g><path id="_クリッピングパス_18" data-name="&lt;クリッピングパス&gt;" class="cls-2" d="M183.36,134.26c0-19.05-13-34.5-29.1-34.5a24.87,24.87,0,0,0-2.75.16L49.09,93.13C27.7,90,8.67,107.1,8.67,131.59v88.67l.87-.13c3.71,6.11,19.3,9.63,37.55,8,16.31-1.42,32.91-3.63,37.58-8.08,1.21-1.15-1.72-10.62-1.72-10.62V172.32l73.72-3.57v-.13C171.61,167.17,183.36,152.34,183.36,134.26Z"/><path class="cls-28" d="M47.17,203.55c-24.12,0-43.67,5.6-43.67,12.5,0,3.56,5.2,6.76,13.53,9-5.23-1.56-8.35-3.54-8.35-5.69,0-5.05,17.24-9.15,38.5-9.15s38.5,4.1,38.5,9.15c0,2.15-3.13,4.13-8.35,5.69,8.33-2.28,13.53-5.48,13.53-9C90.84,209.14,71.29,203.55,47.17,203.55Z"/><path class="cls-28" d="M44.81,228.53h0Z"/><path class="cls-28" d="M49.53,228.53h0Z"/><ellipse class="cls-71" cx="47.17" cy="219.4" rx="38.5" ry="9.15"/><ellipse class="cls-10" cx="47.17" cy="218.17" rx="33.32" ry="7.92"/><path class="cls-69" d="M20.81,112.24c-4,6.94-5.5,13.42-7,12.57S12,116.36,16,109.42,26.86,98.85,28.34,99.7,24.82,105.31,20.81,112.24Z"/><path class="cls-69" d="M4.34,216.67s0-3.33,5.67-5.83,23.25-6,29.58-6.17v1.83S8.42,208.34,4.34,216.67Z"/><polygon class="cls-69" points="10.67 126.25 10.67 208.33 13.85 207 12.81 126.25 10.67 126.25"/><path class="cls-71" d="M227.4,82.47A67,67,0,0,1,138,176,67,67,0,1,0,227.4,82.47Z"/><circle class="cls-69" cx="166.5" cy="85.06" r="5.56"/><circle id="_楕円形_10" data-name="&lt;楕円形&gt;" class="cls-72" cx="200.17" cy="142.26" r="74"/></g><g id="レイヤー_1-2" data-name="レイヤー 1"><ellipse class="cls-65" cx="289.92" cy="150.04" rx="34.75" ry="77.75"/><ellipse class="cls-73" cx="285.42" cy="150.04" rx="34.75" ry="77.75"/><path class="cls-74" d="M285.42,228.29c-19.44,0-35.25-35.1-35.25-78.25S266,71.79,285.42,71.79s35.25,35.1,35.25,78.25S304.86,228.29,285.42,228.29Zm0-155.5c-18.89,0-34.25,34.65-34.25,77.25s15.36,77.25,34.25,77.25,34.25-34.65,34.25-77.25S304.31,72.79,285.42,72.79Z"/><path id="_クリッピングパス_19" data-name="&lt;クリッピングパス&gt;" class="cls-4" d="M269.05,114.36a21.62,21.62,0,0,0-2.56.16l-25.12-1.78c6.93,14.11,4.29,33.49,4.29,48.63A64.58,64.58,0,0,1,241,184.93l30.3-1.57v-.13c13.93-1.46,24.88-16.28,24.88-34.37C296.19,129.81,284,114.36,269.05,114.36Z"/><g class="cls-75"><path id="_パス_9" data-name="&lt;パス&gt;" class="cls-63" d="M269.05,71.86a21.62,21.62,0,0,0-2.56.16l-25.12-1.78c6.93,14.11,4.29,33.49,4.29,48.63A64.58,64.58,0,0,1,241,142.43l30.3-1.57v-.13c13.93-1.46,24.88-16.28,24.88-34.37C296.19,87.31,284,71.86,269.05,71.86Z"/></g><path id="_クリッピングパス_20" data-name="&lt;クリッピングパス&gt;" class="cls-76" d="M269.05,114.36a21.62,21.62,0,0,0-2.56.16l-25.12-1.78c6.93,14.11,4.29,33.49,4.29,48.63A64.58,64.58,0,0,1,241,184.93l30.3-1.57v-.13c13.93-1.46,24.88-16.28,24.88-34.37C296.19,129.81,284,114.36,269.05,114.36Z"/><g class="cls-14"><g class="cls-14"><g class="cls-77"><g class="cls-14"><path class="cls-78" d="M179.81,33.86l-.16,17.79a1.49,1.49,0,0,0-.1-.55l.16-17.79a1.49,1.49,0,0,1,.1.55"/></g></g></g><g class="cls-14"><g class="cls-79"><g class="cls-14"><path class="cls-80" d="M223.4,33.28l-.16,17.79s0,.09,0,.13l.16-17.79s0-.09,0-.13"/><path class="cls-81" d="M223.39,33.41l-.16,17.79v0l.16-17.79v0"/></g></g></g><g class="cls-14"><g class="cls-82"><g class="cls-14"><path class="cls-78" d="M178.71,53.24l-3.85,3.64a1.79,1.79,0,0,0,.49-2.11l4.21-3.66c.27.72,0,1.44-.84,2.13"/></g></g></g><g class="cls-14"><g class="cls-83"><g class="cls-14"><path class="cls-78" d="M223.23,51.07l4,3.65a2.07,2.07,0,0,0,.68,1.83l-3.77-3.67a2.07,2.07,0,0,1-.94-1.81"/></g></g></g><g class="cls-14"><g class="cls-84"><g class="cls-14"><path class="cls-85" d="M163.89,25.71l-1.71,2.95h-.63l1.63-3h.71"/><path class="cls-86" d="M163.18,25.7l-1.63,3h-1.78l1.5-3h1.91"/><path class="cls-87" d="M161.27,25.7l-1.5,3-1.84.06,1.5-3,1.84,0"/><path class="cls-88" d="M159.42,25.73l-1.5,3q-1,0-2,.12l1.62-3,1.86-.09"/><path class="cls-89" d="M157.56,25.82l-1.62,3c-.84.07-1.67.15-2.47.25L155.39,26q1-.12,2.17-.19"/><path class="cls-90" d="M155.39,26l-1.92,3.07a36.13,36.13,0,0,0-5.37,1l-.45.13,3.06-3.33.35-.1a26.74,26.74,0,0,1,4.33-.81"/><path class="cls-89" d="M150.71,26.93l-3.06,3.33a17,17,0,0,0-1.68.61l3.42-3.47a13.31,13.31,0,0,1,1.31-.47"/><path class="cls-88" d="M149.4,27.41,146,30.87a10.46,10.46,0,0,0-1,.47l3.64-3.57a8.15,8.15,0,0,1,.76-.37"/><path class="cls-87" d="M148.65,27.77,145,31.34a6.79,6.79,0,0,0-.67.42l3.78-3.66a5.27,5.27,0,0,1,.52-.33"/><path class="cls-86" d="M148.12,28.1l-3.78,3.66a4.45,4.45,0,0,0-.47.39l3.88-3.75a3.48,3.48,0,0,1,.37-.31"/><polyline class="cls-85" points="147.75 28.41 143.87 32.16 143.86 32.16 147.75 28.42 147.75 28.41"/></g></g></g><g class="cls-14"><g class="cls-91"><g class="cls-14"><path class="cls-78" d="M255.55,28.6l3.82,3.82a4.48,4.48,0,0,0-.5-.43l-3.71-3.73a3.52,3.52,0,0,1,.39.34"/><path class="cls-92" d="M255.15,28.26,258.86,32a8,8,0,0,0-1.22-.73l-3.44-3.57a6.23,6.23,0,0,1,1,.57"/><path class="cls-93" d="M254.2,27.69l3.44,3.57q-.53-.26-1.18-.51l-3.18-3.45q.51.19.93.4"/><path class="cls-94" d="M253.27,27.29l3.18,3.45q-.55-.21-1.18-.4L252.35,27q.49.15.92.32"/><path class="cls-81" d="M252.35,27l2.92,3.37-1.05-.3-.11,0-2.67-3.29.09,0,.82.24"/><path class="cls-80" d="M251.44,26.72,254.11,30,253,29.74l-2.42-3.23.89.21"/><path class="cls-95" d="M250.55,26.5,253,29.74l-1.09-.23-2.19-3.18.86.18"/><path class="cls-96" d="M249.69,26.33l2.19,3.18-1.07-.19-2-3.14.86.15"/><path class="cls-97" d="M248.83,26.18l2,3.14-1.07-.17L248,26l.88.13"/><path class="cls-98" d="M248,26l1.78,3.1L248.64,29,247,25.94,248,26"/><path class="cls-99" d="M247,25.94,248.64,29l-1.13-.12-1.45-3,1,.1"/><path class="cls-100" d="M246.07,25.84l1.45,3-1.19-.11-1.31-3,1.05.08"/><path class="cls-101" d="M245,25.76l1.31,3-1.27-.09-1.21-3,1.17.07"/><path class="cls-102" d="M243.85,25.7l1.21,3-1.39-.07-1.15-3,1.33,0"/><path class="cls-85" d="M242.52,25.65l1.15,3-1.54,0-1.16-3,1.55,0"/><path class="cls-86" d="M241,25.62l1.16,3H240.4l-1.29-2.95H241"/><path class="cls-87" d="M239.12,25.63l1.29,2.95h-.61l-1.36-2.95h.69"/></g></g></g><g class="cls-14"><g class="cls-103"><g class="cls-14"><path class="cls-97" d="M162.18,28.66,162,46.45h-1.15L161,28.65h1.15"/><path class="cls-98" d="M161,28.65l-.16,17.79h-1.49l.16-17.79H161"/><path class="cls-99" d="M159.53,28.66l-.16,17.79-1.62.05.16-17.79,1.62-.05"/><path class="cls-100" d="M157.91,28.72l-.16,17.79-1.85.11.16-17.79,1.85-.11"/><path class="cls-101" d="M156.06,28.83l-.16,17.79c-.83.06-1.65.14-2.45.24l.16-17.79c.8-.1,1.61-.18,2.45-.24"/><path class="cls-102" d="M153.62,29.07l-.16,17.79a36.41,36.41,0,0,0-5.51,1.06l-.26.08.16-17.79.26-.08a36.41,36.41,0,0,1,5.51-1.06"/><path class="cls-101" d="M147.84,30.21,147.68,48q-.91.27-1.64.57l.16-17.79q.73-.3,1.64-.57"/><path class="cls-100" d="M146.2,30.78,146,48.58q-.52.21-1,.44l.16-17.79q.43-.22,1-.44"/><path class="cls-99" d="M145.24,31.22,145.08,49a7.77,7.77,0,0,0-.69.4l.16-17.79a7.77,7.77,0,0,1,.69-.4"/><path class="cls-98" d="M144.56,31.62l-.16,17.79a5.22,5.22,0,0,0-.51.38L144,32a5.22,5.22,0,0,1,.51-.38"/><path class="cls-97" d="M144,32l-.16,17.79a3.54,3.54,0,0,0-.38.37l.16-17.79A3.53,3.53,0,0,1,144,32"/><path class="cls-96" d="M143.67,32.36l-.16,17.79a2.45,2.45,0,0,0-.27.37l.16-17.79a2.44,2.44,0,0,1,.27-.37"/><path class="cls-95" d="M143.4,32.73l-.16,17.79a1.78,1.78,0,0,0-.17.37l.16-17.79a1.78,1.78,0,0,1,.17-.37"/><path class="cls-80" d="M143.23,33.1l-.16,17.79a1.45,1.45,0,0,0-.07.38l.16-17.79a1.45,1.45,0,0,1,.07-.38"/><path class="cls-81" d="M143.17,33.48,143,51.28v0l.16-17.79v0"/></g></g></g><g class="cls-14"><g class="cls-104"><g class="cls-14"><path class="cls-78" d="M162,46.45l1.64,5.21c-5.83-.11-9.87.27-12.82,1.12-3.54,1-4.63,2.43-3.34,3.72l-3.82-3.82c-1.65-1.65-.26-3.47,4.27-4.76A51,51,0,0,1,162,46.45"/></g></g></g><g class="cls-14"><g class="cls-105"><g class="cls-14"><path class="cls-78" d="M260,33.79l-.16,17.79c0-1.35-1.94-2.72-5.81-3.75q-.67-.18-1.38-.33l.16-17.79q.71.16,1.38.33c3.87,1,5.82,2.39,5.81,3.75"/><path class="cls-92" d="M252.84,29.71l-.16,17.79c-.58-.13-1.19-.24-1.81-.35L251,29.36q.93.16,1.81.35"/><path class="cls-93" d="M251,29.36l-.16,17.79-1.53-.24.16-17.79,1.53.24"/><path class="cls-94" d="M249.5,29.12l-.16,17.79-1.42-.18.16-17.79,1.42.18"/><path class="cls-81" d="M248.08,28.94l-.16,17.79-1.36-.13.16-17.79,1.36.13"/><path class="cls-80" d="M246.72,28.81l-.16,17.79-1.34-.1.16-17.79,1.34.1"/><path class="cls-95" d="M245.38,28.71l-.16,17.79-1.35-.07L244,28.64l1.35.07"/><path class="cls-96" d="M244,28.64l-.16,17.79-1.37,0,.16-17.79,1.37,0"/><path class="cls-97" d="M242.66,28.59l-.16,17.79-1.42,0,.16-17.79,1.42,0"/><path class="cls-98" d="M241.24,28.58l-.16,17.79h-1.45l.16-17.79h1.45"/></g></g></g><g class="cls-14"><g class="cls-106"><g class="cls-14"><path class="cls-78" d="M259.18,52.94l-3.89,3.75c1.41-1.36.05-2.92-4-4-3.15-.84-7.29-1.21-13.1-1.1l1.44-5.22a55.09,55.09,0,0,1,14.43,1.45c5.19,1.38,6.93,3.36,5.12,5.11"/></g></g></g><polygon class="cls-90" points="188.98 18.54 183.29 22.62 162.18 28.66 163.89 25.71 188.98 18.54"/><polygon class="cls-107" points="238.42 25.64 239.79 28.59 217.21 22.59 211.6 18.52 238.42 25.64"/><polygon class="cls-108" points="183.29 22.62 183.13 40.42 162.01 46.45 162.18 28.66 183.29 22.62"/><polygon class="cls-65" points="239.79 28.59 239.63 46.38 217.05 40.39 217.21 22.59 239.79 28.59"/><polygon class="cls-109" points="183.13 40.42 188.74 44.49 163.65 51.67 162.01 46.45 183.13 40.42"/><polygon class="cls-110" points="239.63 46.38 238.19 51.6 211.36 44.47 217.05 40.39 239.63 46.38"/><polygon class="cls-107" points="199.91 15.41 199.68 17.93 177.1 11.94 173.08 8.29 199.91 15.41"/><polygon class="cls-90" points="224.99 8.24 220.78 11.9 199.68 17.93 199.91 15.41 224.99 8.24"/><polygon class="cls-65" points="199.68 17.93 199.52 35.73 176.94 29.73 177.1 11.94 199.68 17.93"/><polygon class="cls-110" points="199.52 35.73 199.67 41.37 172.84 34.24 176.94 29.73 199.52 35.73"/><polygon class="cls-109" points="220.62 29.7 224.75 34.2 199.67 41.37 199.52 35.73 220.62 29.7"/><polygon class="cls-5" points="220.78 11.9 220.62 29.7 199.52 35.73 199.68 17.93 220.78 11.9"/><g class="cls-14"><g class="cls-111"><g class="cls-14"><path class="cls-90" d="M148.36,4.74,145.4,8l-.45.13L148,4.84l.35-.1"/><path class="cls-89" d="M148,4.84,145,8.17a17,17,0,0,0-1.68.61l3.42-3.47A13.3,13.3,0,0,1,148,4.84"/><path class="cls-88" d="M146.7,5.31l-3.42,3.47a10.49,10.49,0,0,0-1,.47l3.64-3.57a8.14,8.14,0,0,1,.76-.37"/><path class="cls-87" d="M145.94,5.68l-3.64,3.57a6.79,6.79,0,0,0-.67.42L145.42,6a5.27,5.27,0,0,1,.52-.33"/><path class="cls-86" d="M145.42,6l-3.78,3.66a4.45,4.45,0,0,0-.47.39L145,6.32a3.48,3.48,0,0,1,.37-.31"/><polyline class="cls-85" points="145.05 6.32 141.16 10.06 141.15 10.07 145.04 6.32 145.05 6.32"/></g></g></g><g class="cls-14"><g class="cls-112"><g class="cls-14"><path class="cls-78" d="M145.24,25.83l2.88,4.86c-3.54,1-4.63,2.43-3.34,3.72L141,30.6c-1.65-1.65-.26-3.47,4.27-4.76"/></g></g></g><g class="cls-14"><g class="cls-113"><g class="cls-14"><path class="cls-102" d="M145.4,8l-.16,17.79-.26.08.16-17.79L145.4,8"/><path class="cls-101" d="M145.14,8.12,145,25.91q-.91.27-1.64.57l.16-17.79q.73-.3,1.64-.57"/><path class="cls-100" d="M143.5,8.69l-.16,17.79q-.52.21-1,.44l.16-17.79q.43-.22,1-.44"/><path class="cls-99" d="M142.54,9.13l-.16,17.79a7.77,7.77,0,0,0-.69.4l.16-17.79a7.78,7.78,0,0,1,.69-.4"/><path class="cls-98" d="M141.85,9.52l-.16,17.79a5.22,5.22,0,0,0-.51.38l.16-17.79a5.22,5.22,0,0,1,.51-.38"/><path class="cls-97" d="M141.34,9.9l-.16,17.79a3.53,3.53,0,0,0-.38.37L141,10.27a3.53,3.53,0,0,1,.38-.37"/><path class="cls-96" d="M141,10.27l-.16,17.79a2.44,2.44,0,0,0-.27.37l.16-17.79a2.44,2.44,0,0,1,.27-.37"/><path class="cls-95" d="M140.7,10.64l-.16,17.79a1.78,1.78,0,0,0-.17.37L140.53,11a1.78,1.78,0,0,1,.17-.37"/><path class="cls-80" d="M140.53,11l-.16,17.79a1.45,1.45,0,0,0-.07.38l.16-17.79a1.45,1.45,0,0,1,.07-.38"/><path class="cls-81" d="M140.46,11.39l-.16,17.79v0l.16-17.79v0"/></g></g></g><g class="cls-14"><g class="cls-114"><g class="cls-14"><path class="cls-78" d="M172.58,6.65l3.82,3.69a4.7,4.7,0,0,0-.52-.43l-3.7-3.65a3.2,3.2,0,0,1,.4.38"/><path class="cls-92" d="M172.18,6.27l3.7,3.65a8.24,8.24,0,0,0-1.24-.72l-3.42-3.54a5.32,5.32,0,0,1,1,.61"/><path class="cls-93" d="M171.22,5.65l3.42,3.54q-.52-.25-1.16-.49l-3.17-3.45a9.48,9.48,0,0,1,.9.4"/><path class="cls-94" d="M170.32,5.26l3.17,3.45q-.53-.2-1.13-.39L169.43,5q.47.15.88.31"/><path class="cls-81" d="M169.43,5l2.92,3.37-1-.3-.11,0-2.67-3.29.09,0,.81.23"/><path class="cls-80" d="M168.53,4.69,171.2,8,170,7.71l-2.42-3.23.9.22"/><path class="cls-95" d="M167.63,4.48,170,7.71l-1.15-.24-2.17-3.18.9.18"/><path class="cls-96" d="M166.73,4.29l2.17,3.18-1.14-.2-1.92-3.14.89.16"/><path class="cls-97" d="M165.84,4.13l1.92,3.14L166.6,7.1,164.94,4l.9.14"/><path class="cls-98" d="M164.94,4l1.67,3.1-1.17-.15L164,3.88l.92.12"/><path class="cls-99" d="M164,3.88l1.41,3.07-1.2-.12-1.15-3,.94.1"/><path class="cls-100" d="M163.08,3.78l1.15,3L163,6.72l-.88-3,1,.08"/><path class="cls-101" d="M162.12,3.7l.88,3-1.28-.08-.6-3,1,.06"/><path class="cls-102" d="M161.12,3.64l.6,3-1.34-.06-.31-3,1,0"/><path class="cls-85" d="M160.07,3.6l.31,3-1.42,0v-3l1.11,0"/><path class="cls-86" d="M159,3.57v3h-1.53l.34-3H159"/><path class="cls-87" d="M157.76,3.57l-.34,3-1.69,0,.7-3,1.32,0"/><path class="cls-88" d="M156.44,3.61l-.7,3q-1,0-2,.1l1.13-3,1.53-.08"/><path class="cls-89" d="M154.91,3.69l-1.13,3c-.88.06-1.75.14-2.6.24l1.7-3.07c.66-.08,1.34-.14,2-.19"/><path class="cls-90" d="M152.88,3.88l-1.7,3.07A37,37,0,0,0,145.4,8l3-3.31a28.93,28.93,0,0,1,4.52-.86"/></g></g></g><g class="cls-14"><g class="cls-115"><g class="cls-14"><path class="cls-78" d="M252.85,6.5l3.82,3.82a4.48,4.48,0,0,0-.5-.43l-3.71-3.73a3.5,3.5,0,0,1,.39.34"/><path class="cls-92" d="M252.46,6.17l3.71,3.73a8,8,0,0,0-1.22-.73L251.5,5.6a6.21,6.21,0,0,1,1,.57"/><path class="cls-93" d="M251.5,5.6l3.44,3.57q-.53-.26-1.18-.51L250.58,5.2q.51.19.93.4"/><path class="cls-94" d="M250.58,5.2l3.18,3.45q-.55-.21-1.18-.4l-2.92-3.37q.49.15.92.32"/><path class="cls-81" d="M249.66,4.88l2.92,3.37-1.05-.3-.11,0-2.67-3.29.09,0,.82.24"/><path class="cls-80" d="M248.74,4.62l2.67,3.29-1.16-.28L247.84,4.4l.9.22"/><path class="cls-95" d="M247.84,4.4l2.42,3.23-1.15-.24-2.17-3.18.9.18"/><path class="cls-96" d="M246.95,4.22l2.17,3.18L248,7.2l-1.92-3.14.89.16"/><path class="cls-97" d="M246.05,4.06,248,7.2,246.82,7l-1.67-3.1.9.14"/><path class="cls-98" d="M245.15,3.93,246.82,7l-1.17-.15-1.41-3.07.92.12"/><path class="cls-99" d="M244.24,3.81l1.41,3.07-1.2-.12-1.15-3,.94.1"/><path class="cls-100" d="M243.3,3.71l1.15,3-1.24-.1-.88-3,1,.08"/><path class="cls-101" d="M242.33,3.63l.88,3-1.28-.08-.6-3,1,.06"/><path class="cls-102" d="M241.33,3.57l.6,3-1.34-.06-.31-3,1,0"/><path class="cls-85" d="M240.28,3.53l.31,3-1.42,0v-3l1.11,0"/><path class="cls-86" d="M239.17,3.5v3h-1.53l.34-3h1.2"/><path class="cls-87" d="M238,3.5l-.34,3-1.69,0,.7-3,1.32,0"/><path class="cls-88" d="M236.65,3.54l-.7,3q-1,0-2,.1l1.13-3,1.53-.08"/><path class="cls-89" d="M235.12,3.62l-1.13,3c-.88.06-1.75.14-2.6.24l1.7-3.07c.66-.08,1.34-.14,2-.19"/><path class="cls-90" d="M233.09,3.81l-1.7,3.07A37,37,0,0,0,225.62,8l-.48.14,3.06-3.34.38-.11a28.93,28.93,0,0,1,4.52-.86"/><path class="cls-89" d="M228.2,4.78l-3.06,3.34q-.89.27-1.6.58L227,5.23a12.21,12.21,0,0,1,1.24-.45"/><path class="cls-88" d="M227,5.23l-3.41,3.46q-.5.21-.92.44l3.62-3.54a7.12,7.12,0,0,1,.71-.35"/><path class="cls-87" d="M226.24,5.59l-3.62,3.54a7.18,7.18,0,0,0-.65.39l3.77-3.6a4.59,4.59,0,0,1,.5-.33"/><path class="cls-86" d="M225.75,5.91,222,9.52a4.87,4.87,0,0,0-.48.37l3.89-3.65a3.13,3.13,0,0,1,.36-.32"/><path class="cls-85" d="M225.38,6.23,221.5,9.89l-.08.07,3.91-3.66.06-.06"/></g></g></g><path class="cls-55" d="M148.13,30.69c5.4-1.55,14.48-1.55,20.26,0,3.16.84,4.67,2,4.46,3.57l26.83,7.13,25.08-7.17c-.6-1.6.63-2.73,3.59-3.57,5.4-1.55,14.48-1.55,20.26,0s6.09,4,.68,5.58c-3,.84-7,1.22-12.84,1.12l-25.08,7.17,26.83,7.13c5.81-.12,9.95.26,13.1,1.1,5.78,1.53,6.09,4,.68,5.58s-14.48,1.55-20.26,0c-3.15-.84-4.66-2-4.45-3.57L200.43,47.6l-25.09,7.17c.61,1.6-.63,2.73-3.57,3.57-5.4,1.55-14.48,1.55-20.26,0s-6.09-4-.68-5.58c2.95-.84,7-1.23,12.82-1.12l25.09-7.17-26.83-7.13c-5.82.12-10-.26-13.11-1.09C143,34.74,142.72,32.24,148.13,30.69Z"/><path class="cls-55" d="M148.13,30.69c5.4-1.55,14.48-1.55,20.26,0,3.16.84,4.67,2,4.46,3.57l26.83,7.13,25.08-7.17c-.6-1.6.63-2.73,3.59-3.57,5.4-1.55,14.48-1.55,20.26,0s6.09,4,.68,5.58c-3,.84-7,1.22-12.84,1.12l-25.08,7.17,26.83,7.13c5.81-.12,9.95.26,13.1,1.1,5.78,1.53,6.09,4,.68,5.58s-14.48,1.55-20.26,0c-3.15-.84-4.66-2-4.45-3.57L200.43,47.6l-25.09,7.17c.61,1.6-.63,2.73-3.57,3.57-5.4,1.55-14.48,1.55-20.26,0s-6.09-4-.68-5.58c2.95-.84,7-1.23,12.82-1.12l25.09-7.17-26.83-7.13c-5.82.12-10-.26-13.11-1.09C143,34.74,142.72,32.24,148.13,30.69Z"/><g class="cls-14"><g class="cls-116"><g class="cls-14"><path class="cls-78" d="M177.12,11.77,177,29.56c0-1.35-1.92-2.72-5.8-3.75q-.66-.18-1.37-.33l.16-17.79q.71.16,1.37.33c3.88,1,5.81,2.4,5.8,3.75"/><path class="cls-92" d="M169.94,7.69l-.16,17.79c-.58-.13-1.19-.25-1.81-.35l.16-17.79c.62.11,1.23.22,1.81.35"/><path class="cls-93" d="M168.13,7.33,168,25.13l-1.55-.24.16-17.79,1.55.24"/><path class="cls-94" d="M166.58,7.09l-.16,17.79L165,24.71l.16-17.79,1.42.18"/><path class="cls-81" d="M165.16,6.92,165,24.71l-1.36-.13.16-17.79,1.36.13"/><path class="cls-80" d="M163.79,6.79l-.16,17.79-1.34-.1.16-17.79,1.34.1"/><path class="cls-95" d="M162.45,6.68l-.16,17.79L161,24.41l.16-17.79,1.34.07"/><path class="cls-96" d="M161.11,6.61,161,24.41l-1.37,0,.16-17.79,1.37,0"/><path class="cls-97" d="M159.75,6.57l-.16,17.79-1.41,0,.16-17.79,1.41,0"/><path class="cls-98" d="M158.34,6.55l-.16,17.79h-1.49l.16-17.79h1.49"/><path class="cls-99" d="M156.85,6.57l-.16,17.79-1.62.05.16-17.79,1.62-.05"/><path class="cls-100" d="M155.23,6.62l-.16,17.79-1.87.11.16-17.79,1.87-.11"/><path class="cls-101" d="M153.35,6.73l-.16,17.79c-.84.06-1.66.15-2.46.24L150.9,7c.8-.1,1.62-.18,2.46-.24"/><path class="cls-102" d="M150.9,7l-.16,17.79a36.48,36.48,0,0,0-5.49,1.06L145.4,8A36.48,36.48,0,0,1,150.9,7"/></g></g></g><g class="cls-14"><g class="cls-117"><g class="cls-14"><path class="cls-78" d="M176.94,29.73l-4.1,4.51c.21-1.61-1.3-2.73-4.46-3.57-5.78-1.54-14.86-1.53-20.26,0l-2.88-4.86c6.91-2,18.52-2,25.91,0,4,1.07,6,2.51,5.79,3.92"/></g></g></g><g class="cls-14"><g class="cls-118"><g class="cls-14"><path class="cls-78" d="M257.34,11.69l-.16,17.79c0-1.35-1.94-2.72-5.81-3.75q-.66-.18-1.37-.33l.16-17.79q.71.16,1.37.33c3.87,1,5.82,2.4,5.81,3.75"/><path class="cls-92" d="M250.16,7.62,250,25.41q-.88-.19-1.81-.35l.16-17.79q.93.16,1.81.35"/><path class="cls-93" d="M248.35,7.26l-.16,17.79-1.55-.24L246.79,7l1.55.24"/><path class="cls-94" d="M246.79,7l-.16,17.79-1.42-.18.16-17.79,1.42.18"/><path class="cls-81" d="M245.37,6.85l-.16,17.79-1.36-.13L244,6.71l1.36.13"/><path class="cls-80" d="M244,6.71l-.16,17.79-1.34-.1.16-17.79,1.34.1"/><path class="cls-95" d="M242.67,6.61l-.16,17.79-1.34-.07.16-17.79,1.34.07"/><path class="cls-96" d="M241.33,6.54l-.16,17.79-1.37,0L240,6.5l1.37,0"/><path class="cls-97" d="M240,6.5l-.16,17.79-1.41,0,.16-17.79,1.41,0"/><path class="cls-98" d="M238.55,6.48l-.16,17.79H236.9l.16-17.79h1.49"/><path class="cls-99" d="M237.06,6.49l-.16,17.79-1.62.05.16-17.79,1.62-.05"/><path class="cls-100" d="M235.44,6.55l-.16,17.79-1.87.11.16-17.79,1.87-.11"/><path class="cls-101" d="M233.57,6.66l-.16,17.79c-.84.06-1.66.15-2.46.24l.16-17.79c.8-.1,1.62-.18,2.46-.24"/><path class="cls-102" d="M231.11,6.91l-.16,17.79a36.48,36.48,0,0,0-5.49,1.06l-.29.08.16-17.79.29-.08a36.49,36.49,0,0,1,5.49-1.06"/><path class="cls-101" d="M225.33,8.05l-.16,17.79q-.89.27-1.61.56l.16-17.79q.72-.29,1.61-.56"/><path class="cls-100" d="M223.72,8.62l-.16,17.79q-.53.21-1,.44l.16-17.79q.43-.23,1-.44"/><path class="cls-99" d="M222.75,9.06l-.16,17.79a7.71,7.71,0,0,0-.68.4l.16-17.79a7.71,7.71,0,0,1,.68-.4"/><path class="cls-98" d="M222.07,9.45l-.16,17.79a5.2,5.2,0,0,0-.51.38l.16-17.79a5.2,5.2,0,0,1,.51-.38"/><path class="cls-97" d="M221.57,9.83l-.16,17.79A3.52,3.52,0,0,0,221,28l.16-17.79a3.54,3.54,0,0,1,.38-.37"/><path class="cls-96" d="M221.19,10.19,221,28a2.44,2.44,0,0,0-.27.37l.16-17.79a2.45,2.45,0,0,1,.27-.37"/><path class="cls-95" d="M220.92,10.56l-.16,17.79a1.79,1.79,0,0,0-.17.37l.16-17.79a1.78,1.78,0,0,1,.17-.37"/><path class="cls-80" d="M220.75,10.93l-.16,17.79a1.46,1.46,0,0,0-.07.38l.16-17.79a1.46,1.46,0,0,1,.07-.38"/><path class="cls-81" d="M220.69,11.32l-.16,17.79v0l.16-17.79v0"/></g></g></g><g class="cls-14"><g class="cls-119"><g class="cls-14"><path class="cls-78" d="M256.49,30.85,252.6,34.6c1.41-1.36.05-2.92-4-4-5.78-1.54-14.86-1.53-20.26,0-3,.84-4.19,2-3.59,3.57l-4.13-4.5c-.53-1.41,1.05-2.85,4.83-3.93,6.91-2,18.52-2,25.91,0,5.19,1.38,6.93,3.36,5.12,5.11"/></g></g></g></g><path id="_クリッピングパス_21" data-name="&lt;クリッピングパス&gt;" class="cls-4" d="M212.17,75.76V47.29H212c-1-1.78-6.51-3.14-13.15-3.14s-12.13,1.36-13.15,3.14h-.18V75.76Z"/><g class="cls-62"><path id="_パス_10" data-name="&lt;パス&gt;" class="cls-63" d="M210.69,74.1V45.63h-.16c-.91-1.78-5.82-3.15-11.76-3.15S187.91,43.85,187,45.63h-.16V74.1Z"/><g class="cls-61"><path id="_パス_11" data-name="&lt;パス&gt;" class="cls-4" d="M210.69,74.1V45.63h-.16c-.91-1.78-5.82-3.15-11.76-3.15S187.91,43.85,187,45.63h-.16V74.1Z"/><path class="cls-4" d="M210.69,45.63h-.16c-.9-1.76-5.69-3.11-11.53-3.14V74.1h11.69Z"/></g><path id="_クリッピングパス_22" data-name="&lt;クリッピングパス&gt;" class="cls-4" d="M212.17,75.76V47.29H212c-1-1.78-6.51-3.14-13.15-3.14s-12.13,1.36-13.15,3.14h-.18V75.76Z"/><g class="cls-62"><path id="_パス_12" data-name="&lt;パス&gt;" class="cls-63" d="M210.69,74.1V45.63h-.16c-.91-1.78-5.82-3.15-11.76-3.15S187.91,43.85,187,45.63h-.16V74.1Z"/><path class="cls-4" d="M210.69,45.63h-.16c-.9-1.76-5.69-3.11-11.53-3.14V74.1h11.69Z"/></g></g><g class="cls-64"><circle id="_楕円形_11" data-name="&lt;楕円形&gt;" class="cls-65" cx="205.27" cy="142.26" r="74"/></g><circle id="_楕円形_12" data-name="&lt;楕円形&gt;" class="cls-5" cx="200.17" cy="142.26" r="74"/><g class="cls-120"><circle id="_楕円形_13" data-name="&lt;楕円形&gt;" class="cls-4" cx="205.27" cy="142.26" r="74"/></g><circle id="_楕円形_14" data-name="&lt;楕円形&gt;" class="cls-76" cx="200.17" cy="142.26" r="74"/><circle class="cls-63" cx="198.84" cy="137.29" r="65"/><path id="_クリッピングパス_23" data-name="&lt;クリッピングパス&gt;" class="cls-67" d="M183.36,134.26c0-19.05-13-34.5-29.1-34.5a24.87,24.87,0,0,0-2.75.16L49.09,93.13C27.7,90,8.67,107.1,8.67,131.59v88.67l.87-.13c3.71,6.11,19.3,9.63,37.55,8,16.31-1.42,32.91-3.63,37.58-8.08,1.21-1.15-1.72-10.62-1.72-10.62V172.32l73.72-3.57v-.13C171.61,167.17,183.36,152.34,183.36,134.26Z"/><g class="cls-121"><path id="_パス_13" data-name="&lt;パス&gt;" class="cls-122" d="M217.36,144.26c0-19.05-13-34.5-29.1-34.5a24.87,24.87,0,0,0-2.75.16L83.09,103.13c-21.39-3.11-40.42,14-40.42,38.46v88.67l.87-.13c3.71,6.11,19.3,9.63,37.55,8,16.31-1.42,32.91-3.63,37.58-8.08,1.21-1.15-1.72-10.62-1.72-10.62V182.32l73.72-3.57v-.13C205.61,177.17,217.36,162.34,217.36,144.26Z"/><path id="_パス_14" data-name="&lt;パス&gt;" class="cls-90" d="M212.43,139.26c0-19.05-13-34.5-29.1-34.5a24.87,24.87,0,0,0-2.75.16L78.16,98.13c-21.39-3.11-40.42,14-40.42,38.46v88.67l.87-.13c3.71,6.11,19.3,9.63,37.55,8,16.31-1.42,32.91-3.63,37.58-8.08,1.21-1.15-1.72-10.62-1.72-10.62V177.32l73.72-3.57v-.13C200.69,172.17,212.43,157.34,212.43,139.26Z"/><path id="_パス_15" data-name="&lt;パス&gt;" class="cls-4" d="M215.36,141.26c0-19.05-13-34.5-29.1-34.5a24.87,24.87,0,0,0-2.75.16L81.09,100.13C59.7,97,40.67,114.1,40.67,138.59v88.67l.87-.13c3.71,6.11,19.3,9.63,37.55,8,16.31-1.42,32.91-3.63,37.58-8.08,1.21-1.15-1.72-10.62-1.72-10.62V179.32l73.72-3.57v-.13C203.61,174.17,215.36,159.34,215.36,141.26Z"/><path class="cls-65" d="M57.66,203.91V142.07a11.87,11.87,0,0,1,5.71-10.16c4-2.45,9.44-5.16,13.56-5.16h111l-11.5,51.5-92.25,56.5L57.66,203.91"/><path class="cls-55" d="M82.67,134.76,83,172.32l82.22-3.57s32-28.33,31.67-33S82.67,134.76,82.67,134.76Z"/></g><path id="_クリッピングパス_24" data-name="&lt;クリッピングパス&gt;" class="cls-123" d="M183.36,134.26c0-19.05-13-34.5-29.1-34.5a24.87,24.87,0,0,0-2.75.16L49.09,93.13C27.7,90,8.67,107.1,8.67,131.59v88.67l.87-.13c3.71,6.11,19.3,9.63,37.55,8,16.31-1.42,32.91-3.63,37.58-8.08,1.21-1.15-1.72-10.62-1.72-10.62V172.32l73.72-3.57v-.13C171.61,167.17,183.36,152.34,183.36,134.26Z"/><path class="cls-124" d="M47.17,203.55c-24.12,0-43.67,5.6-43.67,12.5,0,3.56,5.2,6.76,13.53,9-5.23-1.56-8.35-3.54-8.35-5.69,0-5.05,17.24-9.15,38.5-9.15s38.5,4.1,38.5,9.15c0,2.15-3.13,4.13-8.35,5.69,8.33-2.28,13.53-5.48,13.53-9C90.84,209.14,71.29,203.55,47.17,203.55Z"/><path class="cls-90" d="M44.81,228.53h0Z"/><path class="cls-90" d="M49.53,228.53h0Z"/><ellipse class="cls-125" cx="47.17" cy="219.4" rx="38.5" ry="9.15"/><ellipse class="cls-126" cx="47.17" cy="218.17" rx="33.32" ry="7.92"/><path class="cls-122" d="M20.81,112.24c-4,6.94-5.5,13.42-7,12.57S12,116.36,16,109.42,26.86,98.85,28.34,99.7,24.82,105.31,20.81,112.24Z"/><path class="cls-122" d="M4.34,216.67s0-3.33,5.67-5.83,23.25-6,29.58-6.17v1.83S8.42,208.34,4.34,216.67Z"/><polygon class="cls-122" points="10.67 126.25 10.67 208.33 13.85 207 12.81 126.25 10.67 126.25"/><path class="cls-125" d="M227.4,82.47A67,67,0,0,1,138,176,67,67,0,1,0,227.4,82.47Z"/><circle class="cls-122" cx="166.5" cy="85.06" r="5.56"/></g></g></svg>