<svg xmlns="http://www.w3.org/2000/svg" xmlns:xlink="http://www.w3.org/1999/xlink" viewBox="0 0 322.17 235.05"><defs><style>.cls-1,.cls-3{fill:#999;}.cls-1,.cls-11,.cls-4,.cls-5,.cls-65,.cls-66,.cls-68{stroke:#4d4d4d;stroke-miterlimit:10;}.cls-1,.cls-11,.cls-4{stroke-width:3px;}.cls-11,.cls-2,.cls-65{fill:none;}.cls-4,.cls-47{fill:#b3b3b3;}.cls-5,.cls-65,.cls-66{stroke-width:2px;}.cls-5,.cls-62{fill:url(#名称未設定グラデーション_3);}.cls-6,.cls-68{fill:#666;}.cls-7{fill:url(#名称未設定グラデーション_4);}.cls-8{fill:url(#名称未設定グラデーション_3-2);}.cls-9{clip-path:url(#clip-path);}.cls-10{fill:#e6e6e6;}.cls-12{isolation:isolate;}.cls-13{clip-path:url(#clip-path-2);}.cls-14{fill:#828282;}.cls-15{clip-path:url(#clip-path-3);}.cls-16{fill:#969696;}.cls-17{fill:#929292;}.cls-18{clip-path:url(#clip-path-4);}.cls-19{clip-path:url(#clip-path-5);}.cls-20{clip-path:url(#clip-path-6);}.cls-21{fill:#b9b9b9;}.cls-22{fill:#bcbcbc;}.cls-23{fill:silver;}.cls-24{fill:#c4c4c4;}.cls-25{fill:#c8c8c8;}.cls-26,.cls-66{fill:#ccc;}.cls-27{clip-path:url(#clip-path-7);}.cls-28{fill:#868686;}.cls-29{fill:#8a8a8a;}.cls-30{fill:#8e8e8e;}.cls-31{fill:#9a9a9a;}.cls-32{fill:#9d9d9d;}.cls-33{fill:#a1a1a1;}.cls-34{fill:#a5a5a5;}.cls-35{fill:#a9a9a9;}.cls-36{fill:#adadad;}.cls-37{fill:#b1b1b1;}.cls-38{fill:#b5b5b5;}.cls-39{clip-path:url(#clip-path-8);}.cls-40{clip-path:url(#clip-path-9);}.cls-41{clip-path:url(#clip-path-10);}.cls-42{clip-path:url(#clip-path-11);}.cls-43{fill:#959595;}.cls-44{fill:#aeaeae;}.cls-45{fill:#858585;}.cls-46{fill:#7e7e7e;}.cls-48{clip-path:url(#clip-path-12);}.cls-49{clip-path:url(#clip-path-13);}.cls-50{clip-path:url(#clip-path-14);}.cls-51{clip-path:url(#clip-path-15);}.cls-52{clip-path:url(#clip-path-16);}.cls-53{fill:#4d4d4d;}.cls-54{clip-path:url(#clip-path-17);}.cls-55{clip-path:url(#clip-path-18);}.cls-56{clip-path:url(#clip-path-19);}.cls-57{clip-path:url(#clip-path-20);}.cls-58{clip-path:url(#clip-path-21);}.cls-59{clip-path:url(#clip-path-22);}.cls-60{clip-path:url(#clip-path-24);}.cls-61{clip-path:url(#clip-path-25);}.cls-63{clip-path:url(#clip-path-26);}.cls-64{fill:#fff;}.cls-67{fill:gray;}</style><linearGradient id="名称未設定グラデーション_3" x1="19.13" y1="85.09" x2="122.47" y2="197.75" gradientUnits="userSpaceOnUse"><stop offset="0" stop-color="#fff"/><stop offset="0.82" stop-color="#999"/></linearGradient><linearGradient id="名称未設定グラデーション_4" x1="248.17" y1="146.54" x2="317.67" y2="146.54" gradientUnits="userSpaceOnUse"><stop offset="0" stop-color="#fff"/><stop offset="1" stop-color="#999"/></linearGradient><linearGradient id="名称未設定グラデーション_3-2" x1="247.67" y1="146.54" x2="318.17" y2="146.54" xlink:href="#名称未設定グラデーション_3"/><clipPath id="clip-path"><path id="_クリッピングパス_" data-name="&lt;クリッピングパス&gt;" class="cls-1" d="M266.55,110.86A21.62,21.62,0,0,0,264,111l-25.12-1.78c6.93,14.11,4.29,33.49,4.29,48.63a64.58,64.58,0,0,1-4.65,23.57l30.3-1.57v-.13c13.93-1.46,24.88-16.28,24.88-34.37C293.69,126.31,281.54,110.86,266.55,110.86Z"/></clipPath><clipPath id="clip-path-2"><path class="cls-2" d="M177.31,30.36l-.16,17.79a1.49,1.49,0,0,0-.1-.55l.16-17.79A1.49,1.49,0,0,1,177.31,30.36Z"/></clipPath><clipPath id="clip-path-3"><path class="cls-2" d="M220.72,47.74l.16-17.79a1.4,1.4,0,0,1,0-.17l-.16,17.79A1.41,1.41,0,0,0,220.72,47.74Z"/></clipPath><clipPath id="clip-path-4"><path class="cls-2" d="M176.42,49.55l-4.06,3.83a1.79,1.79,0,0,0,.49-2.11L177,47.61A1.73,1.73,0,0,1,176.42,49.55Z"/></clipPath><clipPath id="clip-path-5"><path class="cls-2" d="M225.44,53.05l-4-3.88a1.9,1.9,0,0,1-.71-1.6l4,3.65A2.07,2.07,0,0,0,225.44,53.05Z"/></clipPath><clipPath id="clip-path-6"><path class="cls-2" d="M141.36,28.67l3.89-3.75a8.15,8.15,0,0,1,3.32-1.59c2.95-.84,7-1.23,12.82-1.12l-1.71,2.95a51,51,0,0,0-14.07,1.47A10.43,10.43,0,0,0,141.36,28.67Z"/></clipPath><clipPath id="clip-path-7"><path class="cls-2" d="M253,25.09l2.1,2.1,1.72,1.72a11.88,11.88,0,0,0-5.14-2.37,55.09,55.09,0,0,0-14.43-1.45l-1.36-2.95c5.81-.12,9.95.26,13.1,1.1A9.28,9.28,0,0,1,253,25.09Z"/></clipPath><clipPath id="clip-path-8"><path class="cls-2" d="M140.51,47.82,140.67,30c0-1.23,1.65-2.45,4.94-3.39a51,51,0,0,1,14.07-1.47L159.51,43a51,51,0,0,0-14.07,1.47C142.15,45.37,140.52,46.59,140.51,47.82Z"/></clipPath><clipPath id="clip-path-9"><path class="cls-2" d="M145,53l-3.82-3.82c-1.65-1.65-.26-3.47,4.27-4.76A51,51,0,0,1,159.51,43l1.64,5.21c-5.83-.11-9.87.27-12.82,1.12C144.79,50.3,143.7,51.72,145,53Z"/></clipPath><clipPath id="clip-path-10"><path class="cls-2" d="M257.53,30.29l-.16,17.79c0-1.35-1.94-2.72-5.81-3.75a55.09,55.09,0,0,0-14.43-1.45l.16-17.79a55.09,55.09,0,0,1,14.43,1.45C255.59,27.57,257.54,28.93,257.53,30.29Z"/></clipPath><clipPath id="clip-path-11"><path class="cls-2" d="M256.68,49.44l-3.89,3.75c1.41-1.36.05-2.92-4-4-3.15-.84-7.29-1.21-13.1-1.1l1.44-5.22a55.09,55.09,0,0,1,14.43,1.45C256.75,45.71,258.49,47.69,256.68,49.44Z"/></clipPath><clipPath id="clip-path-12"><path class="cls-2" d="M138.65,6.57,139,6.2l.19-.19.39-.37.19-.19.39-.37.19-.19.39-.37,1.75-1.69a8.15,8.15,0,0,1,3.32-1.59l-3,3.31A10.43,10.43,0,0,0,138.65,6.57Z"/></clipPath><clipPath id="clip-path-13"><path class="cls-2" d="M142.29,30.92l-3.82-3.82c-1.65-1.65-.26-3.47,4.27-4.76l2.88,4.86C142.09,28.2,141,29.62,142.29,30.92Z"/></clipPath><clipPath id="clip-path-14"><path class="cls-2" d="M137.8,25.72,138,7.93c0-1.23,1.65-2.45,4.94-3.39l-.16,17.79C139.45,23.28,137.81,24.49,137.8,25.72Z"/></clipPath><clipPath id="clip-path-15"><path class="cls-2" d="M169.9,3l4,3.88a12.07,12.07,0,0,0-5.08-2.32c-7.4-2-19-2-25.91,0l3-3.31c5.4-1.55,14.48-1.55,20.26,0A8.73,8.73,0,0,1,169.9,3Z"/></clipPath><clipPath id="clip-path-16"><path class="cls-2" d="M250.35,3l.38.38.19.19.38.38.19.19.38.38.19.19.38.38.38.38.19.19.38.38.38.38.19.19.19.19A11.88,11.88,0,0,0,249,4.45c-7.4-2-19-2-25.91,0a10.56,10.56,0,0,0-4.2,2L223,2.64a7.66,7.66,0,0,1,3.09-1.47c5.4-1.55,14.48-1.55,20.26,0A9.28,9.28,0,0,1,250.35,3Z"/></clipPath><clipPath id="clip-path-17"><path class="cls-2" d="M174.62,8.27l-.16,17.79c0-1.35-1.92-2.72-5.8-3.75-7.4-2-19-2-25.91,0l.16-17.79c6.91-2,18.52-2,25.91,0C172.69,5.55,174.63,6.91,174.62,8.27Z"/></clipPath><clipPath id="clip-path-18"><path class="cls-2" d="M174.44,26.23l-4.1,4.51c.21-1.61-1.3-2.73-4.46-3.57-5.78-1.54-14.86-1.53-20.26,0l-2.88-4.86c6.91-2,18.52-2,25.91,0C172.7,23.39,174.63,24.82,174.44,26.23Z"/></clipPath><clipPath id="clip-path-19"><path class="cls-2" d="M254.84,8.19,254.68,26c0-1.35-1.94-2.72-5.81-3.75-7.4-2-19-2-25.91,0-3.3.94-4.92,2.16-4.93,3.39l.16-17.79c0-1.23,1.63-2.45,4.93-3.39,6.91-2,18.52-2,25.91,0C252.9,5.48,254.85,6.84,254.84,8.19Z"/></clipPath><clipPath id="clip-path-20"><path class="cls-2" d="M254,27.35,250.1,31.1c1.41-1.36.05-2.92-4-4-5.78-1.54-14.86-1.53-20.26,0-3,.84-4.19,2-3.59,3.57l-4.13-4.5c-.53-1.41,1.05-2.85,4.83-3.93,6.91-2,18.52-2,25.91,0C254.05,23.62,255.79,25.6,254,27.35Z"/></clipPath><clipPath id="clip-path-21"><path id="_クリッピングパス_2" data-name="&lt;クリッピングパス&gt;" class="cls-3" d="M209.67,72.26V43.79h-.18c-1-1.78-6.51-3.14-13.15-3.14S184.2,42,183.19,43.79H183V72.26Z"/></clipPath><clipPath id="clip-path-22"><path id="_クリッピングパス_3" data-name="&lt;クリッピングパス&gt;" class="cls-2" d="M209.67,72.26V43.79h-.18c-1-1.78-6.51-3.14-13.15-3.14S184.2,42,183.19,43.79H183V72.26Z"/></clipPath><clipPath id="clip-path-24"><circle id="_楕円形_" data-name="&lt;楕円形&gt;" class="cls-2" cx="197.67" cy="138.76" r="74"/></clipPath><clipPath id="clip-path-25"><circle id="_楕円形_2" data-name="&lt;楕円形&gt;" class="cls-4" cx="197.67" cy="138.76" r="74"/></clipPath><clipPath id="clip-path-26"><path id="_クリッピングパス_5" data-name="&lt;クリッピングパス&gt;" class="cls-5" d="M180.86,130.76c0-19.05-13-34.5-29.1-34.5a24.87,24.87,0,0,0-2.75.16L46.59,89.63c-21.39-3.11-40.42,14-40.42,38.46v88.67l.87-.13c3.71,6.11,19.3,9.63,37.55,8,16.31-1.42,32.91-3.63,37.58-8.08,1.21-1.15-1.72-10.62-1.72-10.62V168.82l73.72-3.57v-.13C169.11,163.67,180.86,148.84,180.86,130.76Z"/></clipPath></defs><title>アセット 1</title><g id="レイヤー_2" data-name="レイヤー 2"><g id="レイヤー_1-2" data-name="レイヤー 1"><ellipse class="cls-6" cx="287.42" cy="146.54" rx="34.75" ry="77.75"/><ellipse class="cls-7" cx="282.92" cy="146.54" rx="34.75" ry="77.75"/><path class="cls-8" d="M282.92,224.79c-19.44,0-35.25-35.1-35.25-78.25s15.81-78.25,35.25-78.25,35.25,35.1,35.25,78.25S302.36,224.79,282.92,224.79Zm0-155.5c-18.89,0-34.25,34.65-34.25,77.25s15.36,77.25,34.25,77.25,34.25-34.65,34.25-77.25S301.81,69.29,282.92,69.29Z"/><path id="_クリッピングパス_6" data-name="&lt;クリッピングパス&gt;" class="cls-3" d="M266.55,110.86A21.62,21.62,0,0,0,264,111l-25.12-1.78c6.93,14.11,4.29,33.49,4.29,48.63a64.58,64.58,0,0,1-4.65,23.57l30.3-1.57v-.13c13.93-1.46,24.88-16.28,24.88-34.37C293.69,126.31,281.54,110.86,266.55,110.86Z"/><g class="cls-9"><path id="_パス_" data-name="&lt;パス&gt;" class="cls-10" d="M266.55,68.36a21.62,21.62,0,0,0-2.56.16l-25.12-1.78c6.93,14.11,4.29,33.49,4.29,48.63a64.58,64.58,0,0,1-4.65,23.57l30.3-1.57v-.13c13.93-1.46,24.88-16.28,24.88-34.37C293.69,83.81,281.54,68.36,266.55,68.36Z"/></g><path id="_クリッピングパス_7" data-name="&lt;クリッピングパス&gt;" class="cls-11" d="M266.55,110.86A21.62,21.62,0,0,0,264,111l-25.12-1.78c6.93,14.11,4.29,33.49,4.29,48.63a64.58,64.58,0,0,1-4.65,23.57l30.3-1.57v-.13c13.93-1.46,24.88-16.28,24.88-34.37C293.69,126.31,281.54,110.86,266.55,110.86Z"/><g class="cls-12"><g class="cls-12"><g class="cls-13"><g class="cls-12"><path class="cls-14" d="M177.31,30.36l-.16,17.79a1.49,1.49,0,0,0-.1-.55l.16-17.79a1.49,1.49,0,0,1,.1.55"/></g></g></g><g class="cls-12"><g class="cls-15"><g class="cls-12"><path class="cls-16" d="M220.9,29.78l-.16,17.79s0,.09,0,.13l.16-17.79s0-.09,0-.13"/><path class="cls-17" d="M220.89,29.91l-.16,17.79v0l.16-17.79v0"/></g></g></g><g class="cls-12"><g class="cls-18"><g class="cls-12"><path class="cls-14" d="M176.21,49.74l-3.85,3.64a1.79,1.79,0,0,0,.49-2.11L177,47.61c.27.72,0,1.44-.84,2.13"/></g></g></g><g class="cls-12"><g class="cls-19"><g class="cls-12"><path class="cls-14" d="M220.73,47.57l4,3.65a2.07,2.07,0,0,0,.68,1.83l-3.77-3.67a2.07,2.07,0,0,1-.94-1.81"/></g></g></g><g class="cls-12"><g class="cls-20"><g class="cls-12"><path class="cls-21" d="M161.39,22.21l-1.71,2.95H159l1.63-3h.71"/><path class="cls-22" d="M160.68,22.2l-1.63,3h-1.78l1.5-3h1.91"/><path class="cls-23" d="M158.77,22.2l-1.5,3-1.84.06,1.5-3,1.84,0"/><path class="cls-24" d="M156.92,22.23l-1.5,3q-1,0-2,.12l1.62-3,1.86-.09"/><path class="cls-25" d="M155.06,22.32l-1.62,3c-.84.07-1.67.15-2.47.25l1.92-3.07q1-.12,2.17-.19"/><path class="cls-26" d="M152.89,22.51,151,25.59a36.13,36.13,0,0,0-5.37,1l-.45.13,3.06-3.33.35-.1a26.74,26.74,0,0,1,4.33-.81"/><path class="cls-25" d="M148.21,23.43l-3.06,3.33a17,17,0,0,0-1.68.61l3.42-3.47a13.31,13.31,0,0,1,1.31-.47"/><path class="cls-24" d="M146.9,23.91l-3.42,3.47a10.46,10.46,0,0,0-1,.47l3.64-3.57a8.15,8.15,0,0,1,.76-.37"/><path class="cls-23" d="M146.15,24.27l-3.64,3.57a6.79,6.79,0,0,0-.67.42l3.78-3.66a5.27,5.27,0,0,1,.52-.33"/><path class="cls-22" d="M145.62,24.6l-3.78,3.66a4.45,4.45,0,0,0-.47.39l3.88-3.75a3.48,3.48,0,0,1,.37-.31"/><polyline class="cls-21" points="145.25 24.91 141.37 28.66 141.36 28.66 145.25 24.92 145.25 24.91"/></g></g></g><g class="cls-12"><g class="cls-27"><g class="cls-12"><path class="cls-14" d="M253,25.1l3.82,3.82a4.48,4.48,0,0,0-.5-.43l-3.71-3.73a3.52,3.52,0,0,1,.39.34"/><path class="cls-28" d="M252.65,24.76l3.71,3.73a8,8,0,0,0-1.22-.73l-3.44-3.57a6.23,6.23,0,0,1,1,.57"/><path class="cls-29" d="M251.7,24.19l3.44,3.57q-.53-.26-1.18-.51l-3.18-3.45q.51.19.93.4"/><path class="cls-30" d="M250.77,23.79,254,27.25q-.55-.21-1.18-.4l-2.92-3.37q.49.15.92.32"/><path class="cls-17" d="M249.85,23.48l2.92,3.37-1.05-.3-.11,0-2.67-3.29.09,0,.82.24"/><path class="cls-16" d="M248.94,23.22l2.67,3.29-1.14-.27L248,23l.89.21"/><path class="cls-31" d="M248,23l2.42,3.23L249.38,26l-2.19-3.18L248,23"/><path class="cls-32" d="M247.19,22.83,249.38,26l-1.07-.19-2-3.14.86.15"/><path class="cls-33" d="M246.33,22.68l2,3.14-1.07-.17-1.78-3.1.88.13"/><path class="cls-34" d="M245.45,22.55l1.78,3.1-1.09-.14-1.61-3.07.91.11"/><path class="cls-35" d="M244.54,22.44l1.61,3.07L245,25.38l-1.45-3,1,.1"/><path class="cls-36" d="M243.57,22.34l1.45,3-1.19-.11-1.31-3,1.05.08"/><path class="cls-37" d="M242.52,22.26l1.31,3-1.27-.09-1.21-3,1.17.07"/><path class="cls-38" d="M241.35,22.2l1.21,3-1.39-.07-1.15-3,1.33,0"/><path class="cls-21" d="M240,22.15l1.15,3-1.54,0-1.16-3,1.55,0"/><path class="cls-22" d="M238.47,22.12l1.16,3H237.9l-1.29-2.95h1.85"/><path class="cls-23" d="M236.62,22.13l1.29,2.95h-.61l-1.36-2.95h.69"/></g></g></g><g class="cls-12"><g class="cls-39"><g class="cls-12"><path class="cls-33" d="M159.68,25.16,159.51,43h-1.15l.16-17.79h1.15"/><path class="cls-34" d="M158.52,25.15l-.16,17.79h-1.49L157,25.16h1.49"/><path class="cls-35" d="M157,25.16,156.87,43l-1.62.05.16-17.79,1.62-.05"/><path class="cls-36" d="M155.41,25.22,155.25,43l-1.85.11.16-17.79,1.85-.11"/><path class="cls-37" d="M153.56,25.33l-.16,17.79c-.83.06-1.65.14-2.45.24l.16-17.79c.8-.1,1.61-.18,2.45-.24"/><path class="cls-38" d="M151.12,25.57,151,43.36a36.41,36.41,0,0,0-5.51,1.06l-.26.08.16-17.79.26-.08a36.41,36.41,0,0,1,5.51-1.06"/><path class="cls-37" d="M145.34,26.71l-.16,17.79q-.91.27-1.64.57l.16-17.79q.73-.3,1.64-.57"/><path class="cls-36" d="M143.7,27.28l-.16,17.79q-.52.21-1,.44l.16-17.79q.43-.22,1-.44"/><path class="cls-35" d="M142.74,27.72l-.16,17.79a7.77,7.77,0,0,0-.69.4l.16-17.79a7.77,7.77,0,0,1,.69-.4"/><path class="cls-34" d="M142.06,28.12l-.16,17.79a5.22,5.22,0,0,0-.51.38l.16-17.79a5.22,5.22,0,0,1,.51-.38"/><path class="cls-33" d="M141.55,28.49l-.16,17.79a3.54,3.54,0,0,0-.38.37l.16-17.79a3.53,3.53,0,0,1,.38-.37"/><path class="cls-32" d="M141.17,28.86,141,46.66a2.45,2.45,0,0,0-.27.37l.16-17.79a2.44,2.44,0,0,1,.27-.37"/><path class="cls-31" d="M140.9,29.23,140.74,47a1.78,1.78,0,0,0-.17.37l.16-17.79a1.78,1.78,0,0,1,.17-.37"/><path class="cls-16" d="M140.73,29.6l-.16,17.79a1.45,1.45,0,0,0-.07.38L140.67,30a1.45,1.45,0,0,1,.07-.38"/><path class="cls-17" d="M140.67,30l-.16,17.79v0L140.67,30v0"/></g></g></g><g class="cls-12"><g class="cls-40"><g class="cls-12"><path class="cls-14" d="M159.51,43l1.64,5.21c-5.83-.11-9.87.27-12.82,1.12-3.54,1-4.63,2.43-3.34,3.72l-3.82-3.82c-1.65-1.65-.26-3.47,4.27-4.76A51,51,0,0,1,159.51,43"/></g></g></g><g class="cls-12"><g class="cls-41"><g class="cls-12"><path class="cls-14" d="M257.53,30.29l-.16,17.79c0-1.35-1.94-2.72-5.81-3.75q-.67-.18-1.38-.33l.16-17.79q.71.16,1.38.33c3.87,1,5.82,2.39,5.81,3.75"/><path class="cls-28" d="M250.34,26.21,250.18,44c-.58-.13-1.19-.24-1.81-.35l.16-17.79q.93.16,1.81.35"/><path class="cls-29" d="M248.53,25.86l-.16,17.79-1.53-.24L247,25.62l1.53.24"/><path class="cls-30" d="M247,25.62l-.16,17.79-1.42-.18.16-17.79,1.42.18"/><path class="cls-17" d="M245.58,25.44l-.16,17.79-1.36-.13.16-17.79,1.36.13"/><path class="cls-16" d="M244.22,25.31l-.16,17.79-1.34-.1.16-17.79,1.34.1"/><path class="cls-31" d="M242.88,25.21,242.71,43l-1.35-.07.16-17.79,1.35.07"/><path class="cls-32" d="M241.53,25.14l-.16,17.79-1.37,0,.16-17.79,1.37,0"/><path class="cls-33" d="M240.16,25.09,240,42.89l-1.42,0,.16-17.79,1.42,0"/><path class="cls-34" d="M238.74,25.08l-.16,17.79h-1.45l.16-17.79h1.45"/></g></g></g><g class="cls-12"><g class="cls-42"><g class="cls-12"><path class="cls-14" d="M256.68,49.44l-3.89,3.75c1.41-1.36.05-2.92-4-4-3.15-.84-7.29-1.21-13.1-1.1l1.44-5.22a55.09,55.09,0,0,1,14.43,1.45c5.19,1.38,6.93,3.36,5.12,5.11"/></g></g></g><polygon class="cls-26" points="186.48 15.04 180.79 19.12 159.68 25.16 161.39 22.21 186.48 15.04"/><polygon class="cls-43" points="235.92 22.14 237.29 25.09 214.71 19.09 209.1 15.02 235.92 22.14"/><polygon class="cls-44" points="180.79 19.12 180.63 36.92 159.51 42.95 159.68 25.16 180.79 19.12"/><polygon class="cls-6" points="237.29 25.09 237.13 42.88 214.55 36.89 214.71 19.09 237.29 25.09"/><polygon class="cls-45" points="180.63 36.92 186.24 40.99 161.15 48.17 159.51 42.95 180.63 36.92"/><polygon class="cls-46" points="237.13 42.88 235.69 48.1 208.86 40.97 214.55 36.89 237.13 42.88"/><polygon class="cls-43" points="197.41 11.91 197.18 14.44 174.6 8.44 170.58 4.79 197.41 11.91"/><polygon class="cls-26" points="222.49 4.74 218.28 8.4 197.18 14.44 197.41 11.91 222.49 4.74"/><polygon class="cls-6" points="197.18 14.44 197.02 32.23 174.44 26.23 174.6 8.44 197.18 14.44"/><polygon class="cls-46" points="197.02 32.23 197.17 37.87 170.34 30.74 174.44 26.23 197.02 32.23"/><polygon class="cls-45" points="218.12 26.2 222.25 30.7 197.17 37.87 197.02 32.23 218.12 26.2"/><polygon class="cls-47" points="218.28 8.4 218.12 26.2 197.02 32.23 197.18 14.44 218.28 8.4"/><g class="cls-12"><g class="cls-48"><g class="cls-12"><path class="cls-26" d="M145.86,1.24l-3,3.31-.45.13,3.06-3.33.35-.1"/><path class="cls-25" d="M145.51,1.34l-3.06,3.33a17,17,0,0,0-1.68.61l3.42-3.47a13.3,13.3,0,0,1,1.31-.47"/><path class="cls-24" d="M144.2,1.81l-3.42,3.47a10.49,10.49,0,0,0-1,.47l3.64-3.57a8.14,8.14,0,0,1,.76-.37"/><path class="cls-23" d="M143.44,2.18l-3.64,3.57a6.79,6.79,0,0,0-.67.42l3.78-3.66a5.27,5.27,0,0,1,.52-.33"/><path class="cls-22" d="M142.92,2.51l-3.78,3.66a4.45,4.45,0,0,0-.47.39l3.88-3.75a3.48,3.48,0,0,1,.37-.31"/><polyline class="cls-21" points="142.55 2.82 138.66 6.57 138.65 6.57 142.54 2.82 142.55 2.82"/></g></g></g><g class="cls-12"><g class="cls-49"><g class="cls-12"><path class="cls-14" d="M142.74,22.33l2.88,4.86c-3.54,1-4.63,2.43-3.34,3.72l-3.82-3.82c-1.65-1.65-.26-3.47,4.27-4.76"/></g></g></g><g class="cls-12"><g class="cls-50"><g class="cls-12"><path class="cls-38" d="M142.9,4.54l-.16,17.79-.26.08.16-17.79.26-.08"/><path class="cls-37" d="M142.64,4.62l-.16,17.79q-.91.27-1.64.57L141,5.19q.73-.3,1.64-.57"/><path class="cls-36" d="M141,5.19,140.84,23q-.52.21-1,.44L140,5.63q.43-.22,1-.44"/><path class="cls-35" d="M140,5.63l-.16,17.79a7.77,7.77,0,0,0-.69.4L139.35,6a7.78,7.78,0,0,1,.69-.4"/><path class="cls-34" d="M139.35,6l-.16,17.79a5.22,5.22,0,0,0-.51.38l.16-17.79a5.22,5.22,0,0,1,.51-.38"/><path class="cls-33" d="M138.84,6.4l-.16,17.79a3.53,3.53,0,0,0-.38.37l.16-17.79a3.53,3.53,0,0,1,.38-.37"/><path class="cls-32" d="M138.47,6.77l-.16,17.79a2.44,2.44,0,0,0-.27.37l.16-17.79a2.44,2.44,0,0,1,.27-.37"/><path class="cls-31" d="M138.2,7.14,138,24.93a1.78,1.78,0,0,0-.17.37L138,7.51a1.78,1.78,0,0,1,.17-.37"/><path class="cls-16" d="M138,7.51l-.16,17.79a1.45,1.45,0,0,0-.07.38L138,7.89a1.45,1.45,0,0,1,.07-.38"/><path class="cls-17" d="M138,7.89l-.16,17.79v0L138,7.93v0"/></g></g></g><g class="cls-12"><g class="cls-51"><g class="cls-12"><path class="cls-14" d="M170.08,3.15l3.82,3.69a4.7,4.7,0,0,0-.52-.43l-3.7-3.65a3.2,3.2,0,0,1,.4.38"/><path class="cls-28" d="M169.68,2.77l3.7,3.65a8.24,8.24,0,0,0-1.24-.72l-3.42-3.54a5.32,5.32,0,0,1,1,.61"/><path class="cls-29" d="M168.72,2.15l3.42,3.54q-.52-.25-1.16-.49l-3.17-3.45a9.48,9.48,0,0,1,.9.4"/><path class="cls-30" d="M167.82,1.76,171,5.2q-.53-.2-1.13-.39l-2.92-3.37q.47.15.88.3"/><path class="cls-17" d="M166.93,1.45l2.92,3.37-1-.3-.11,0L166,1.19l.09,0,.81.23"/><path class="cls-16" d="M166,1.19l2.67,3.29-1.16-.28L165.13,1l.9.22"/><path class="cls-31" d="M165.13,1l2.42,3.23L166.4,4,164.23.79l.9.18"/><path class="cls-32" d="M164.23.79,166.4,4l-1.14-.2L163.34.63l.89.16"/><path class="cls-33" d="M163.34.63l1.92,3.14L164.1,3.6,162.44.5l.9.14"/><path class="cls-34" d="M162.44.5l1.67,3.1-1.17-.15L161.52.38l.92.12"/><path class="cls-35" d="M161.52.38l1.41,3.07-1.2-.12-1.15-3,.94.1"/><path class="cls-36" d="M160.58.28l1.15,3-1.24-.1-.88-3,1,.08"/><path class="cls-37" d="M159.62.2l.88,3-1.28-.08-.6-3,1,.06"/><path class="cls-38" d="M158.62.14l.6,3-1.34-.06-.31-3,1,0"/><path class="cls-21" d="M157.57.1l.31,3-1.42,0v-3l1.11,0"/><path class="cls-22" d="M156.45.07v3h-1.53l.34-3h1.2"/><path class="cls-23" d="M155.26.07l-.34,3-1.69,0,.7-3,1.32,0"/><path class="cls-24" d="M153.94.11l-.7,3q-1,0-2,.1l1.13-3,1.53-.08"/><path class="cls-25" d="M152.41.19l-1.13,3c-.88.06-1.75.14-2.6.24l1.7-3.07c.66-.08,1.34-.14,2-.19"/><path class="cls-26" d="M150.38.38l-1.7,3.07a37,37,0,0,0-5.78,1.1l3-3.31a28.93,28.93,0,0,1,4.52-.86"/></g></g></g><g class="cls-12"><g class="cls-52"><g class="cls-12"><path class="cls-14" d="M250.35,3l3.82,3.82a4.48,4.48,0,0,0-.5-.43L250,2.67a3.5,3.5,0,0,1,.39.34"/><path class="cls-28" d="M250,2.67l3.71,3.73a8,8,0,0,0-1.22-.73L249,2.1a6.21,6.21,0,0,1,1,.57"/><path class="cls-29" d="M249,2.1l3.44,3.57q-.53-.26-1.18-.51L248.08,1.7q.51.19.93.4"/><path class="cls-30" d="M248.08,1.7l3.18,3.45q-.55-.21-1.18-.4l-2.92-3.37q.49.15.92.32"/><path class="cls-17" d="M247.16,1.38l2.92,3.37L249,4.45l-.11,0-2.67-3.29.09,0,.82.24"/><path class="cls-16" d="M246.24,1.12l2.67,3.29-1.16-.28L245.34.9l.9.22"/><path class="cls-31" d="M245.34.9l2.42,3.23-1.15-.24L244.45.72l.9.18"/><path class="cls-32" d="M244.45.72l2.17,3.18-1.14-.2L243.55.56l.89.16"/><path class="cls-33" d="M243.55.56l1.92,3.14-1.15-.17L242.65.43l.9.14"/><path class="cls-34" d="M242.65.43l1.67,3.1-1.17-.15L241.74.31l.92.12"/><path class="cls-35" d="M241.74.31l1.41,3.07-1.2-.12-1.15-3,.94.1"/><path class="cls-36" d="M240.8.21l1.15,3-1.24-.1-.88-3,1,.08"/><path class="cls-37" d="M239.83.13l.88,3-1.28-.08-.6-3,1,.06"/><path class="cls-38" d="M238.83.07l.6,3L238.09,3l-.31-3,1,0"/><path class="cls-21" d="M237.78,0l.31,3-1.42,0V0l1.11,0"/><path class="cls-22" d="M236.67,0V3h-1.53l.34-3h1.2"/><path class="cls-23" d="M235.47,0l-.34,3-1.69,0,.7-3,1.32,0"/><path class="cls-24" d="M234.15,0l-.7,3q-1,0-2,.1l1.13-3L234.15,0"/><path class="cls-25" d="M232.62.12l-1.13,3c-.88.06-1.75.14-2.6.24l1.7-3.07c.66-.08,1.34-.14,2-.19"/><path class="cls-26" d="M230.59.31l-1.7,3.07a37,37,0,0,0-5.78,1.1l-.48.14,3.06-3.34.38-.11a28.93,28.93,0,0,1,4.52-.86"/><path class="cls-25" d="M225.7,1.28l-3.06,3.34q-.89.27-1.6.58l3.41-3.46a12.21,12.21,0,0,1,1.24-.45"/><path class="cls-24" d="M224.45,1.73,221,5.19q-.5.21-.92.44l3.62-3.54a7.12,7.12,0,0,1,.71-.35"/><path class="cls-23" d="M223.74,2.09l-3.62,3.54a7.18,7.18,0,0,0-.65.39l3.77-3.6a4.59,4.59,0,0,1,.5-.33"/><path class="cls-22" d="M223.25,2.41,219.48,6a4.87,4.87,0,0,0-.48.37l3.89-3.65a3.13,3.13,0,0,1,.36-.32"/><path class="cls-21" d="M222.88,2.73,219,6.39l-.08.07,3.91-3.66.06-.06"/></g></g></g><path class="cls-53" d="M145.63,27.19c5.4-1.55,14.48-1.55,20.26,0,3.16.84,4.67,2,4.46,3.57l26.83,7.13,25.08-7.17c-.6-1.6.63-2.73,3.59-3.57,5.4-1.55,14.48-1.55,20.26,0s6.09,4,.68,5.58c-3,.84-7,1.22-12.84,1.12L208.86,41l26.83,7.13c5.81-.12,9.95.26,13.1,1.1,5.78,1.53,6.09,4,.68,5.58s-14.48,1.55-20.26,0c-3.15-.84-4.66-2-4.45-3.57L197.93,44.1l-25.09,7.17c.61,1.6-.63,2.73-3.57,3.57-5.4,1.55-14.48,1.55-20.26,0s-6.09-4-.68-5.58c2.95-.84,7-1.23,12.82-1.12L186.24,41l-26.83-7.13c-5.82.12-10-.26-13.11-1.09C140.53,31.24,140.22,28.74,145.63,27.19Z"/><path class="cls-53" d="M145.63,27.19c5.4-1.55,14.48-1.55,20.26,0,3.16.84,4.67,2,4.46,3.57l26.83,7.13,25.08-7.17c-.6-1.6.63-2.73,3.59-3.57,5.4-1.55,14.48-1.55,20.26,0s6.09,4,.68,5.58c-3,.84-7,1.22-12.84,1.12L208.86,41l26.83,7.13c5.81-.12,9.95.26,13.1,1.1,5.78,1.53,6.09,4,.68,5.58s-14.48,1.55-20.26,0c-3.15-.84-4.66-2-4.45-3.57L197.93,44.1l-25.09,7.17c.61,1.6-.63,2.73-3.57,3.57-5.4,1.55-14.48,1.55-20.26,0s-6.09-4-.68-5.58c2.95-.84,7-1.23,12.82-1.12L186.24,41l-26.83-7.13c-5.82.12-10-.26-13.11-1.09C140.53,31.24,140.22,28.74,145.63,27.19Z"/><g class="cls-12"><g class="cls-54"><g class="cls-12"><path class="cls-14" d="M174.62,8.27l-.16,17.79c0-1.35-1.92-2.72-5.8-3.75q-.66-.18-1.37-.33l.16-17.79q.71.16,1.37.33c3.88,1,5.81,2.4,5.8,3.75"/><path class="cls-28" d="M167.44,4.19,167.28,22c-.58-.13-1.19-.25-1.81-.35l.16-17.79c.62.11,1.23.22,1.81.35"/><path class="cls-29" d="M165.63,3.83l-.16,17.79-1.55-.24.16-17.79,1.55.24"/><path class="cls-30" d="M164.08,3.59l-.16,17.79-1.42-.18.16-17.79,1.42.18"/><path class="cls-17" d="M162.66,3.42l-.16,17.79-1.36-.13.16-17.79,1.36.13"/><path class="cls-16" d="M161.29,3.29l-.16,17.79-1.34-.1L160,3.18l1.34.1"/><path class="cls-31" d="M160,3.18,159.79,21l-1.34-.07.16-17.79,1.34.07"/><path class="cls-32" d="M158.61,3.11l-.16,17.79-1.37,0,.16-17.79,1.37,0"/><path class="cls-33" d="M157.25,3.07l-.16,17.79-1.41,0,.16-17.79,1.41,0"/><path class="cls-34" d="M155.84,3.05l-.16,17.79h-1.49l.16-17.79h1.49"/><path class="cls-35" d="M154.35,3.07l-.16,17.79-1.62.05.16-17.79,1.62-.05"/><path class="cls-36" d="M152.73,3.12l-.16,17.79-1.87.11.16-17.79,1.87-.11"/><path class="cls-37" d="M150.85,3.23,150.69,21c-.84.06-1.66.15-2.46.24l.16-17.79c.8-.1,1.62-.18,2.46-.24"/><path class="cls-38" d="M148.4,3.48l-.16,17.79a36.48,36.48,0,0,0-5.49,1.06l.16-17.79a36.48,36.48,0,0,1,5.49-1.06"/></g></g></g><g class="cls-12"><g class="cls-55"><g class="cls-12"><path class="cls-14" d="M174.44,26.23l-4.1,4.51c.21-1.61-1.3-2.73-4.46-3.57-5.78-1.54-14.86-1.53-20.26,0l-2.88-4.86c6.91-2,18.52-2,25.91,0,4,1.07,6,2.51,5.79,3.92"/></g></g></g><g class="cls-12"><g class="cls-56"><g class="cls-12"><path class="cls-14" d="M254.84,8.19,254.68,26c0-1.35-1.94-2.72-5.81-3.75q-.66-.18-1.37-.33l.16-17.79q.71.16,1.37.33c3.87,1,5.82,2.4,5.81,3.75"/><path class="cls-28" d="M247.66,4.12l-.16,17.79q-.88-.19-1.81-.35l.16-17.79q.93.16,1.81.35"/><path class="cls-29" d="M245.85,3.76l-.16,17.79-1.55-.24.16-17.79,1.55.24"/><path class="cls-30" d="M244.29,3.52l-.16,17.79-1.42-.18.16-17.79,1.42.18"/><path class="cls-17" d="M242.87,3.35l-.16,17.79L241.35,21l.16-17.79,1.36.13"/><path class="cls-16" d="M241.51,3.21,241.35,21l-1.34-.1.16-17.79,1.34.1"/><path class="cls-31" d="M240.17,3.11,240,20.91l-1.34-.07L238.83,3l1.34.07"/><path class="cls-32" d="M238.83,3l-.16,17.79-1.37,0L237.46,3l1.37,0"/><path class="cls-33" d="M237.46,3l-.16,17.79-1.41,0L236,3l1.41,0"/><path class="cls-34" d="M236,3l-.16,17.79H234.4L234.56,3H236"/><path class="cls-35" d="M234.56,3l-.16,17.79-1.62.05L232.94,3,234.56,3"/><path class="cls-36" d="M232.94,3l-.16,17.79-1.87.11.16-17.79L232.94,3"/><path class="cls-37" d="M231.07,3.16,230.91,21c-.84.06-1.66.15-2.46.24l.16-17.79c.8-.1,1.62-.18,2.46-.24"/><path class="cls-38" d="M228.61,3.41l-.16,17.79A36.48,36.48,0,0,0,223,22.26l-.29.08.16-17.79.29-.08a36.49,36.49,0,0,1,5.49-1.06"/><path class="cls-37" d="M222.83,4.55l-.16,17.79q-.89.27-1.61.56l.16-17.79q.72-.29,1.61-.56"/><path class="cls-36" d="M221.22,5.12l-.16,17.79q-.53.21-1,.44l.16-17.79q.43-.23,1-.44"/><path class="cls-35" d="M220.25,5.56l-.16,17.79a7.71,7.71,0,0,0-.68.4L219.57,6a7.71,7.71,0,0,1,.68-.4"/><path class="cls-34" d="M219.57,6l-.16,17.79a5.2,5.2,0,0,0-.51.38l.16-17.79a5.2,5.2,0,0,1,.51-.38"/><path class="cls-33" d="M219.07,6.33l-.16,17.79a3.52,3.52,0,0,0-.38.37l.16-17.79a3.54,3.54,0,0,1,.38-.37"/><path class="cls-32" d="M218.69,6.69l-.16,17.79a2.44,2.44,0,0,0-.27.37l.16-17.79a2.45,2.45,0,0,1,.27-.37"/><path class="cls-31" d="M218.42,7.06l-.16,17.79a1.79,1.79,0,0,0-.17.37l.16-17.79a1.78,1.78,0,0,1,.17-.37"/><path class="cls-16" d="M218.25,7.43l-.16,17.79a1.46,1.46,0,0,0-.07.38l.16-17.79a1.46,1.46,0,0,1,.07-.38"/><path class="cls-17" d="M218.19,7.82,218,25.61v0l.16-17.79v0"/></g></g></g><g class="cls-12"><g class="cls-57"><g class="cls-12"><path class="cls-14" d="M254,27.35,250.1,31.1c1.41-1.36.05-2.92-4-4-5.78-1.54-14.86-1.53-20.26,0-3,.84-4.19,2-3.59,3.57l-4.13-4.5c-.53-1.41,1.05-2.85,4.83-3.93,6.91-2,18.52-2,25.91,0,5.19,1.38,6.93,3.36,5.12,5.11"/></g></g></g></g><path id="_クリッピングパス_8" data-name="&lt;クリッピングパス&gt;" class="cls-3" d="M209.67,72.26V43.79h-.18c-1-1.78-6.51-3.14-13.15-3.14S184.2,42,183.19,43.79H183V72.26Z"/><g class="cls-58"><path id="_パス_2" data-name="&lt;パス&gt;" class="cls-10" d="M208.19,70.6V42.13H208c-.91-1.78-5.82-3.15-11.76-3.15s-10.85,1.36-11.76,3.15h-.16V70.6Z"/><g class="cls-59"><path id="_パス_3" data-name="&lt;パス&gt;" class="cls-3" d="M208.19,70.6V42.13H208c-.91-1.78-5.82-3.15-11.76-3.15s-10.85,1.36-11.76,3.15h-.16V70.6Z"/><path class="cls-3" d="M208.19,42.13H208c-.9-1.76-5.69-3.11-11.53-3.14V70.6h11.69Z"/></g><path id="_クリッピングパス_9" data-name="&lt;クリッピングパス&gt;" class="cls-3" d="M209.67,72.26V43.79h-.18c-1-1.78-6.51-3.14-13.15-3.14S184.2,42,183.19,43.79H183V72.26Z"/><g class="cls-58"><path id="_パス_4" data-name="&lt;パス&gt;" class="cls-10" d="M208.19,70.6V42.13H208c-.91-1.78-5.82-3.15-11.76-3.15s-10.85,1.36-11.76,3.15h-.16V70.6Z"/><path class="cls-3" d="M208.19,42.13H208c-.9-1.76-5.69-3.11-11.53-3.14V70.6h11.69Z"/></g></g><g class="cls-60"><circle id="_楕円形_3" data-name="&lt;楕円形&gt;" class="cls-6" cx="202.77" cy="138.76" r="74"/></g><circle id="_楕円形_4" data-name="&lt;楕円形&gt;" class="cls-47" cx="197.67" cy="138.76" r="74"/><g class="cls-61"><circle id="_楕円形_5" data-name="&lt;楕円形&gt;" class="cls-3" cx="202.77" cy="138.76" r="74"/></g><circle id="_楕円形_6" data-name="&lt;楕円形&gt;" class="cls-11" cx="197.67" cy="138.76" r="74"/><circle class="cls-10" cx="196.34" cy="133.79" r="65"/><path id="_クリッピングパス_10" data-name="&lt;クリッピングパス&gt;" class="cls-62" d="M180.86,130.76c0-19.05-13-34.5-29.1-34.5a24.87,24.87,0,0,0-2.75.16L46.59,89.63c-21.39-3.11-40.42,14-40.42,38.46v88.67l.87-.13c3.71,6.11,19.3,9.63,37.55,8,16.31-1.42,32.91-3.63,37.58-8.08,1.21-1.15-1.72-10.62-1.72-10.62V168.82l73.72-3.57v-.13C169.11,163.67,180.86,148.84,180.86,130.76Z"/><g class="cls-63"><path id="_パス_5" data-name="&lt;パス&gt;" class="cls-64" d="M214.86,140.76c0-19.05-13-34.5-29.1-34.5a24.87,24.87,0,0,0-2.75.16L80.59,99.63c-21.39-3.11-40.42,14-40.42,38.46v88.67l.87-.13c3.71,6.11,19.3,9.63,37.55,8,16.31-1.42,32.91-3.63,37.58-8.08,1.21-1.15-1.72-10.62-1.72-10.62V178.82l73.72-3.57v-.13C203.11,173.67,214.86,158.84,214.86,140.76Z"/><path id="_パス_6" data-name="&lt;パス&gt;" class="cls-26" d="M209.93,135.76c0-19.05-13-34.5-29.1-34.5a24.87,24.87,0,0,0-2.75.16L75.66,94.63c-21.39-3.11-40.42,14-40.42,38.46v88.67l.87-.13c3.71,6.11,19.3,9.63,37.55,8,16.31-1.42,32.91-3.63,37.58-8.08,1.21-1.15-1.72-10.62-1.72-10.62V173.82l73.72-3.57v-.13C198.19,168.67,209.93,153.84,209.93,135.76Z"/><path id="_パス_7" data-name="&lt;パス&gt;" class="cls-3" d="M212.86,137.76c0-19.05-13-34.5-29.1-34.5a24.87,24.87,0,0,0-2.75.16L78.59,96.63c-21.39-3.11-40.42,14-40.42,38.46v88.67l.87-.13c3.71,6.11,19.3,9.63,37.55,8,16.31-1.42,32.91-3.63,37.58-8.08,1.21-1.15-1.72-10.62-1.72-10.62V175.82l73.72-3.57v-.13C201.11,170.67,212.86,155.84,212.86,137.76Z"/><path class="cls-6" d="M55.16,200.41V138.57a11.87,11.87,0,0,1,5.71-10.16c4-2.45,9.44-5.16,13.56-5.16h111l-11.5,51.5-92.25,56.5L55.16,200.41"/><path class="cls-53" d="M80.17,131.26l.28,37.57,82.22-3.57s32-28.33,31.67-33S80.17,131.26,80.17,131.26Z"/></g><path id="_クリッピングパス_11" data-name="&lt;クリッピングパス&gt;" class="cls-65" d="M180.86,130.76c0-19.05-13-34.5-29.1-34.5a24.87,24.87,0,0,0-2.75.16L46.59,89.63c-21.39-3.11-40.42,14-40.42,38.46v88.67l.87-.13c3.71,6.11,19.3,9.63,37.55,8,16.31-1.42,32.91-3.63,37.58-8.08,1.21-1.15-1.72-10.62-1.72-10.62V168.82l73.72-3.57v-.13C169.11,163.67,180.86,148.84,180.86,130.76Z"/><path class="cls-66" d="M44.67,200C20.55,200,1,205.64,1,212.55c0,3.56,5.2,6.76,13.53,9C9.3,220,6.17,218.05,6.17,215.9c0-5.05,17.24-9.15,38.5-9.15s38.5,4.1,38.5,9.15c0,2.15-3.13,4.13-8.35,5.69,8.33-2.28,13.53-5.48,13.53-9C88.34,205.64,68.79,200,44.67,200Z"/><path class="cls-26" d="M42.31,225h0Z"/><path class="cls-26" d="M47,225h0Z"/><ellipse class="cls-67" cx="44.67" cy="215.9" rx="38.5" ry="9.15"/><ellipse class="cls-68" cx="44.67" cy="214.67" rx="33.32" ry="7.92"/><path class="cls-64" d="M18.31,108.74c-4,6.94-5.5,13.42-7,12.57s-1.84-8.46,2.17-15.39S24.36,95.35,25.84,96.2,22.32,101.81,18.31,108.74Z"/><path class="cls-64" d="M1.84,213.17s0-3.33,5.67-5.83,23.25-6,29.58-6.17V203S5.92,204.84,1.84,213.17Z"/><polygon class="cls-64" points="8.17 122.75 8.17 204.83 11.35 203.5 10.31 122.75 8.17 122.75"/><path class="cls-67" d="M224.9,79a67,67,0,0,1-89.41,93.53A67,67,0,1,0,224.9,79Z"/><circle class="cls-64" cx="164" cy="81.56" r="5.56"/></g></g></svg>